
            <svg xmlns="http://www.w3.org/2000/svg" xmlns:cc="http://creativecommons.org/ns#" xmlns:rdf="http://www.w3.org/1999/02/22-rdf-syntax-ns#" version="1.1" width="678.796875" height="1007.9375610351562">
              <defs>
                <style type="text/css">svg{background-color:#fff}text,tspan{font:12px Arial}path{fill-opacity:0;stroke-width:2px;stroke:#000}circle{fill:#6b6659;stroke-width:2px;stroke:#000}.anchor text,.any-character text{fill:#fff}.anchor rect,.any-character rect{fill:#6b6659}.escape text,.charset-escape text,.literal text{fill:#000}.escape rect,.charset-escape rect{fill:#bada55}.literal rect{fill:#dae9e5}.charset .charset-box{fill:#cbcbba}.subexp .subexp-label tspan,.charset .charset-label tspan,.match-fragment .repeat-label tspan{font-size:10px}.repeat-label{cursor:help}.subexp .subexp-label tspan,.charset .charset-label tspan{dominant-baseline:text-after-edge}.subexp .subexp-box{stroke:#908c83;stroke-dasharray:6,2;stroke-width:2px;fill-opacity:0}.quote{fill:#908c83}
          </style>
              </defs>
              <metadata>
                <rdf:rdf>
                  <cc:license rdf:about="http://creativecommons.org/licenses/by/3.0/">
                    <cc:permits rdf:resource="http://creativecommons.org/ns#Reproduction"></cc:permits>
                    <cc:permits rdf:resource="http://creativecommons.org/ns#Distribution"></cc:permits>
                    <cc:requires rdf:resource="http://creativecommons.org/ns#Notice"></cc:requires>
                    <cc:requires rdf:resource="http://creativecommons.org/ns#Attribution"></cc:requires>
                    <cc:permits rdf:resource="http://creativecommons.org/ns#DerivativeWorks"></cc:permits>
                  </cc:license>
                </rdf:rdf>
              </metadata>
            <desc>Created with Snap</desc><g transform="matrix(1,0,0,1,15,10)" class="root"><g transform="matrix(1,0,0,1,10,0)" class="regexp"><path d="M10,31.757800000000003q0,-10 10,-10M618.796875,31.757800000000003q0,-10 -10,-10M10,80.27340000000001q0,-10 10,-10M618.796875,80.27340000000001q0,-10 -10,-10M10,118.7813q0,-10 10,-10M618.796875,118.7813q0,-10 -10,-10M10,157.28910000000002q0,-10 10,-10M618.796875,157.28910000000002q0,-10 -10,-10M10,205.8047q0,-10 10,-10M618.796875,205.8047q0,-10 -10,-10M10,254.3203q0,-10 10,-10M618.796875,254.3203q0,-10 -10,-10M10,386.4766q0,-10 10,-10M618.796875,386.4766q0,-10 -10,-10M10,571.0859951293945q0,10 10,10M618.796875,571.0859951293945q0,10 -10,10M10,731.6407q0,10 10,10M618.796875,731.6407q0,10 -10,10M10,833.9063000000001q0,10 10,10M618.796875,833.9063000000001q0,10 -10,10M10,931.9296999999999q0,10 10,10M618.796875,931.9296999999999q0,10 -10,10M0,493.9687805175781q10,0 10,-10V31.757800000000003M628.796875,493.9687805175781q-10,0 -10,-10V31.757800000000003M0,493.9687805175781q10,0 10,10V931.9296999999999M628.796875,493.9687805175781q-10,0 -10,10V931.9296999999999"></path><g transform="matrix(1,0,0,1,20,0)" class="regexp-matches"><path d="M0,21.757800000000003h182.9766M405.82034999999996,21.757800000000003H588.796875M0,70.27340000000001h182.3203M406.47655,70.27340000000001H588.796875M0,108.7813h253.7188M335.078175,108.7813H588.796875M0,147.28910000000002h184.9766M403.82034999999996,147.28910000000002H588.796875M0,195.8047h177.6406M411.156225,195.8047H588.796875M0,244.3203h176.9844M411.812525,244.3203H588.796875M0,376.4766h10M578.7969194824218,376.4766H588.796875M0,581.0859951293945h10M578.7968957763671,581.0859951293945H588.796875M0,741.6407h69.2188M529.578175,741.6407H588.796875M0,843.9063000000001h127.336M451.460975,843.9063000000001H588.796875M0,941.9296999999999h56.8828M521.91405,941.9296999999999H588.796875"></path><g class="match" transform="matrix(1,0,0,1,182.9766,0)"><path d="M45.328125,21.757800000000003H70.3281M153.187475,21.7578125H178.1875"></path><g class="match-fragment literal" transform="matrix(1,0,0,1,0,10.0078)"><g class="label"><rect width="45.328125" height="23.5" rx="3" ry="3"></rect><text x="0" y="0" transform="matrix(1,0,0,1,5,16.75)"><tspan class="quote">“</tspan><tspan>brute</tspan><tspan class="quote">”</tspan></text></g></g><g class="match-fragment" transform="matrix(1,0,0,1,55.3281,0)"><path d="M0,21.7578125q10,0 10,-10v-1.7578125q0,-10 10,-10h72.859375q10,0 10,10v1.7578125q0,10 10,10M15,21.7578125q-10,0 -10,10v1.7578125q0,10 10,10h82.859375q10,0 10,-10v-1.7578125q0,-10 -10,-10M107.859375,36.7578125l5,-5m-5,5l-5,-5"></path><g class="any-character" transform="matrix(1,0,0,1,15,10)"><g class="label"><rect width="82.859375" height="23.515625"></rect><text x="0" y="0" transform="matrix(1,0,0,1,5,16.7578)"><tspan>any character</tspan></text></g></g></g><g class="match-fragment literal" transform="matrix(1,0,0,1,178.1875,10.0078)"><g class="label"><rect width="44.65625" height="23.5" rx="3" ry="3"></rect><text x="0" y="0" transform="matrix(1,0,0,1,5,16.75)"><tspan class="quote">“</tspan><tspan>force</tspan><tspan class="quote">”</tspan></text></g></g></g><g transform="matrix(1,0,0,1,182.3203,48.5156)" class="match"><path d="M42.640625,21.757800000000003H67.6406M150.499975,21.7578125H175.5"></path><g class="match-fragment literal" transform="matrix(1,0,0,1,0,10.0078)"><g class="label"><rect width="42.640625" height="23.5" rx="3" ry="3"></rect><text x="0" y="0" transform="matrix(1,0,0,1,5,16.75)"><tspan class="quote">“</tspan><tspan>sess</tspan><tspan class="quote">”</tspan></text></g></g><g class="match-fragment" transform="matrix(1,0,0,1,52.6406,0)"><path d="M0,21.7578125q10,0 10,-10v-1.7578125q0,-10 10,-10h72.859375q10,0 10,10v1.7578125q0,10 10,10M15,21.7578125q-10,0 -10,10v1.7578125q0,10 10,10h82.859375q10,0 10,-10v-1.7578125q0,-10 -10,-10M107.859375,36.7578125l5,-5m-5,5l-5,-5"></path><g class="any-character" transform="matrix(1,0,0,1,15,10)"><g class="label"><rect width="82.859375" height="23.515625"></rect><text x="0" y="0" transform="matrix(1,0,0,1,5,16.7578)"><tspan>any character</tspan></text></g></g></g><g class="match-fragment literal" transform="matrix(1,0,0,1,175.5,10)"><g class="label"><rect width="48.65625" height="23.515625" rx="3" ry="3"></rect><text x="0" y="0" transform="matrix(1,0,0,1,5,16.7578)"><tspan class="quote">“</tspan><tspan>hijack</tspan><tspan class="quote">”</tspan></text></g></g></g><g class="match match-fragment literal" transform="matrix(1,0,0,1,253.7188,97.0313)"><g class="label"><rect width="81.359375" height="23.5" rx="3" ry="3"></rect><text x="0" y="0" transform="matrix(1,0,0,1,5,16.75)"><tspan class="quote">“</tspan><tspan>broken auth</tspan><tspan class="quote">”</tspan></text></g></g><g transform="matrix(1,0,0,1,184.9766,125.5313)" class="match"><path d="M41.328125,21.757800000000003H66.3281M149.187475,21.7578125H174.1875"></path><g class="match-fragment literal" transform="matrix(1,0,0,1,0,10.0078)"><g class="label"><rect width="41.328125" height="23.5" rx="3" ry="3"></rect><text x="0" y="0" transform="matrix(1,0,0,1,5,16.75)"><tspan class="quote">“</tspan><tspan>auth</tspan><tspan class="quote">”</tspan></text></g></g><g class="match-fragment" transform="matrix(1,0,0,1,51.3281,0)"><path d="M0,21.7578125q10,0 10,-10v-1.7578125q0,-10 10,-10h72.859375q10,0 10,10v1.7578125q0,10 10,10M15,21.7578125q-10,0 -10,10v1.7578125q0,10 10,10h82.859375q10,0 10,-10v-1.7578125q0,-10 -10,-10M107.859375,36.7578125l5,-5m-5,5l-5,-5"></path><g class="any-character" transform="matrix(1,0,0,1,15,10)"><g class="label"><rect width="82.859375" height="23.515625"></rect><text x="0" y="0" transform="matrix(1,0,0,1,5,16.7578)"><tspan>any character</tspan></text></g></g></g><g class="match-fragment literal" transform="matrix(1,0,0,1,174.1875,10.0078)"><g class="label"><rect width="44.65625" height="23.5" rx="3" ry="3"></rect><text x="0" y="0" transform="matrix(1,0,0,1,5,16.75)"><tspan class="quote">“</tspan><tspan> brok</tspan><tspan class="quote">”</tspan></text></g></g></g><g transform="matrix(1,0,0,1,177.6406,174.0469)" class="match"><path d="M41.328125,21.757800000000003H66.3281M149.187475,21.7578125H174.1875"></path><g class="match-fragment literal" transform="matrix(1,0,0,1,0,10.0078)"><g class="label"><rect width="41.328125" height="23.5" rx="3" ry="3"></rect><text x="0" y="0" transform="matrix(1,0,0,1,5,16.75)"><tspan class="quote">“</tspan><tspan>auth</tspan><tspan class="quote">”</tspan></text></g></g><g class="match-fragment" transform="matrix(1,0,0,1,51.3281,0)"><path d="M0,21.7578125q10,0 10,-10v-1.7578125q0,-10 10,-10h72.859375q10,0 10,10v1.7578125q0,10 10,10M15,21.7578125q-10,0 -10,10v1.7578125q0,10 10,10h82.859375q10,0 10,-10v-1.7578125q0,-10 -10,-10M107.859375,36.7578125l5,-5m-5,5l-5,-5"></path><g class="any-character" transform="matrix(1,0,0,1,15,10)"><g class="label"><rect width="82.859375" height="23.515625"></rect><text x="0" y="0" transform="matrix(1,0,0,1,5,16.7578)"><tspan>any character</tspan></text></g></g></g><g class="match-fragment literal" transform="matrix(1,0,0,1,174.1875,10)"><g class="label"><rect width="59.328125" height="23.515625" rx="3" ry="3"></rect><text x="0" y="0" transform="matrix(1,0,0,1,5,16.7578)"><tspan class="quote">“</tspan><tspan> bypass</tspan><tspan class="quote">”</tspan></text></g></g></g><g transform="matrix(1,0,0,1,176.9844,222.5625)" class="match"><path d="M42.640625,21.757800000000003H67.6406M150.499975,21.7578125H175.5"></path><g class="match-fragment literal" transform="matrix(1,0,0,1,0,10.0078)"><g class="label"><rect width="42.640625" height="23.5" rx="3" ry="3"></rect><text x="0" y="0" transform="matrix(1,0,0,1,5,16.75)"><tspan class="quote">“</tspan><tspan>sess</tspan><tspan class="quote">”</tspan></text></g></g><g class="match-fragment" transform="matrix(1,0,0,1,52.6406,0)"><path d="M0,21.7578125q10,0 10,-10v-1.7578125q0,-10 10,-10h72.859375q10,0 10,10v1.7578125q0,10 10,10M15,21.7578125q-10,0 -10,10v1.7578125q0,10 10,10h82.859375q10,0 10,-10v-1.7578125q0,-10 -10,-10M107.859375,36.7578125l5,-5m-5,5l-5,-5"></path><g class="any-character" transform="matrix(1,0,0,1,15,10)"><g class="label"><rect width="82.859375" height="23.515625"></rect><text x="0" y="0" transform="matrix(1,0,0,1,5,16.7578)"><tspan>any character</tspan></text></g></g></g><g class="match-fragment literal" transform="matrix(1,0,0,1,175.5,10.0078)"><g class="label"><rect width="59.328125" height="23.5" rx="3" ry="3"></rect><text x="0" y="0" transform="matrix(1,0,0,1,5,16.75)"><tspan class="quote">“</tspan><tspan> fixation</tspan><tspan class="quote">”</tspan></text></g></g></g><g transform="matrix(1,0,0,1,0,271.0781)" class="match"><path d="M227.2812957763672,105.3985H262.2813M345.140675,105.3985125H380.1407"></path><g class="match-fragment subexp" transform="matrix(1,0,0,1,0,9.3047)"><rect rx="3" ry="3" class="subexp-box" transform="matrix(1,0,0,1,0,11.0938)" width="237.2812957763672" height="170"></rect><text x="0" y="0" transform="matrix(1,0,0,1,0,11.0938)" class="subexp-label"><tspan>group #1</tspan></text><g transform="matrix(1,0,0,1,10,21.0938)" class="regexp"><path d="M10,21.75q0,-10 10,-10M207.2812957763672,21.75q0,-10 -10,-10M10,50.25q0,-10 10,-10M207.2812957763672,50.25q0,-10 -10,-10M10,89.8438q0,10 10,10M207.2812957763672,89.8438q0,10 -10,10M10,128.25q0,10 10,10M207.2812957763672,128.25q0,10 -10,10M0,75q10,0 10,-10V21.75M217.2812957763672,75q-10,0 -10,-10V21.75M0,75q10,0 10,10V128.25M217.2812957763672,75q-10,0 -10,10V128.25"></path><g transform="matrix(1,0,0,1,20,0)" class="regexp-matches"><path d="M0,11.75h67.9844M109.2969,11.75H177.2812957763672M0,40.25h66.9766M110.304725,40.25H177.2812957763672M0,99.8438h0M177.2813,99.8438H177.2812957763672M0,138.25h58.6406M118.6406,138.25H177.2812957763672"></path><g class="match match-fragment literal" transform="matrix(1,0,0,1,67.9844,0)"><g class="label"><rect width="41.3125" height="23.5" rx="3" ry="3"></rect><text x="0" y="0" transform="matrix(1,0,0,1,5,16.75)"><tspan class="quote">“</tspan><tspan>cred</tspan><tspan class="quote">”</tspan></text></g></g><g class="match match-fragment literal" transform="matrix(1,0,0,1,66.9766,28.5)"><g class="label"><rect width="43.328125" height="23.5" rx="3" ry="3"></rect><text x="0" y="0" transform="matrix(1,0,0,1,5,16.75)"><tspan class="quote">“</tspan><tspan>pass</tspan><tspan class="quote">”</tspan></text></g></g><g class="match" transform="matrix(1,0,0,1,0,57)"><path d="M58.65625,42.8438H93.6563M114.9688,42.8438H149.9688"></path><g class="match-fragment literal" transform="matrix(1,0,0,1,0,31.0938)"><g class="label"><rect width="58.65625" height="23.5" rx="3" ry="3"></rect><text x="0" y="0" transform="matrix(1,0,0,1,5,16.75)"><tspan class="quote">“</tspan><tspan>session</tspan><tspan class="quote">”</tspan></text></g></g><g class="match-fragment" transform="matrix(1,0,0,1,68.6563,0)"><path d="M0,42.8438q10,0 10,-10v-22.75000040893555q0,-10 10,-10h31.3125q10,0 10,10v22.75000040893555q0,10 10,10"></path><g transform="matrix(1,0,0,1,15,10)" class="subexp"><rect rx="3" ry="3" class="subexp-box" transform="matrix(1,0,0,1,0,11.0938)" width="41.3125" height="43.5"></rect><text x="0" y="0" transform="matrix(1,0,0,1,0,11.0938)" class="subexp-label"><tspan>group #2</tspan></text><g transform="matrix(1,0,0,1,10,21.0938)" class="regexp match match-fragment literal"><g class="label"><rect width="21.3125" height="23.5" rx="3" ry="3"></rect><text x="0" y="0" transform="matrix(1,0,0,1,5,16.75)"><tspan class="quote">“</tspan><tspan> </tspan><tspan class="quote">”</tspan></text></g></g></g></g><g class="match-fragment literal" transform="matrix(1,0,0,1,149.9688,31.0938)"><g class="label"><rect width="27.3125" height="23.5" rx="3" ry="3"></rect><text x="0" y="0" transform="matrix(1,0,0,1,5,16.75)"><tspan class="quote">“</tspan><tspan>id</tspan><tspan class="quote">”</tspan></text></g></g></g><g class="match match-fragment literal" transform="matrix(1,0,0,1,58.6406,126.5)"><g class="label"><rect width="60" height="23.5" rx="3" ry="3"></rect><text x="0" y="0" transform="matrix(1,0,0,1,5,16.75)"><tspan class="quote">“</tspan><tspan>connect</tspan><tspan class="quote">”</tspan></text></g></g></g></g></g><g class="match-fragment" transform="matrix(1,0,0,1,247.2813,83.6407)"><path d="M0,21.7578125q10,0 10,-10v-1.7578125q0,-10 10,-10h72.859375q10,0 10,10v1.7578125q0,10 10,10M15,21.7578125q-10,0 -10,10v1.7578125q0,10 10,10h82.859375q10,0 10,-10v-1.7578125q0,-10 -10,-10M107.859375,36.7578125l5,-5m-5,5l-5,-5"></path><g class="any-character" transform="matrix(1,0,0,1,15,10)"><g class="label"><rect width="82.859375" height="23.515625"></rect><text x="0" y="0" transform="matrix(1,0,0,1,5,16.7578)"><tspan>any character</tspan></text></g></g></g><g class="match-fragment subexp" transform="matrix(1,0,0,1,370.1407,0)"><rect rx="3" ry="3" class="subexp-box" transform="matrix(1,0,0,1,0,11.0938)" width="218.65621948242188" height="188.60939025878906"></rect><text x="0" y="0" transform="matrix(1,0,0,1,0,11.0938)" class="subexp-label"><tspan>group #3</tspan></text><g transform="matrix(1,0,0,1,10,21.0938)" class="regexp"><path d="M10,21.75q0,-10 10,-10M188.65621948242188,21.75q0,-10 -10,-10M10,94.10159999999999q0,10 10,10M188.65621948242188,94.10159999999999q0,10 -10,10M0,84.30469512939453q10,0 10,-10V21.75M198.65621948242188,84.30469512939453q-10,0 -10,-10V21.75M0,84.30469512939453q10,0 10,10V94.10159999999999M198.65621948242188,84.30469512939453q-10,0 -10,10V94.10159999999999"></path><g transform="matrix(1,0,0,1,20,0)" class="regexp-matches"><path d="M0,11.75h47.9922M110.664075,11.75H158.65621948242188M0,104.10159999999999h0M148.656225,104.10159999999999H158.65621948242188"></path><g transform="matrix(1,0,0,1,47.9922,0)" class="match match-fragment literal"><g class="label"><rect width="62.671875" height="23.5" rx="3" ry="3"></rect><text x="0" y="0" transform="matrix(1,0,0,1,5,16.75)"><tspan class="quote">“</tspan><tspan>plaintext</tspan><tspan class="quote">”</tspan></text></g></g><g transform="matrix(1,0,0,1,0,28.5)" class="match"><path d="M31.328125,75.60159999999999H51.3281"></path><g class="match-fragment literal" transform="matrix(1,0,0,1,0,63.8516)"><g class="label"><rect width="31.328125" height="23.5" rx="3" ry="3"></rect><text x="0" y="0" transform="matrix(1,0,0,1,5,16.75)"><tspan class="quote">“</tspan><tspan>un</tspan><tspan class="quote">”</tspan></text></g></g><g class="match-fragment subexp" transform="matrix(1,0,0,1,41.3281,0)"><rect rx="3" ry="3" class="subexp-box" transform="matrix(1,0,0,1,0,11.0938)" width="117.328125" height="129.0156021118164"></rect><text x="0" y="0" transform="matrix(1,0,0,1,0,11.0938)" class="subexp-label"><tspan>group #4</tspan></text><g transform="matrix(1,0,0,1,10,21.0938)" class="regexp"><path d="M10,21.75q0,-10 10,-10M87.328125,21.75q0,-10 -10,-10M0,54.5078010559082c10,0 10,-14.257801055908203 20,-14.257801055908203M97.328125,54.5078010559082c-10,0 -10,-14.257801055908203 -20,-14.257801055908203M0,54.5078010559082c10,0 10,14.250011444091797 20,14.250011444091797M97.328125,54.5078010559082c-10,0 -10,14.250011444091797 -20,14.250011444091797M10,87.2656q0,10 10,10M87.328125,87.2656q0,10 -10,10M0,54.5078010559082q10,0 10,-10V21.75M97.328125,54.5078010559082q-10,0 -10,-10V21.75M0,54.5078010559082q10,0 10,10V87.2656M97.328125,54.5078010559082q-10,0 -10,10V87.2656"></path><g transform="matrix(1,0,0,1,20,0)" class="regexp-matches"><path d="M0,11.75h6.6641M50.6641,11.75H57.328125M0,40.25h10.3438M46.984425,40.25H57.328125M0,68.7578125h0M57.328125,68.7578125H57.328125M0,97.2656h8.3359M48.99215,97.2656H57.328125"></path><g class="match match-fragment literal" transform="matrix(1,0,0,1,6.6641,0)"><g class="label"><rect width="44" height="23.5" rx="3" ry="3"></rect><text x="0" y="0" transform="matrix(1,0,0,1,5,16.75)"><tspan class="quote">“</tspan><tspan>hash</tspan><tspan class="quote">”</tspan></text></g></g><g class="match match-fragment literal" transform="matrix(1,0,0,1,10.3438,28.5)"><g class="label"><rect width="36.640625" height="23.5" rx="3" ry="3"></rect><text x="0" y="0" transform="matrix(1,0,0,1,5,16.75)"><tspan class="quote">“</tspan><tspan>salt</tspan><tspan class="quote">”</tspan></text></g></g><g class="match match-fragment literal" transform="matrix(1,0,0,1,0,57)"><g class="label"><rect width="57.328125" height="23.515625" rx="3" ry="3"></rect><text x="0" y="0" transform="matrix(1,0,0,1,5,16.7578)"><tspan class="quote">“</tspan><tspan>encrypt</tspan><tspan class="quote">”</tspan></text></g></g><g class="match match-fragment literal" transform="matrix(1,0,0,1,8.3359,85.5156)"><g class="label"><rect width="40.65625" height="23.5" rx="3" ry="3"></rect><text x="0" y="0" transform="matrix(1,0,0,1,5,16.75)"><tspan class="quote">“</tspan><tspan>safe</tspan><tspan class="quote">”</tspan></text></g></g></g></g></g></g></g></g></g></g><g transform="matrix(1,0,0,1,0,475.6875)" class="match"><path d="M208.65621948242188,105.39849512939453H243.6562M326.515575,105.3985125H361.5156"></path><g class="match-fragment subexp" transform="matrix(1,0,0,1,0,0)"><rect rx="3" ry="3" class="subexp-box" transform="matrix(1,0,0,1,0,11.0938)" width="218.65621948242188" height="188.60939025878906"></rect><text x="0" y="0" transform="matrix(1,0,0,1,0,11.0938)" class="subexp-label"><tspan>group #5</tspan></text><g transform="matrix(1,0,0,1,10,21.0938)" class="regexp"><path d="M10,21.75q0,-10 10,-10M188.65621948242188,21.75q0,-10 -10,-10M10,94.10159999999999q0,10 10,10M188.65621948242188,94.10159999999999q0,10 -10,10M0,84.30469512939453q10,0 10,-10V21.75M198.65621948242188,84.30469512939453q-10,0 -10,-10V21.75M0,84.30469512939453q10,0 10,10V94.10159999999999M198.65621948242188,84.30469512939453q-10,0 -10,10V94.10159999999999"></path><g transform="matrix(1,0,0,1,20,0)" class="regexp-matches"><path d="M0,11.75h47.9922M110.664075,11.75H158.65621948242188M0,104.10159999999999h0M148.656225,104.10159999999999H158.65621948242188"></path><g transform="matrix(1,0,0,1,47.9922,0)" class="match match-fragment literal"><g class="label"><rect width="62.671875" height="23.5" rx="3" ry="3"></rect><text x="0" y="0" transform="matrix(1,0,0,1,5,16.75)"><tspan class="quote">“</tspan><tspan>plaintext</tspan><tspan class="quote">”</tspan></text></g></g><g transform="matrix(1,0,0,1,0,28.5)" class="match"><path d="M31.328125,75.60159999999999H51.3281"></path><g class="match-fragment literal" transform="matrix(1,0,0,1,0,63.8516)"><g class="label"><rect width="31.328125" height="23.5" rx="3" ry="3"></rect><text x="0" y="0" transform="matrix(1,0,0,1,5,16.75)"><tspan class="quote">“</tspan><tspan>un</tspan><tspan class="quote">”</tspan></text></g></g><g class="match-fragment subexp" transform="matrix(1,0,0,1,41.3281,0)"><rect rx="3" ry="3" class="subexp-box" transform="matrix(1,0,0,1,0,11.0938)" width="117.328125" height="129.0156021118164"></rect><text x="0" y="0" transform="matrix(1,0,0,1,0,11.0938)" class="subexp-label"><tspan>group #6</tspan></text><g transform="matrix(1,0,0,1,10,21.0938)" class="regexp"><path d="M10,21.75q0,-10 10,-10M87.328125,21.75q0,-10 -10,-10M0,54.5078010559082c10,0 10,-14.257801055908203 20,-14.257801055908203M97.328125,54.5078010559082c-10,0 -10,-14.257801055908203 -20,-14.257801055908203M0,54.5078010559082c10,0 10,14.250011444091797 20,14.250011444091797M97.328125,54.5078010559082c-10,0 -10,14.250011444091797 -20,14.250011444091797M10,87.2656q0,10 10,10M87.328125,87.2656q0,10 -10,10M0,54.5078010559082q10,0 10,-10V21.75M97.328125,54.5078010559082q-10,0 -10,-10V21.75M0,54.5078010559082q10,0 10,10V87.2656M97.328125,54.5078010559082q-10,0 -10,10V87.2656"></path><g transform="matrix(1,0,0,1,20,0)" class="regexp-matches"><path d="M0,11.75h6.6641M50.6641,11.75H57.328125M0,40.25h10.3438M46.984425,40.25H57.328125M0,68.7578125h0M57.328125,68.7578125H57.328125M0,97.2656h8.3359M48.99215,97.2656H57.328125"></path><g class="match match-fragment literal" transform="matrix(1,0,0,1,6.6641,0)"><g class="label"><rect width="44" height="23.5" rx="3" ry="3"></rect><text x="0" y="0" transform="matrix(1,0,0,1,5,16.75)"><tspan class="quote">“</tspan><tspan>hash</tspan><tspan class="quote">”</tspan></text></g></g><g class="match match-fragment literal" transform="matrix(1,0,0,1,10.3438,28.5)"><g class="label"><rect width="36.640625" height="23.5" rx="3" ry="3"></rect><text x="0" y="0" transform="matrix(1,0,0,1,5,16.75)"><tspan class="quote">“</tspan><tspan>salt</tspan><tspan class="quote">”</tspan></text></g></g><g class="match match-fragment literal" transform="matrix(1,0,0,1,0,57)"><g class="label"><rect width="57.328125" height="23.515625" rx="3" ry="3"></rect><text x="0" y="0" transform="matrix(1,0,0,1,5,16.7578)"><tspan class="quote">“</tspan><tspan>encrypt</tspan><tspan class="quote">”</tspan></text></g></g><g class="match match-fragment literal" transform="matrix(1,0,0,1,8.3359,85.5156)"><g class="label"><rect width="40.65625" height="23.5" rx="3" ry="3"></rect><text x="0" y="0" transform="matrix(1,0,0,1,5,16.75)"><tspan class="quote">“</tspan><tspan>safe</tspan><tspan class="quote">”</tspan></text></g></g></g></g></g></g></g></g></g><g class="match-fragment" transform="matrix(1,0,0,1,228.6562,83.6407)"><path d="M0,21.7578125q10,0 10,-10v-1.7578125q0,-10 10,-10h72.859375q10,0 10,10v1.7578125q0,10 10,10M15,21.7578125q-10,0 -10,10v1.7578125q0,10 10,10h82.859375q10,0 10,-10v-1.7578125q0,-10 -10,-10M107.859375,36.7578125l5,-5m-5,5l-5,-5"></path><g class="any-character" transform="matrix(1,0,0,1,15,10)"><g class="label"><rect width="82.859375" height="23.515625"></rect><text x="0" y="0" transform="matrix(1,0,0,1,5,16.7578)"><tspan>any character</tspan></text></g></g></g><g class="match-fragment subexp" transform="matrix(1,0,0,1,351.5156,9.3047)"><rect rx="3" ry="3" class="subexp-box" transform="matrix(1,0,0,1,0,11.0938)" width="237.2812957763672" height="170"></rect><text x="0" y="0" transform="matrix(1,0,0,1,0,11.0938)" class="subexp-label"><tspan>group #7</tspan></text><g transform="matrix(1,0,0,1,10,21.0938)" class="regexp"><path d="M10,21.75q0,-10 10,-10M207.2812957763672,21.75q0,-10 -10,-10M10,50.25q0,-10 10,-10M207.2812957763672,50.25q0,-10 -10,-10M10,89.8438q0,10 10,10M207.2812957763672,89.8438q0,10 -10,10M10,128.25q0,10 10,10M207.2812957763672,128.25q0,10 -10,10M0,75q10,0 10,-10V21.75M217.2812957763672,75q-10,0 -10,-10V21.75M0,75q10,0 10,10V128.25M217.2812957763672,75q-10,0 -10,10V128.25"></path><g transform="matrix(1,0,0,1,20,0)" class="regexp-matches"><path d="M0,11.75h67.9844M109.2969,11.75H177.2812957763672M0,40.25h66.9766M110.304725,40.25H177.2812957763672M0,99.8438h0M177.2813,99.8438H177.2812957763672M0,138.25h58.6406M118.6406,138.25H177.2812957763672"></path><g class="match match-fragment literal" transform="matrix(1,0,0,1,67.9844,0)"><g class="label"><rect width="41.3125" height="23.5" rx="3" ry="3"></rect><text x="0" y="0" transform="matrix(1,0,0,1,5,16.75)"><tspan class="quote">“</tspan><tspan>cred</tspan><tspan class="quote">”</tspan></text></g></g><g class="match match-fragment literal" transform="matrix(1,0,0,1,66.9766,28.5)"><g class="label"><rect width="43.328125" height="23.5" rx="3" ry="3"></rect><text x="0" y="0" transform="matrix(1,0,0,1,5,16.75)"><tspan class="quote">“</tspan><tspan>pass</tspan><tspan class="quote">”</tspan></text></g></g><g class="match" transform="matrix(1,0,0,1,0,57)"><path d="M58.65625,42.8438H93.6563M114.9688,42.8438H149.9688"></path><g class="match-fragment literal" transform="matrix(1,0,0,1,0,31.0938)"><g class="label"><rect width="58.65625" height="23.5" rx="3" ry="3"></rect><text x="0" y="0" transform="matrix(1,0,0,1,5,16.75)"><tspan class="quote">“</tspan><tspan>session</tspan><tspan class="quote">”</tspan></text></g></g><g class="match-fragment" transform="matrix(1,0,0,1,68.6563,0)"><path d="M0,42.8438q10,0 10,-10v-22.75000040893555q0,-10 10,-10h31.3125q10,0 10,10v22.75000040893555q0,10 10,10"></path><g transform="matrix(1,0,0,1,15,10)" class="subexp"><rect rx="3" ry="3" class="subexp-box" transform="matrix(1,0,0,1,0,11.0938)" width="41.3125" height="43.5"></rect><text x="0" y="0" transform="matrix(1,0,0,1,0,11.0938)" class="subexp-label"><tspan>group #8</tspan></text><g transform="matrix(1,0,0,1,10,21.0938)" class="regexp match match-fragment literal"><g class="label"><rect width="21.3125" height="23.5" rx="3" ry="3"></rect><text x="0" y="0" transform="matrix(1,0,0,1,5,16.75)"><tspan class="quote">“</tspan><tspan> </tspan><tspan class="quote">”</tspan></text></g></g></g></g><g class="match-fragment literal" transform="matrix(1,0,0,1,149.9688,31.0938)"><g class="label"><rect width="27.3125" height="23.5" rx="3" ry="3"></rect><text x="0" y="0" transform="matrix(1,0,0,1,5,16.75)"><tspan class="quote">“</tspan><tspan>id</tspan><tspan class="quote">”</tspan></text></g></g></g><g class="match match-fragment literal" transform="matrix(1,0,0,1,58.6406,126.5)"><g class="label"><rect width="60" height="23.5" rx="3" ry="3"></rect><text x="0" y="0" transform="matrix(1,0,0,1,5,16.75)"><tspan class="quote">“</tspan><tspan>connect</tspan><tspan class="quote">”</tspan></text></g></g></g></g></g></g><g transform="matrix(1,0,0,1,59.2188,680.2969)" class="match"><path d="M104,61.3438H139M221.859375,61.3438125H246.8594M293.51565,61.3438H318.5156M401.374975,61.3438125H426.375"></path><g class="match-fragment subexp" transform="matrix(1,0,0,1,0,0)"><rect rx="3" ry="3" class="subexp-box" transform="matrix(1,0,0,1,0,11.0938)" width="114" height="100.5"></rect><text x="0" y="0" transform="matrix(1,0,0,1,0,11.0938)" class="subexp-label"><tspan>group #9</tspan></text><g transform="matrix(1,0,0,1,10,21.0938)" class="regexp"><path d="M10,21.75q0,-10 10,-10M84,21.75q0,-10 -10,-10M0,40.25c10,0 10,0 20,0M94,40.25c-10,0 -10,0 -20,0M10,58.75q0,10 10,10M84,58.75q0,10 -10,10M0,40.25q10,0 10,-10V21.75M94,40.25q-10,0 -10,-10V21.75M0,40.25q10,0 10,10V58.75M94,40.25q-10,0 -10,10V58.75"></path><g transform="matrix(1,0,0,1,20,0)" class="regexp-matches"><path d="M0,11.75h4.0078M49.992175,11.75H54M0,40.25h8M46,40.25H54M0,68.75h0M54,68.75H54"></path><g class="match match-fragment literal" transform="matrix(1,0,0,1,4.0078,0)"><g class="label"><rect width="45.984375" height="23.5" rx="3" ry="3"></rect><text x="0" y="0" transform="matrix(1,0,0,1,5,16.75)"><tspan class="quote">“</tspan><tspan>weak</tspan><tspan class="quote">”</tspan></text></g></g><g class="match match-fragment literal" transform="matrix(1,0,0,1,8,28.5)"><g class="label"><rect width="38" height="23.5" rx="3" ry="3"></rect><text x="0" y="0" transform="matrix(1,0,0,1,5,16.75)"><tspan class="quote">“</tspan><tspan>bad</tspan><tspan class="quote">”</tspan></text></g></g><g class="match match-fragment literal" transform="matrix(1,0,0,1,0,57)"><g class="label"><rect width="54" height="23.5" rx="3" ry="3"></rect><text x="0" y="0" transform="matrix(1,0,0,1,5,16.75)"><tspan class="quote">“</tspan><tspan>unsafe</tspan><tspan class="quote">”</tspan></text></g></g></g></g></g><g class="match-fragment" transform="matrix(1,0,0,1,124,39.586)"><path d="M0,21.7578125q10,0 10,-10v-1.7578125q0,-10 10,-10h72.859375q10,0 10,10v1.7578125q0,10 10,10M15,21.7578125q-10,0 -10,10v1.7578125q0,10 10,10h82.859375q10,0 10,-10v-1.7578125q0,-10 -10,-10M107.859375,36.7578125l5,-5m-5,5l-5,-5"></path><g class="any-character" transform="matrix(1,0,0,1,15,10)"><g class="label"><rect width="82.859375" height="23.515625"></rect><text x="0" y="0" transform="matrix(1,0,0,1,5,16.7578)"><tspan>any character</tspan></text></g></g></g><g class="match-fragment literal" transform="matrix(1,0,0,1,246.8594,49.5938)"><g class="label"><rect width="46.65625" height="23.5" rx="3" ry="3"></rect><text x="0" y="0" transform="matrix(1,0,0,1,5,16.75)"><tspan class="quote">“</tspan><tspan> pass</tspan><tspan class="quote">”</tspan></text></g></g><g class="match-fragment" transform="matrix(1,0,0,1,303.5156,39.586)"><path d="M0,21.7578125q10,0 10,-10v-1.7578125q0,-10 10,-10h72.859375q10,0 10,10v1.7578125q0,10 10,10M15,21.7578125q-10,0 -10,10v1.7578125q0,10 10,10h82.859375q10,0 10,-10v-1.7578125q0,-10 -10,-10M107.859375,36.7578125l5,-5m-5,5l-5,-5"></path><g class="any-character" transform="matrix(1,0,0,1,15,10)"><g class="label"><rect width="82.859375" height="23.515625"></rect><text x="0" y="0" transform="matrix(1,0,0,1,5,16.7578)"><tspan>any character</tspan></text></g></g></g><g class="match-fragment literal" transform="matrix(1,0,0,1,426.375,49.5938)"><g class="label"><rect width="43.984375" height="23.5" rx="3" ry="3"></rect><text x="0" y="0" transform="matrix(1,0,0,1,5,16.75)"><tspan class="quote">“</tspan><tspan> verif</tspan><tspan class="quote">”</tspan></text></g></g></g><g transform="matrix(1,0,0,1,127.336,796.7969)" class="match"><path d="M29.96875,47.1094H54.9688M137.828175,47.109412500000005H162.8281M184.1406,47.1094H204.1406"></path><g class="match-fragment literal" transform="matrix(1,0,0,1,0,35.3594)"><g class="label"><rect width="29.96875" height="23.5" rx="3" ry="3"></rect><text x="0" y="0" transform="matrix(1,0,0,1,5,16.75)"><tspan class="quote">“</tspan><tspan>fix</tspan><tspan class="quote">”</tspan></text></g></g><g class="match-fragment" transform="matrix(1,0,0,1,39.9688,25.3516)"><path d="M0,21.7578125q10,0 10,-10v-1.7578125q0,-10 10,-10h72.859375q10,0 10,10v1.7578125q0,10 10,10M15,21.7578125q-10,0 -10,10v1.7578125q0,10 10,10h82.859375q10,0 10,-10v-1.7578125q0,-10 -10,-10M107.859375,36.7578125l5,-5m-5,5l-5,-5"></path><g class="any-character" transform="matrix(1,0,0,1,15,10)"><g class="label"><rect width="82.859375" height="23.515625"></rect><text x="0" y="0" transform="matrix(1,0,0,1,5,16.7578)"><tspan>any character</tspan></text></g></g></g><g class="match-fragment literal" transform="matrix(1,0,0,1,162.8281,35.3594)"><g class="label"><rect width="21.3125" height="23.5" rx="3" ry="3"></rect><text x="0" y="0" transform="matrix(1,0,0,1,5,16.75)"><tspan class="quote">“</tspan><tspan> </tspan><tspan class="quote">”</tspan></text></g></g><g class="match-fragment subexp" transform="matrix(1,0,0,1,194.1406,0)"><rect rx="3" ry="3" class="subexp-box" transform="matrix(1,0,0,1,0,11.0938)" width="139.984375" height="72.0312271118164"></rect><text x="0" y="0" transform="matrix(1,0,0,1,0,11.0938)" class="subexp-label"><tspan>group #10</tspan></text><g transform="matrix(1,0,0,1,10,21.0938)" class="regexp"><path d="M0,26.015613555908203c10,0 10,-14.257801055908203 20,-14.257801055908203M119.984375,26.015613555908203c-10,0 -10,-14.257801055908203 -20,-14.257801055908203M0,26.015613555908203c10,0 10,14.257798944091796 20,14.257798944091796M119.984375,26.015613555908203c-10,0 -10,14.257798944091796 -20,14.257798944091796"></path><g transform="matrix(1,0,0,1,20,0)" class="regexp-matches"><path d="M0,11.7578125h0M79.984375,11.7578125H79.984375M0,40.2734125h0M79.984375,40.2734125H79.984375"></path><g class="match match-fragment literal" transform="matrix(1,0,0,1,0,0)"><g class="label"><rect width="79.984375" height="23.515625" rx="3" ry="3"></rect><text x="0" y="0" transform="matrix(1,0,0,1,5,16.7578)"><tspan class="quote">“</tspan><tspan>url rewriting</tspan><tspan class="quote">”</tspan></text></g></g><g class="match match-fragment literal" transform="matrix(1,0,0,1,0,28.5156)"><g class="label"><rect width="79.984375" height="23.515625" rx="3" ry="3"></rect><text x="0" y="0" transform="matrix(1,0,0,1,5,16.7578)"><tspan class="quote">“</tspan><tspan>rewriting url</tspan><tspan class="quote">”</tspan></text></g></g></g></g></g></g><g transform="matrix(1,0,0,1,56.8828,884.8281)" class="match"><path d="M57.328125,57.10159999999999H82.3281M165.187475,57.1016125H200.1875"></path><g class="match-fragment literal" transform="matrix(1,0,0,1,0,45.3516)"><g class="label"><rect width="57.328125" height="23.5" rx="3" ry="3"></rect><text x="0" y="0" transform="matrix(1,0,0,1,5,16.75)"><tspan class="quote">“</tspan><tspan>timeout</tspan><tspan class="quote">”</tspan></text></g></g><g class="match-fragment" transform="matrix(1,0,0,1,67.3281,35.3438)"><path d="M0,21.7578125q10,0 10,-10v-1.7578125q0,-10 10,-10h72.859375q10,0 10,10v1.7578125q0,10 10,10M15,21.7578125q-10,0 -10,10v1.7578125q0,10 10,10h82.859375q10,0 10,-10v-1.7578125q0,-10 -10,-10M107.859375,36.7578125l5,-5m-5,5l-5,-5"></path><g class="any-character" transform="matrix(1,0,0,1,15,10)"><g class="label"><rect width="82.859375" height="23.515625"></rect><text x="0" y="0" transform="matrix(1,0,0,1,5,16.7578)"><tspan>any character</tspan></text></g></g></g><g class="match-fragment subexp" transform="matrix(1,0,0,1,190.1875,0)"><rect rx="3" ry="3" class="subexp-box" transform="matrix(1,0,0,1,0,11.0938)" width="284.84375" height="92.015625"></rect><text x="0" y="0" transform="matrix(1,0,0,1,0,11.0938)" class="subexp-label"><tspan>group #11</tspan></text><g transform="matrix(1,0,0,1,10,21.0938)" class="regexp"><path d="M10,21.75q0,-10 10,-10M254.84375,21.75q0,-10 -10,-10M0,36.0078125c10,0 10,14.249987500000003 20,14.249987500000003M264.84375,36.0078125c-10,0 -10,14.249987500000003 -20,14.249987500000003M0,36.0078125q10,0 10,-10V21.75M264.84375,36.0078125q-10,0 -10,-10V21.75"></path><g transform="matrix(1,0,0,1,20,0)" class="regexp-matches"><path d="M0,11.75h83.0938M141.75005,11.75H224.84375M0,50.2578h0M224.84375,50.2578H224.84375"></path><g transform="matrix(1,0,0,1,83.0938,0)" class="match match-fragment literal"><g class="label"><rect width="58.65625" height="23.5" rx="3" ry="3"></rect><text x="0" y="0" transform="matrix(1,0,0,1,5,16.75)"><tspan class="quote">“</tspan><tspan>session</tspan><tspan class="quote">”</tspan></text></g></g><g transform="matrix(1,0,0,1,0,28.5)" class="match"><path d="M41.328125,21.757800000000003H66.3281M149.187475,21.7578125H174.1875"></path><g class="match-fragment literal" transform="matrix(1,0,0,1,0,10.0078)"><g class="label"><rect width="41.328125" height="23.5" rx="3" ry="3"></rect><text x="0" y="0" transform="matrix(1,0,0,1,5,16.75)"><tspan class="quote">“</tspan><tspan>auth</tspan><tspan class="quote">”</tspan></text></g></g><g class="match-fragment" transform="matrix(1,0,0,1,51.3281,0)"><path d="M0,21.7578125q10,0 10,-10v-1.7578125q0,-10 10,-10h72.859375q10,0 10,10v1.7578125q0,10 10,10M15,21.7578125q-10,0 -10,10v1.7578125q0,10 10,10h82.859375q10,0 10,-10v-1.7578125q0,-10 -10,-10M107.859375,36.7578125l5,-5m-5,5l-5,-5"></path><g transform="matrix(1,0,0,1,15,10)" class="any-character"><g class="label"><rect width="82.859375" height="23.515625"></rect><text x="0" y="0" transform="matrix(1,0,0,1,5,16.7578)"><tspan>any character</tspan></text></g></g></g><g class="match-fragment literal" transform="matrix(1,0,0,1,174.1875,10.0078)"><g class="label"><rect width="50.65625" height="23.5" rx="3" ry="3"></rect><text x="0" y="0" transform="matrix(1,0,0,1,5,16.75)"><tspan class="quote">“</tspan><tspan> token</tspan><tspan class="quote">”</tspan></text></g></g></g></g></g></g></g></g></g><path d="M10,493.9687805175781H0M638.796875,493.9687805175781H648.796875"></path><circle cx="0" cy="493.9687805175781" r="5"></circle><circle cx="648.796875" cy="493.9687805175781" r="5"></circle></g></svg>
          