
            <svg xmlns="http://www.w3.org/2000/svg" xmlns:cc="http://creativecommons.org/ns#" xmlns:rdf="http://www.w3.org/1999/02/22-rdf-syntax-ns#" version="1.1" width="969.8438720703125" height="597.3279418945312">
              <defs>
                <style type="text/css">svg{background-color:#fff}text,tspan{font:12px Arial}path{fill-opacity:0;stroke-width:2px;stroke:#000}circle{fill:#6b6659;stroke-width:2px;stroke:#000}.anchor text,.any-character text{fill:#fff}.anchor rect,.any-character rect{fill:#6b6659}.escape text,.charset-escape text,.literal text{fill:#000}.escape rect,.charset-escape rect{fill:#bada55}.literal rect{fill:#dae9e5}.charset .charset-box{fill:#cbcbba}.subexp .subexp-label tspan,.charset .charset-label tspan,.match-fragment .repeat-label tspan{font-size:10px}.repeat-label{cursor:help}.subexp .subexp-label tspan,.charset .charset-label tspan{dominant-baseline:text-after-edge}.subexp .subexp-box{stroke:#908c83;stroke-dasharray:6,2;stroke-width:2px;fill-opacity:0}.quote{fill:#908c83}
          </style>
              </defs>
              <metadata>
                <rdf:rdf>
                  <cc:license rdf:about="http://creativecommons.org/licenses/by/3.0/">
                    <cc:permits rdf:resource="http://creativecommons.org/ns#Reproduction"></cc:permits>
                    <cc:permits rdf:resource="http://creativecommons.org/ns#Distribution"></cc:permits>
                    <cc:requires rdf:resource="http://creativecommons.org/ns#Notice"></cc:requires>
                    <cc:requires rdf:resource="http://creativecommons.org/ns#Attribution"></cc:requires>
                    <cc:permits rdf:resource="http://creativecommons.org/ns#DerivativeWorks"></cc:permits>
                  </cc:license>
                </rdf:rdf>
              </metadata>
            <desc>Created with Snap</desc><g transform="matrix(1,0,0,1,15,9.9062)" class="root"><g transform="matrix(1,0,0,1,10,0)" class="regexp"><path d="M10,122.4063q0,-10 10,-10M909.8438720703125,122.4063q0,-10 -10,-10M10,320.8437114440918q0,10 10,10M909.8438720703125,320.8437114440918q0,10 -10,10M10,448.6326q0,10 10,10M909.8438720703125,448.6326q0,10 -10,10M10,497.14829999999995q0,10 10,10M909.8438720703125,497.14829999999995q0,10 -10,10M10,545.6639q0,10 10,10M909.8438720703125,545.6639q0,10 -10,10M0,288.7577705383301q10,0 10,-10V122.4063M919.8438720703125,288.7577705383301q-10,0 -10,-10V122.4063M0,288.7577705383301q10,0 10,10V545.6639M919.8438720703125,288.7577705383301q-10,0 -10,10V545.6639"></path><g transform="matrix(1,0,0,1,20,0)" class="regexp-matches"><path d="M0,112.4063h10M869.8438360351563,112.4063H879.8438720703125M0,330.8437114440918h10M869.8438,330.8437114440918H879.8438720703125M0,458.6326h169.9844M694.859375,458.6326H879.8438720703125M0,507.14829999999995h346.1641M518.6797750000001,507.14829999999995H879.8438720703125M0,555.6639h228.0704M651.7735250000001,555.6639H879.8438720703125"></path><g transform="matrix(1,0,0,1,0,0)" class="match"><path d="M108,112.4063H143M225.859375,112.4063125H250.8594M272.1719,112.4063H292.1719"></path><g class="match-fragment subexp" transform="matrix(1,0,0,1,0,22.5625)"><rect rx="3" ry="3" class="subexp-box" transform="matrix(1,0,0,1,0,11.0938)" width="118" height="157.5"></rect><text x="0" y="0" transform="matrix(1,0,0,1,0,11.0938)" class="subexp-label"><tspan>group #1</tspan></text><g transform="matrix(1,0,0,1,10,21.0938)" class="regexp"><path d="M10,21.75q0,-10 10,-10M88,21.75q0,-10 -10,-10M10,50.25q0,-10 10,-10M88,50.25q0,-10 -10,-10M0,68.75c10,0 10,0 20,0M98,68.75c-10,0 -10,0 -20,0M10,87.25q0,10 10,10M88,87.25q0,10 -10,10M10,115.75q0,10 10,10M88,115.75q0,10 -10,10M0,68.75q10,0 10,-10V21.75M98,68.75q-10,0 -10,-10V21.75M0,68.75q10,0 10,10V115.75M98,68.75q-10,0 -10,10V115.75"></path><g transform="matrix(1,0,0,1,20,0)" class="regexp-matches"><path d="M0,11.75h14.0156M43.98435,11.75H58M0,40.25h0M58,40.25H58M0,68.75h1.6719M56.32815,68.75H58M0,97.25h5.3359M52.664025,97.25H58M0,125.75h5M53,125.75H58"></path><g class="match match-fragment literal" transform="matrix(1,0,0,1,14.0156,0)"><g class="label"><rect width="29.96875" height="23.5" rx="3" ry="3"></rect><text x="0" y="0" transform="matrix(1,0,0,1,5,16.75)"><tspan class="quote">“</tspan><tspan>fix</tspan><tspan class="quote">”</tspan></text></g></g><g class="match match-fragment literal" transform="matrix(1,0,0,1,0,28.5)"><g class="label"><rect width="58" height="23.5" rx="3" ry="3"></rect><text x="0" y="0" transform="matrix(1,0,0,1,5,16.75)"><tspan class="quote">“</tspan><tspan>prevent</tspan><tspan class="quote">”</tspan></text></g></g><g class="match match-fragment literal" transform="matrix(1,0,0,1,1.6719,57)"><g class="label"><rect width="54.65625" height="23.5" rx="3" ry="3"></rect><text x="0" y="0" transform="matrix(1,0,0,1,5,16.75)"><tspan class="quote">“</tspan><tspan>protect</tspan><tspan class="quote">”</tspan></text></g></g><g class="match match-fragment literal" transform="matrix(1,0,0,1,5.3359,85.5)"><g class="label"><rect width="47.328125" height="23.5" rx="3" ry="3"></rect><text x="0" y="0" transform="matrix(1,0,0,1,5,16.75)"><tspan class="quote">“</tspan><tspan>patch</tspan><tspan class="quote">”</tspan></text></g></g><g class="match match-fragment literal" transform="matrix(1,0,0,1,5,114)"><g class="label"><rect width="48" height="23.5" rx="3" ry="3"></rect><text x="0" y="0" transform="matrix(1,0,0,1,5,16.75)"><tspan class="quote">“</tspan><tspan>found</tspan><tspan class="quote">”</tspan></text></g></g></g></g></g><g class="match-fragment" transform="matrix(1,0,0,1,128,90.6485)"><path d="M0,21.7578125q10,0 10,-10v-1.7578125q0,-10 10,-10h72.859375q10,0 10,10v1.7578125q0,10 10,10M15,21.7578125q-10,0 -10,10v1.7578125q0,10 10,10h82.859375q10,0 10,-10v-1.7578125q0,-10 -10,-10M107.859375,36.7578125l5,-5m-5,5l-5,-5"></path><g class="any-character" transform="matrix(1,0,0,1,15,10)"><g class="label"><rect width="82.859375" height="23.515625"></rect><text x="0" y="0" transform="matrix(1,0,0,1,5,16.7578)"><tspan>any character</tspan></text></g></g></g><g class="match-fragment literal" transform="matrix(1,0,0,1,250.8594,100.6563)"><g class="label"><rect width="21.3125" height="23.5" rx="3" ry="3"></rect><text x="0" y="0" transform="matrix(1,0,0,1,5,16.75)"><tspan class="quote">“</tspan><tspan> </tspan><tspan class="quote">”</tspan></text></g></g><g class="match-fragment subexp" transform="matrix(1,0,0,1,282.1719,0)"><rect rx="3" ry="3" class="subexp-box" transform="matrix(1,0,0,1,0,11.0938)" width="597.6719360351562" height="202.4374237060547"></rect><text x="0" y="0" transform="matrix(1,0,0,1,0,11.0938)" class="subexp-label"><tspan>group #2</tspan></text><g transform="matrix(1,0,0,1,10,21.0938)" class="regexp"><path d="M0,91.3125114440918c10,0 10,-13.117111444091805 20,-13.117111444091805M577.6719360351562,91.3125114440918c-10,0 -10,-13.117111444091805 -20,-13.117111444091805M10,150.7734q0,10 10,10M567.6719360351562,150.7734q0,10 -10,10M0,91.3125114440918q10,0 10,10V150.7734M577.6719360351562,91.3125114440918q-10,0 -10,10V150.7734"></path><g transform="matrix(1,0,0,1,20,0)" class="regexp-matches"><path d="M0,78.19539999999999h10M517.671925,78.19539999999999H537.6719360351562M0,160.7734h157.4219M380.25005,160.7734H537.6719360351562"></path><g transform="matrix(1,0,0,1,0,0)" class="match match-fragment subexp"><rect rx="3" ry="3" class="subexp-box" transform="matrix(1,0,0,1,0,11.0938)" width="537.6719360351562" height="123.015625"></rect><text x="0" y="0" transform="matrix(1,0,0,1,0,11.0938)" class="subexp-label"><tspan>group #3</tspan></text><g transform="matrix(1,0,0,1,10,21.0938)" class="regexp match"><path d="M47.984375,57.10159999999999H72.9844M155.843775,57.1016125H180.8438M202.1563,57.10159999999999H222.1563"></path><g class="match-fragment literal" transform="matrix(1,0,0,1,0,45.3516)"><g class="label"><rect width="47.984375" height="23.5" rx="3" ry="3"></rect><text x="0" y="0" transform="matrix(1,0,0,1,5,16.75)"><tspan class="quote">“</tspan><tspan>impro</tspan><tspan class="quote">”</tspan></text></g></g><g class="match-fragment" transform="matrix(1,0,0,1,57.9844,35.3438)"><path d="M0,21.7578125q10,0 10,-10v-1.7578125q0,-10 10,-10h72.859375q10,0 10,10v1.7578125q0,10 10,10M15,21.7578125q-10,0 -10,10v1.7578125q0,10 10,10h82.859375q10,0 10,-10v-1.7578125q0,-10 -10,-10M107.859375,36.7578125l5,-5m-5,5l-5,-5"></path><g transform="matrix(1,0,0,1,15,10)" class="any-character"><g class="label"><rect width="82.859375" height="23.515625"></rect><text x="0" y="0" transform="matrix(1,0,0,1,5,16.7578)"><tspan>any character</tspan></text></g></g></g><g class="match-fragment literal" transform="matrix(1,0,0,1,180.8438,45.3516)"><g class="label"><rect width="21.3125" height="23.5" rx="3" ry="3"></rect><text x="0" y="0" transform="matrix(1,0,0,1,5,16.75)"><tspan class="quote">“</tspan><tspan> </tspan><tspan class="quote">”</tspan></text></g></g><g class="match-fragment subexp" transform="matrix(1,0,0,1,212.1563,0)"><rect rx="3" ry="3" class="subexp-box" transform="matrix(1,0,0,1,0,11.0938)" width="305.515625" height="92.015625"></rect><text x="0" y="0" transform="matrix(1,0,0,1,0,11.0938)" class="subexp-label"><tspan>group #4</tspan></text><g transform="matrix(1,0,0,1,10,21.0938)" class="regexp"><path d="M10,21.75q0,-10 10,-10M275.515625,21.75q0,-10 -10,-10M0,36.0078125c10,0 10,14.249987500000003 20,14.249987500000003M285.515625,36.0078125c-10,0 -10,14.249987500000003 -20,14.249987500000003M0,36.0078125q10,0 10,-10V21.75M285.515625,36.0078125q-10,0 -10,-10V21.75"></path><g transform="matrix(1,0,0,1,20,0)" class="regexp-matches"><path d="M0,11.75h102.0938M143.421925,11.75H245.515625M0,50.2578h0M245.515625,50.2578H245.515625"></path><g transform="matrix(1,0,0,1,102.0938,0)" class="match match-fragment literal"><g class="label"><rect width="41.328125" height="23.5" rx="3" ry="3"></rect><text x="0" y="0" transform="matrix(1,0,0,1,5,16.75)"><tspan class="quote">“</tspan><tspan>auth</tspan><tspan class="quote">”</tspan></text></g></g><g transform="matrix(1,0,0,1,0,28.5)" class="match"><path d="M55.328125,21.757800000000003H80.3281M163.187475,21.7578125H188.1875"></path><g class="match-fragment literal" transform="matrix(1,0,0,1,0,10.0078)"><g class="label"><rect width="55.328125" height="23.5" rx="3" ry="3"></rect><text x="0" y="0" transform="matrix(1,0,0,1,5,16.75)"><tspan class="quote">“</tspan><tspan>access</tspan><tspan class="quote">”</tspan></text></g></g><g class="match-fragment" transform="matrix(1,0,0,1,65.3281,0)"><path d="M0,21.7578125q10,0 10,-10v-1.7578125q0,-10 10,-10h72.859375q10,0 10,10v1.7578125q0,10 10,10M15,21.7578125q-10,0 -10,10v1.7578125q0,10 10,10h82.859375q10,0 10,-10v-1.7578125q0,-10 -10,-10M107.859375,36.7578125l5,-5m-5,5l-5,-5"></path><g transform="matrix(1,0,0,1,15,10)" class="any-character"><g class="label"><rect width="82.859375" height="23.515625"></rect><text x="0" y="0" transform="matrix(1,0,0,1,5,16.7578)"><tspan>any character</tspan></text></g></g></g><g class="match-fragment literal" transform="matrix(1,0,0,1,188.1875,10.0078)"><g class="label"><rect width="57.328125" height="23.5" rx="3" ry="3"></rect><text x="0" y="0" transform="matrix(1,0,0,1,5,16.75)"><tspan class="quote">“</tspan><tspan> control</tspan><tspan class="quote">”</tspan></text></g></g></g></g></g></g></g></g><g transform="matrix(1,0,0,1,157.4219,139.0156)" class="match"><path d="M31.3125,21.757800000000003H56.3125M139.171875,21.7578125H164.1719"></path><g class="match-fragment literal" transform="matrix(1,0,0,1,0,10.0078)"><g class="label"><rect width="31.3125" height="23.5" rx="3" ry="3"></rect><text x="0" y="0" transform="matrix(1,0,0,1,5,16.75)"><tspan class="quote">“</tspan><tspan>url</tspan><tspan class="quote">”</tspan></text></g></g><g class="match-fragment" transform="matrix(1,0,0,1,41.3125,0)"><path d="M0,21.7578125q10,0 10,-10v-1.7578125q0,-10 10,-10h72.859375q10,0 10,10v1.7578125q0,10 10,10M15,21.7578125q-10,0 -10,10v1.7578125q0,10 10,10h82.859375q10,0 10,-10v-1.7578125q0,-10 -10,-10M107.859375,36.7578125l5,-5m-5,5l-5,-5"></path><g transform="matrix(1,0,0,1,15,10)" class="any-character"><g class="label"><rect width="82.859375" height="23.515625"></rect><text x="0" y="0" transform="matrix(1,0,0,1,5,16.7578)"><tspan>any character</tspan></text></g></g></g><g class="match-fragment literal" transform="matrix(1,0,0,1,164.1719,10.0078)"><g class="label"><rect width="58.65625" height="23.5" rx="3" ry="3"></rect><text x="0" y="0" transform="matrix(1,0,0,1,5,16.75)"><tspan class="quote">“</tspan><tspan> access</tspan><tspan class="quote">”</tspan></text></g></g></g></g></g></g></g><g transform="matrix(1,0,0,1,0,218.4374)" class="match"><path d="M587.6719360351562,112.4063114440918H622.6719M705.531275,112.4063125H730.5313M751.8438,112.4063H771.8438"></path><g class="match-fragment subexp" transform="matrix(1,0,0,1,0,0)"><rect rx="3" ry="3" class="subexp-box" transform="matrix(1,0,0,1,0,11.0938)" width="597.6719360351562" height="202.4374237060547"></rect><text x="0" y="0" transform="matrix(1,0,0,1,0,11.0938)" class="subexp-label"><tspan>group #5</tspan></text><g transform="matrix(1,0,0,1,10,21.0938)" class="regexp"><path d="M0,91.3125114440918c10,0 10,-13.117111444091805 20,-13.117111444091805M577.6719360351562,91.3125114440918c-10,0 -10,-13.117111444091805 -20,-13.117111444091805M10,150.7734q0,10 10,10M567.6719360351562,150.7734q0,10 -10,10M0,91.3125114440918q10,0 10,10V150.7734M577.6719360351562,91.3125114440918q-10,0 -10,10V150.7734"></path><g transform="matrix(1,0,0,1,20,0)" class="regexp-matches"><path d="M0,78.19539999999999h10M517.671925,78.19539999999999H537.6719360351562M0,160.7734h157.4219M380.25005,160.7734H537.6719360351562"></path><g transform="matrix(1,0,0,1,0,0)" class="match match-fragment subexp"><rect rx="3" ry="3" class="subexp-box" transform="matrix(1,0,0,1,0,11.0938)" width="537.6719360351562" height="123.015625"></rect><text x="0" y="0" transform="matrix(1,0,0,1,0,11.0938)" class="subexp-label"><tspan>group #6</tspan></text><g transform="matrix(1,0,0,1,10,21.0938)" class="regexp match"><path d="M47.984375,57.10159999999999H72.9844M155.843775,57.1016125H180.8438M202.1563,57.10159999999999H222.1563"></path><g class="match-fragment literal" transform="matrix(1,0,0,1,0,45.3516)"><g class="label"><rect width="47.984375" height="23.5" rx="3" ry="3"></rect><text x="0" y="0" transform="matrix(1,0,0,1,5,16.75)"><tspan class="quote">“</tspan><tspan>impro</tspan><tspan class="quote">”</tspan></text></g></g><g class="match-fragment" transform="matrix(1,0,0,1,57.9844,35.3438)"><path d="M0,21.7578125q10,0 10,-10v-1.7578125q0,-10 10,-10h72.859375q10,0 10,10v1.7578125q0,10 10,10M15,21.7578125q-10,0 -10,10v1.7578125q0,10 10,10h82.859375q10,0 10,-10v-1.7578125q0,-10 -10,-10M107.859375,36.7578125l5,-5m-5,5l-5,-5"></path><g transform="matrix(1,0,0,1,15,10)" class="any-character"><g class="label"><rect width="82.859375" height="23.515625"></rect><text x="0" y="0" transform="matrix(1,0,0,1,5,16.7578)"><tspan>any character</tspan></text></g></g></g><g class="match-fragment literal" transform="matrix(1,0,0,1,180.8438,45.3516)"><g class="label"><rect width="21.3125" height="23.5" rx="3" ry="3"></rect><text x="0" y="0" transform="matrix(1,0,0,1,5,16.75)"><tspan class="quote">“</tspan><tspan> </tspan><tspan class="quote">”</tspan></text></g></g><g class="match-fragment subexp" transform="matrix(1,0,0,1,212.1563,0)"><rect rx="3" ry="3" class="subexp-box" transform="matrix(1,0,0,1,0,11.0938)" width="305.515625" height="92.015625"></rect><text x="0" y="0" transform="matrix(1,0,0,1,0,11.0938)" class="subexp-label"><tspan>group #7</tspan></text><g transform="matrix(1,0,0,1,10,21.0938)" class="regexp"><path d="M10,21.75q0,-10 10,-10M275.515625,21.75q0,-10 -10,-10M0,36.0078125c10,0 10,14.249987500000003 20,14.249987500000003M285.515625,36.0078125c-10,0 -10,14.249987500000003 -20,14.249987500000003M0,36.0078125q10,0 10,-10V21.75M285.515625,36.0078125q-10,0 -10,-10V21.75"></path><g transform="matrix(1,0,0,1,20,0)" class="regexp-matches"><path d="M0,11.75h102.0938M143.421925,11.75H245.515625M0,50.2578h0M245.515625,50.2578H245.515625"></path><g transform="matrix(1,0,0,1,102.0938,0)" class="match match-fragment literal"><g class="label"><rect width="41.328125" height="23.5" rx="3" ry="3"></rect><text x="0" y="0" transform="matrix(1,0,0,1,5,16.75)"><tspan class="quote">“</tspan><tspan>auth</tspan><tspan class="quote">”</tspan></text></g></g><g transform="matrix(1,0,0,1,0,28.5)" class="match"><path d="M55.328125,21.757800000000003H80.3281M163.187475,21.7578125H188.1875"></path><g class="match-fragment literal" transform="matrix(1,0,0,1,0,10.0078)"><g class="label"><rect width="55.328125" height="23.5" rx="3" ry="3"></rect><text x="0" y="0" transform="matrix(1,0,0,1,5,16.75)"><tspan class="quote">“</tspan><tspan>access</tspan><tspan class="quote">”</tspan></text></g></g><g class="match-fragment" transform="matrix(1,0,0,1,65.3281,0)"><path d="M0,21.7578125q10,0 10,-10v-1.7578125q0,-10 10,-10h72.859375q10,0 10,10v1.7578125q0,10 10,10M15,21.7578125q-10,0 -10,10v1.7578125q0,10 10,10h82.859375q10,0 10,-10v-1.7578125q0,-10 -10,-10M107.859375,36.7578125l5,-5m-5,5l-5,-5"></path><g transform="matrix(1,0,0,1,15,10)" class="any-character"><g class="label"><rect width="82.859375" height="23.515625"></rect><text x="0" y="0" transform="matrix(1,0,0,1,5,16.7578)"><tspan>any character</tspan></text></g></g></g><g class="match-fragment literal" transform="matrix(1,0,0,1,188.1875,10.0078)"><g class="label"><rect width="57.328125" height="23.5" rx="3" ry="3"></rect><text x="0" y="0" transform="matrix(1,0,0,1,5,16.75)"><tspan class="quote">“</tspan><tspan> control</tspan><tspan class="quote">”</tspan></text></g></g></g></g></g></g></g></g><g transform="matrix(1,0,0,1,157.4219,139.0156)" class="match"><path d="M31.3125,21.757800000000003H56.3125M139.171875,21.7578125H164.1719"></path><g class="match-fragment literal" transform="matrix(1,0,0,1,0,10.0078)"><g class="label"><rect width="31.3125" height="23.5" rx="3" ry="3"></rect><text x="0" y="0" transform="matrix(1,0,0,1,5,16.75)"><tspan class="quote">“</tspan><tspan>url</tspan><tspan class="quote">”</tspan></text></g></g><g class="match-fragment" transform="matrix(1,0,0,1,41.3125,0)"><path d="M0,21.7578125q10,0 10,-10v-1.7578125q0,-10 10,-10h72.859375q10,0 10,10v1.7578125q0,10 10,10M15,21.7578125q-10,0 -10,10v1.7578125q0,10 10,10h82.859375q10,0 10,-10v-1.7578125q0,-10 -10,-10M107.859375,36.7578125l5,-5m-5,5l-5,-5"></path><g transform="matrix(1,0,0,1,15,10)" class="any-character"><g class="label"><rect width="82.859375" height="23.515625"></rect><text x="0" y="0" transform="matrix(1,0,0,1,5,16.7578)"><tspan>any character</tspan></text></g></g></g><g class="match-fragment literal" transform="matrix(1,0,0,1,164.1719,10.0078)"><g class="label"><rect width="58.65625" height="23.5" rx="3" ry="3"></rect><text x="0" y="0" transform="matrix(1,0,0,1,5,16.75)"><tspan class="quote">“</tspan><tspan> access</tspan><tspan class="quote">”</tspan></text></g></g></g></g></g></g><g class="match-fragment" transform="matrix(1,0,0,1,607.6719,90.6485)"><path d="M0,21.7578125q10,0 10,-10v-1.7578125q0,-10 10,-10h72.859375q10,0 10,10v1.7578125q0,10 10,10M15,21.7578125q-10,0 -10,10v1.7578125q0,10 10,10h82.859375q10,0 10,-10v-1.7578125q0,-10 -10,-10M107.859375,36.7578125l5,-5m-5,5l-5,-5"></path><g class="any-character" transform="matrix(1,0,0,1,15,10)"><g class="label"><rect width="82.859375" height="23.515625"></rect><text x="0" y="0" transform="matrix(1,0,0,1,5,16.7578)"><tspan>any character</tspan></text></g></g></g><g class="match-fragment literal" transform="matrix(1,0,0,1,730.5313,100.6563)"><g class="label"><rect width="21.3125" height="23.5" rx="3" ry="3"></rect><text x="0" y="0" transform="matrix(1,0,0,1,5,16.75)"><tspan class="quote">“</tspan><tspan> </tspan><tspan class="quote">”</tspan></text></g></g><g class="match-fragment subexp" transform="matrix(1,0,0,1,761.8438,22.5625)"><rect rx="3" ry="3" class="subexp-box" transform="matrix(1,0,0,1,0,11.0938)" width="118" height="157.5"></rect><text x="0" y="0" transform="matrix(1,0,0,1,0,11.0938)" class="subexp-label"><tspan>group #8</tspan></text><g transform="matrix(1,0,0,1,10,21.0938)" class="regexp"><path d="M10,21.75q0,-10 10,-10M88,21.75q0,-10 -10,-10M10,50.25q0,-10 10,-10M88,50.25q0,-10 -10,-10M0,68.75c10,0 10,0 20,0M98,68.75c-10,0 -10,0 -20,0M10,87.25q0,10 10,10M88,87.25q0,10 -10,10M10,115.75q0,10 10,10M88,115.75q0,10 -10,10M0,68.75q10,0 10,-10V21.75M98,68.75q-10,0 -10,-10V21.75M0,68.75q10,0 10,10V115.75M98,68.75q-10,0 -10,10V115.75"></path><g transform="matrix(1,0,0,1,20,0)" class="regexp-matches"><path d="M0,11.75h14.0156M43.98435,11.75H58M0,40.25h0M58,40.25H58M0,68.75h1.6719M56.32815,68.75H58M0,97.25h5.3359M52.664025,97.25H58M0,125.75h5M53,125.75H58"></path><g class="match match-fragment literal" transform="matrix(1,0,0,1,14.0156,0)"><g class="label"><rect width="29.96875" height="23.5" rx="3" ry="3"></rect><text x="0" y="0" transform="matrix(1,0,0,1,5,16.75)"><tspan class="quote">“</tspan><tspan>fix</tspan><tspan class="quote">”</tspan></text></g></g><g class="match match-fragment literal" transform="matrix(1,0,0,1,0,28.5)"><g class="label"><rect width="58" height="23.5" rx="3" ry="3"></rect><text x="0" y="0" transform="matrix(1,0,0,1,5,16.75)"><tspan class="quote">“</tspan><tspan>prevent</tspan><tspan class="quote">”</tspan></text></g></g><g class="match match-fragment literal" transform="matrix(1,0,0,1,1.6719,57)"><g class="label"><rect width="54.65625" height="23.5" rx="3" ry="3"></rect><text x="0" y="0" transform="matrix(1,0,0,1,5,16.75)"><tspan class="quote">“</tspan><tspan>protect</tspan><tspan class="quote">”</tspan></text></g></g><g class="match match-fragment literal" transform="matrix(1,0,0,1,5.3359,85.5)"><g class="label"><rect width="47.328125" height="23.5" rx="3" ry="3"></rect><text x="0" y="0" transform="matrix(1,0,0,1,5,16.75)"><tspan class="quote">“</tspan><tspan>patch</tspan><tspan class="quote">”</tspan></text></g></g><g class="match match-fragment literal" transform="matrix(1,0,0,1,5,114)"><g class="label"><rect width="48" height="23.5" rx="3" ry="3"></rect><text x="0" y="0" transform="matrix(1,0,0,1,5,16.75)"><tspan class="quote">“</tspan><tspan>found</tspan><tspan class="quote">”</tspan></text></g></g></g></g></g></g><g transform="matrix(1,0,0,1,169.9844,436.8748)" class="match"><path d="M45.984375,21.757800000000003H70.9844M153.843775,21.7578125H178.8438M248.8438,21.7578125H273.8438M356.703175,21.7578125H381.7031M417.0156,21.757800000000003H442.0156"></path><g class="match-fragment literal" transform="matrix(1,0,0,1,0,10.0078)"><g class="label"><rect width="45.984375" height="23.5" rx="3" ry="3"></rect><text x="0" y="0" transform="matrix(1,0,0,1,5,16.75)"><tspan class="quote">“</tspan><tspan>insec</tspan><tspan class="quote">”</tspan></text></g></g><g class="match-fragment" transform="matrix(1,0,0,1,55.9844,0)"><path d="M0,21.7578125q10,0 10,-10v-1.7578125q0,-10 10,-10h72.859375q10,0 10,10v1.7578125q0,10 10,10M15,21.7578125q-10,0 -10,10v1.7578125q0,10 10,10h82.859375q10,0 10,-10v-1.7578125q0,-10 -10,-10M107.859375,36.7578125l5,-5m-5,5l-5,-5"></path><g class="any-character" transform="matrix(1,0,0,1,15,10)"><g class="label"><rect width="82.859375" height="23.515625"></rect><text x="0" y="0" transform="matrix(1,0,0,1,5,16.7578)"><tspan>any character</tspan></text></g></g></g><g class="match-fragment literal" transform="matrix(1,0,0,1,178.8438,10)"><g class="label"><rect width="70" height="23.515625" rx="3" ry="3"></rect><text x="0" y="0" transform="matrix(1,0,0,1,5,16.7578)"><tspan class="quote">“</tspan><tspan> direct obj</tspan><tspan class="quote">”</tspan></text></g></g><g class="match-fragment" transform="matrix(1,0,0,1,258.8438,0)"><path d="M0,21.7578125q10,0 10,-10v-1.7578125q0,-10 10,-10h72.859375q10,0 10,10v1.7578125q0,10 10,10M15,21.7578125q-10,0 -10,10v1.7578125q0,10 10,10h82.859375q10,0 10,-10v-1.7578125q0,-10 -10,-10M107.859375,36.7578125l5,-5m-5,5l-5,-5"></path><g class="any-character" transform="matrix(1,0,0,1,15,10)"><g class="label"><rect width="82.859375" height="23.515625"></rect><text x="0" y="0" transform="matrix(1,0,0,1,5,16.7578)"><tspan>any character</tspan></text></g></g></g><g class="match-fragment literal" transform="matrix(1,0,0,1,381.7031,10.0078)"><g class="label"><rect width="35.3125" height="23.5" rx="3" ry="3"></rect><text x="0" y="0" transform="matrix(1,0,0,1,5,16.75)"><tspan class="quote">“</tspan><tspan> ref</tspan><tspan class="quote">”</tspan></text></g></g><g class="match-fragment" transform="matrix(1,0,0,1,427.0156,0)"><path d="M0,21.7578125q10,0 10,-10v-1.7578125q0,-10 10,-10h72.859375q10,0 10,10v1.7578125q0,10 10,10M15,21.7578125q-10,0 -10,10v1.7578125q0,10 10,10h82.859375q10,0 10,-10v-1.7578125q0,-10 -10,-10M107.859375,36.7578125l5,-5m-5,5l-5,-5"></path><g class="any-character" transform="matrix(1,0,0,1,15,10)"><g class="label"><rect width="82.859375" height="23.515625"></rect><text x="0" y="0" transform="matrix(1,0,0,1,5,16.7578)"><tspan>any character</tspan></text></g></g></g></g><g transform="matrix(1,0,0,1,346.1641,485.3905)" class="match"><path d="M64.65625,21.757800000000003H89.6563"></path><g class="match-fragment literal" transform="matrix(1,0,0,1,0,10.0078)"><g class="label"><rect width="64.65625" height="23.5" rx="3" ry="3"></rect><text x="0" y="0" transform="matrix(1,0,0,1,5,16.75)"><tspan class="quote">“</tspan><tspan>direct ref</tspan><tspan class="quote">”</tspan></text></g></g><g class="match-fragment" transform="matrix(1,0,0,1,74.6563,0)"><path d="M0,21.7578125q10,0 10,-10v-1.7578125q0,-10 10,-10h72.859375q10,0 10,10v1.7578125q0,10 10,10M15,21.7578125q-10,0 -10,10v1.7578125q0,10 10,10h82.859375q10,0 10,-10v-1.7578125q0,-10 -10,-10M107.859375,36.7578125l5,-5m-5,5l-5,-5"></path><g class="any-character" transform="matrix(1,0,0,1,15,10)"><g class="label"><rect width="82.859375" height="23.515625"></rect><text x="0" y="0" transform="matrix(1,0,0,1,5,16.7578)"><tspan>any character</tspan></text></g></g></g></g><g transform="matrix(1,0,0,1,228.0704,533.9061)" class="match"><path d="M41.328125,21.757800000000003H66.3281M149.187475,21.7578125H174.1875M233.515625,21.7578125H258.5156M341.374975,21.7578125H366.375"></path><g class="match-fragment literal" transform="matrix(1,0,0,1,0,10.0078)"><g class="label"><rect width="41.328125" height="23.5" rx="3" ry="3"></rect><text x="0" y="0" transform="matrix(1,0,0,1,5,16.75)"><tspan class="quote">“</tspan><tspan>auth</tspan><tspan class="quote">”</tspan></text></g></g><g class="match-fragment" transform="matrix(1,0,0,1,51.3281,0)"><path d="M0,21.7578125q10,0 10,-10v-1.7578125q0,-10 10,-10h72.859375q10,0 10,10v1.7578125q0,10 10,10M15,21.7578125q-10,0 -10,10v1.7578125q0,10 10,10h82.859375q10,0 10,-10v-1.7578125q0,-10 -10,-10M107.859375,36.7578125l5,-5m-5,5l-5,-5"></path><g class="any-character" transform="matrix(1,0,0,1,15,10)"><g class="label"><rect width="82.859375" height="23.515625"></rect><text x="0" y="0" transform="matrix(1,0,0,1,5,16.7578)"><tspan>any character</tspan></text></g></g></g><g class="match-fragment literal" transform="matrix(1,0,0,1,174.1875,10)"><g class="label"><rect width="59.328125" height="23.515625" rx="3" ry="3"></rect><text x="0" y="0" transform="matrix(1,0,0,1,5,16.7578)"><tspan class="quote">“</tspan><tspan> bypass</tspan><tspan class="quote">”</tspan></text></g></g><g class="match-fragment" transform="matrix(1,0,0,1,243.5156,0)"><path d="M0,21.7578125q10,0 10,-10v-1.7578125q0,-10 10,-10h72.859375q10,0 10,10v1.7578125q0,10 10,10M15,21.7578125q-10,0 -10,10v1.7578125q0,10 10,10h82.859375q10,0 10,-10v-1.7578125q0,-10 -10,-10M107.859375,36.7578125l5,-5m-5,5l-5,-5"></path><g class="any-character" transform="matrix(1,0,0,1,15,10)"><g class="label"><rect width="82.859375" height="23.515625"></rect><text x="0" y="0" transform="matrix(1,0,0,1,5,16.7578)"><tspan>any character</tspan></text></g></g></g><g class="match-fragment literal" transform="matrix(1,0,0,1,366.375,10.0078)"><g class="label"><rect width="57.328125" height="23.5" rx="3" ry="3"></rect><text x="0" y="0" transform="matrix(1,0,0,1,5,16.75)"><tspan class="quote">“</tspan><tspan> control</tspan><tspan class="quote">”</tspan></text></g></g></g></g></g><path d="M10,288.7577705383301H0M929.8438720703125,288.7577705383301H939.8438720703125"></path><circle cx="0" cy="288.7577705383301" r="5"></circle><circle cx="939.8438720703125" cy="288.7577705383301" r="5"></circle></g></svg>
          