
            <svg xmlns="http://www.w3.org/2000/svg" xmlns:cc="http://creativecommons.org/ns#" xmlns:rdf="http://www.w3.org/1999/02/22-rdf-syntax-ns#" version="1.1" width="422.7656555175781" height="353.0937805175781">
              <defs>
                <style type="text/css">svg{background-color:#fff}text,tspan{font:12px Arial}path{fill-opacity:0;stroke-width:2px;stroke:#000}circle{fill:#6b6659;stroke-width:2px;stroke:#000}.anchor text,.any-character text{fill:#fff}.anchor rect,.any-character rect{fill:#6b6659}.escape text,.charset-escape text,.literal text{fill:#000}.escape rect,.charset-escape rect{fill:#bada55}.literal rect{fill:#dae9e5}.charset .charset-box{fill:#cbcbba}.subexp .subexp-label tspan,.charset .charset-label tspan,.match-fragment .repeat-label tspan{font-size:10px}.repeat-label{cursor:help}.subexp .subexp-label tspan,.charset .charset-label tspan{dominant-baseline:text-after-edge}.subexp .subexp-box{stroke:#908c83;stroke-dasharray:6,2;stroke-width:2px;fill-opacity:0}.quote{fill:#908c83}
          </style>
              </defs>
              <metadata>
                <rdf:rdf>
                  <cc:license rdf:about="http://creativecommons.org/licenses/by/3.0/">
                    <cc:permits rdf:resource="http://creativecommons.org/ns#Reproduction"></cc:permits>
                    <cc:permits rdf:resource="http://creativecommons.org/ns#Distribution"></cc:permits>
                    <cc:requires rdf:resource="http://creativecommons.org/ns#Notice"></cc:requires>
                    <cc:requires rdf:resource="http://creativecommons.org/ns#Attribution"></cc:requires>
                    <cc:permits rdf:resource="http://creativecommons.org/ns#DerivativeWorks"></cc:permits>
                  </cc:license>
                </rdf:rdf>
              </metadata>
            <desc>Created with Snap</desc><g class="root" transform="matrix(1,0,0,1,15,5.75)"><g class="regexp" transform="matrix(1,0,0,1,10,0)"><path d="M10,99.7421875q0,-10 10,-10M362.7656555175781,99.7421875q0,-10 -10,-10M10,248.78913749999998q0,10 10,10M362.7656555175781,248.78913749999998q0,10 -10,10M0,170.79689025878906q10,0 10,-10V99.7421875M372.7656555175781,170.79689025878906q-10,0 -10,-10V99.7421875M0,170.79689025878906q10,0 10,10V248.78913749999998M372.7656555175781,170.79689025878906q-10,0 -10,10V248.78913749999998"></path><g class="regexp-matches" transform="matrix(1,0,0,1,20,0)"><path d="M0,89.7421875h10M332.76565,89.7421875H332.7656555175781M0,258.7891375h0M322.76565,258.7891375H332.7656555175781"></path><g class="match" transform="matrix(1,0,0,1,0,0)"><path d="M108.03125,89.7421875H143.0313M225.734425,89.7422375H250.7344"></path><g class="match-fragment subexp" transform="matrix(1,0,0,1,0,0)"><rect class="subexp-box" rx="3" ry="3" transform="matrix(1,0,0,1,0,11.1875)" width="118.03125" height="157.109375"></rect><text x="0" y="0" class="subexp-label" transform="matrix(1,0,0,1,0,11.1875)"><tspan>group #1</tspan></text><g class="regexp" transform="matrix(1,0,0,1,10,21.1875)"><path d="M10,21.7109375q0,-10 10,-10M88.03125,21.7109375q0,-10 -10,-10M10,50.1328375q0,-10 10,-10M88.03125,50.1328375q0,-10 -10,-10M0,68.5546875c10,0 10,0.00005000000000165983 20,0.00005000000000165983M98.03125,68.5546875c-10,0 -10,0.00005000000000165983 -20,0.00005000000000165983M10,86.9765375q0,10 10,10M88.03125,86.9765375q0,10 -10,10M10,115.3984375q0,10 10,10M88.03125,115.3984375q0,10 -10,10M0,68.5546875q10,0 10,-10V21.7109375M98.03125,68.5546875q-10,0 -10,-10V21.7109375M0,68.5546875q10,0 10,10V115.3984375M98.03125,68.5546875q-10,0 -10,10V115.3984375"></path><g class="regexp-matches" transform="matrix(1,0,0,1,20,0)"><path d="M0,11.7109375h14.0156M44.0156,11.7109375H58.03125M0,40.1328375h9.6797M48.351575,40.1328375H58.03125M0,68.5547375h5.3359M52.695275,68.5547375H58.03125M0,96.9765375h5M53.03125,96.9765375H58.03125M0,125.3984375h0M58.03125,125.3984375H58.03125"></path><g class="match match-fragment literal" transform="matrix(1,0,0,1,14.0156,0)"><g class="label"><rect width="30" height="23.421875" rx="3" ry="3"></rect><text x="0" y="0" transform="matrix(1,0,0,1,5,16.7109)"><tspan class="quote">“</tspan><tspan>fix</tspan><tspan class="quote">”</tspan></text></g></g><g class="match match-fragment literal" transform="matrix(1,0,0,1,9.6797,28.4219)"><g class="label"><rect width="38.671875" height="23.421875" rx="3" ry="3"></rect><text x="0" y="0" transform="matrix(1,0,0,1,5,16.7109)"><tspan class="quote">“</tspan><tspan>rem</tspan><tspan class="quote">”</tspan></text></g></g><g class="match match-fragment literal" transform="matrix(1,0,0,1,5.3359,56.8438)"><g class="label"><rect width="47.359375" height="23.421875" rx="3" ry="3"></rect><text x="0" y="0" transform="matrix(1,0,0,1,5,16.7109)"><tspan class="quote">“</tspan><tspan>patch</tspan><tspan class="quote">”</tspan></text></g></g><g class="match match-fragment literal" transform="matrix(1,0,0,1,5,85.2656)"><g class="label"><rect width="48.03125" height="23.421875" rx="3" ry="3"></rect><text x="0" y="0" transform="matrix(1,0,0,1,5,16.7109)"><tspan class="quote">“</tspan><tspan>found</tspan><tspan class="quote">”</tspan></text></g></g><g class="match match-fragment literal" transform="matrix(1,0,0,1,0,113.6875)"><g class="label"><rect width="58.03125" height="23.421875" rx="3" ry="3"></rect><text x="0" y="0" transform="matrix(1,0,0,1,5,16.7109)"><tspan class="quote">“</tspan><tspan>prevent</tspan><tspan class="quote">”</tspan></text></g></g></g></g></g><g class="match-fragment" transform="matrix(1,0,0,1,128.0313,68.0313)"><path d="M0,21.7109375q10,0 10,-10v-1.7109375q0,-10 10,-10h72.703125q10,0 10,10v1.7109375q0,10 10,10M15,21.7109375q-10,0 -10,10v1.7109375q0,10 10,10h82.703125q10,0 10,-10v-1.7109375q0,-10 -10,-10M107.703125,36.7109375l5,-5m-5,5l-5,-5"></path><g class="any-character" transform="matrix(1,0,0,1,15,10)"><g class="label"><rect width="82.703125" height="23.421875"></rect><text x="0" y="0" transform="matrix(1,0,0,1,5,16.7109)"><tspan>any character</tspan></text></g></g></g><g class="match-fragment literal" transform="matrix(1,0,0,1,250.7344,78.0313)"><g class="label"><rect width="82.03125" height="23.421875" rx="3" ry="3"></rect><text x="0" y="0" transform="matrix(1,0,0,1,5,16.7109)"><tspan class="quote">“</tspan><tspan>context leak</tspan><tspan class="quote">”</tspan></text></g></g></g><g class="match" transform="matrix(1,0,0,1,0,169.0469)"><path d="M82.03125,89.7422375H107.0313M189.734425,89.7422375H224.7344"></path><g class="match-fragment literal" transform="matrix(1,0,0,1,0,78.0313)"><g class="label"><rect width="82.03125" height="23.421875" rx="3" ry="3"></rect><text x="0" y="0" transform="matrix(1,0,0,1,5,16.7109)"><tspan class="quote">“</tspan><tspan>context leak</tspan><tspan class="quote">”</tspan></text></g></g><g class="match-fragment" transform="matrix(1,0,0,1,92.0313,68.0313)"><path d="M0,21.7109375q10,0 10,-10v-1.7109375q0,-10 10,-10h72.703125q10,0 10,10v1.7109375q0,10 10,10M15,21.7109375q-10,0 -10,10v1.7109375q0,10 10,10h82.703125q10,0 10,-10v-1.7109375q0,-10 -10,-10M107.703125,36.7109375l5,-5m-5,5l-5,-5"></path><g class="any-character" transform="matrix(1,0,0,1,15,10)"><g class="label"><rect width="82.703125" height="23.421875"></rect><text x="0" y="0" transform="matrix(1,0,0,1,5,16.7109)"><tspan>any character</tspan></text></g></g></g><g class="match-fragment subexp" transform="matrix(1,0,0,1,214.7344,0)"><rect class="subexp-box" rx="3" ry="3" transform="matrix(1,0,0,1,0,11.1875)" width="118.03125" height="157.109375"></rect><text x="0" y="0" class="subexp-label" transform="matrix(1,0,0,1,0,11.1875)"><tspan>group #2</tspan></text><g class="regexp" transform="matrix(1,0,0,1,10,21.1875)"><path d="M10,21.7109375q0,-10 10,-10M88.03125,21.7109375q0,-10 -10,-10M10,50.1328375q0,-10 10,-10M88.03125,50.1328375q0,-10 -10,-10M0,68.5546875c10,0 10,0.00005000000000165983 20,0.00005000000000165983M98.03125,68.5546875c-10,0 -10,0.00005000000000165983 -20,0.00005000000000165983M10,86.9765375q0,10 10,10M88.03125,86.9765375q0,10 -10,10M10,115.3984375q0,10 10,10M88.03125,115.3984375q0,10 -10,10M0,68.5546875q10,0 10,-10V21.7109375M98.03125,68.5546875q-10,0 -10,-10V21.7109375M0,68.5546875q10,0 10,10V115.3984375M98.03125,68.5546875q-10,0 -10,10V115.3984375"></path><g class="regexp-matches" transform="matrix(1,0,0,1,20,0)"><path d="M0,11.7109375h14.0156M44.0156,11.7109375H58.03125M0,40.1328375h9.6797M48.351575,40.1328375H58.03125M0,68.5547375h5.3359M52.695275,68.5547375H58.03125M0,96.9765375h5M53.03125,96.9765375H58.03125M0,125.3984375h0M58.03125,125.3984375H58.03125"></path><g class="match match-fragment literal" transform="matrix(1,0,0,1,14.0156,0)"><g class="label"><rect width="30" height="23.421875" rx="3" ry="3"></rect><text x="0" y="0" transform="matrix(1,0,0,1,5,16.7109)"><tspan class="quote">“</tspan><tspan>fix</tspan><tspan class="quote">”</tspan></text></g></g><g class="match match-fragment literal" transform="matrix(1,0,0,1,9.6797,28.4219)"><g class="label"><rect width="38.671875" height="23.421875" rx="3" ry="3"></rect><text x="0" y="0" transform="matrix(1,0,0,1,5,16.7109)"><tspan class="quote">“</tspan><tspan>rem</tspan><tspan class="quote">”</tspan></text></g></g><g class="match match-fragment literal" transform="matrix(1,0,0,1,5.3359,56.8438)"><g class="label"><rect width="47.359375" height="23.421875" rx="3" ry="3"></rect><text x="0" y="0" transform="matrix(1,0,0,1,5,16.7109)"><tspan class="quote">“</tspan><tspan>patch</tspan><tspan class="quote">”</tspan></text></g></g><g class="match match-fragment literal" transform="matrix(1,0,0,1,5,85.2656)"><g class="label"><rect width="48.03125" height="23.421875" rx="3" ry="3"></rect><text x="0" y="0" transform="matrix(1,0,0,1,5,16.7109)"><tspan class="quote">“</tspan><tspan>found</tspan><tspan class="quote">”</tspan></text></g></g><g class="match match-fragment literal" transform="matrix(1,0,0,1,0,113.6875)"><g class="label"><rect width="58.03125" height="23.421875" rx="3" ry="3"></rect><text x="0" y="0" transform="matrix(1,0,0,1,5,16.7109)"><tspan class="quote">“</tspan><tspan>prevent</tspan><tspan class="quote">”</tspan></text></g></g></g></g></g></g></g></g><path d="M10,170.79689025878906H0M382.7656555175781,170.79689025878906H392.7656555175781"></path><circle cx="0" cy="170.79689025878906" r="5"></circle><circle cx="392.7656555175781" cy="170.79689025878906" r="5"></circle></g></svg>
          