
            <svg xmlns="http://www.w3.org/2000/svg" xmlns:cc="http://creativecommons.org/ns#" xmlns:rdf="http://www.w3.org/1999/02/22-rdf-syntax-ns#" version="1.1" width="1032.4688720703125" height="688.796630859375">
              <defs>
                <style type="text/css">svg{background-color:#fff}text,tspan{font:12px Arial}path{fill-opacity:0;stroke-width:2px;stroke:#000}circle{fill:#6b6659;stroke-width:2px;stroke:#000}.anchor text,.any-character text{fill:#fff}.anchor rect,.any-character rect{fill:#6b6659}.escape text,.charset-escape text,.literal text{fill:#000}.escape rect,.charset-escape rect{fill:#bada55}.literal rect{fill:#dae9e5}.charset .charset-box{fill:#cbcbba}.subexp .subexp-label tspan,.charset .charset-label tspan,.match-fragment .repeat-label tspan{font-size:10px}.repeat-label{cursor:help}.subexp .subexp-label tspan,.charset .charset-label tspan{dominant-baseline:text-after-edge}.subexp .subexp-box{stroke:#908c83;stroke-dasharray:6,2;stroke-width:2px;fill-opacity:0}.quote{fill:#908c83}
          </style>
              </defs>
              <metadata>
                <rdf:rdf>
                  <cc:license rdf:about="http://creativecommons.org/licenses/by/3.0/">
                    <cc:permits rdf:resource="http://creativecommons.org/ns#Reproduction"></cc:permits>
                    <cc:permits rdf:resource="http://creativecommons.org/ns#Distribution"></cc:permits>
                    <cc:requires rdf:resource="http://creativecommons.org/ns#Notice"></cc:requires>
                    <cc:requires rdf:resource="http://creativecommons.org/ns#Attribution"></cc:requires>
                    <cc:permits rdf:resource="http://creativecommons.org/ns#DerivativeWorks"></cc:permits>
                  </cc:license>
                </rdf:rdf>
              </metadata>
            <desc>Created with Snap</desc><g transform="matrix(1,0,0,1,15,9.9062)" class="root"><g transform="matrix(1,0,0,1,10,0)" class="regexp"><path d="M10,130.3985q0,-10 10,-10M972.4688720703125,130.3985q0,-10 -10,-10M10,344.8202989440918q0,10 10,10M972.4688720703125,344.8202989440918q0,10 -10,10M10,515.945197241211q0,10 10,10M972.4688720703125,515.945197241211q0,10 -10,10M10,588.617q0,10 10,10M972.4688720703125,588.617q0,10 -10,10M10,637.1326q0,10 10,10M972.4688720703125,637.1326q0,10 -10,10M0,334.49211502075195q10,0 10,-10V130.3985M982.4688720703125,334.49211502075195q-10,0 -10,-10V130.3985M0,334.49211502075195q10,0 10,10V637.1326M982.4688720703125,334.49211502075195q-10,0 -10,10V637.1326"></path><g transform="matrix(1,0,0,1,20,0)" class="regexp-matches"><path d="M0,120.3985h10M932.4688360351563,120.3985H942.4688720703125M0,354.8202989440918h10M932.4688,354.8202989440918H942.4688720703125M0,525.945197241211h253.7266M698.742275,525.945197241211H942.4688720703125M0,598.617h359.8204M582.6485250000001,598.617H942.4688720703125M0,647.1326h360.4766M581.9922,647.1326H942.4688720703125"></path><g transform="matrix(1,0,0,1,0,0)" class="match"><path d="M108,120.3985H143M225.859375,120.3985125H260.8594"></path><g class="match-fragment subexp" transform="matrix(1,0,0,1,0,30.5547)"><rect rx="3" ry="3" class="subexp-box" transform="matrix(1,0,0,1,0,11.0938)" width="118" height="157.5"></rect><text x="0" y="0" transform="matrix(1,0,0,1,0,11.0938)" class="subexp-label"><tspan>group #1</tspan></text><g transform="matrix(1,0,0,1,10,21.0938)" class="regexp"><path d="M10,21.75q0,-10 10,-10M88,21.75q0,-10 -10,-10M10,50.25q0,-10 10,-10M88,50.25q0,-10 -10,-10M0,68.75c10,0 10,0 20,0M98,68.75c-10,0 -10,0 -20,0M10,87.25q0,10 10,10M88,87.25q0,10 -10,10M10,115.75q0,10 10,10M88,115.75q0,10 -10,10M0,68.75q10,0 10,-10V21.75M98,68.75q-10,0 -10,-10V21.75M0,68.75q10,0 10,10V115.75M98,68.75q-10,0 -10,10V115.75"></path><g transform="matrix(1,0,0,1,20,0)" class="regexp-matches"><path d="M0,11.75h14.0156M43.98435,11.75H58M0,40.25h0M58,40.25H58M0,68.75h1.6719M56.32815,68.75H58M0,97.25h5M53,97.25H58M0,125.75h5.3359M52.664025,125.75H58"></path><g class="match match-fragment literal" transform="matrix(1,0,0,1,14.0156,0)"><g class="label"><rect width="29.96875" height="23.5" rx="3" ry="3"></rect><text x="0" y="0" transform="matrix(1,0,0,1,5,16.75)"><tspan class="quote">“</tspan><tspan>fix</tspan><tspan class="quote">”</tspan></text></g></g><g class="match match-fragment literal" transform="matrix(1,0,0,1,0,28.5)"><g class="label"><rect width="58" height="23.5" rx="3" ry="3"></rect><text x="0" y="0" transform="matrix(1,0,0,1,5,16.75)"><tspan class="quote">“</tspan><tspan>prevent</tspan><tspan class="quote">”</tspan></text></g></g><g class="match match-fragment literal" transform="matrix(1,0,0,1,1.6719,57)"><g class="label"><rect width="54.65625" height="23.5" rx="3" ry="3"></rect><text x="0" y="0" transform="matrix(1,0,0,1,5,16.75)"><tspan class="quote">“</tspan><tspan>protect</tspan><tspan class="quote">”</tspan></text></g></g><g class="match match-fragment literal" transform="matrix(1,0,0,1,5,85.5)"><g class="label"><rect width="48" height="23.5" rx="3" ry="3"></rect><text x="0" y="0" transform="matrix(1,0,0,1,5,16.75)"><tspan class="quote">“</tspan><tspan>found</tspan><tspan class="quote">”</tspan></text></g></g><g class="match match-fragment literal" transform="matrix(1,0,0,1,5.3359,114)"><g class="label"><rect width="47.328125" height="23.5" rx="3" ry="3"></rect><text x="0" y="0" transform="matrix(1,0,0,1,5,16.75)"><tspan class="quote">“</tspan><tspan>patch</tspan><tspan class="quote">”</tspan></text></g></g></g></g></g><g class="match-fragment" transform="matrix(1,0,0,1,128,98.6407)"><path d="M0,21.7578125q10,0 10,-10v-1.7578125q0,-10 10,-10h72.859375q10,0 10,10v1.7578125q0,10 10,10M15,21.7578125q-10,0 -10,10v1.7578125q0,10 10,10h82.859375q10,0 10,-10v-1.7578125q0,-10 -10,-10M107.859375,36.7578125l5,-5m-5,5l-5,-5"></path><g class="any-character" transform="matrix(1,0,0,1,15,10)"><g class="label"><rect width="82.859375" height="23.515625"></rect><text x="0" y="0" transform="matrix(1,0,0,1,5,16.7578)"><tspan>any character</tspan></text></g></g></g><g class="match-fragment subexp" transform="matrix(1,0,0,1,250.8594,0)"><rect rx="3" ry="3" class="subexp-box" transform="matrix(1,0,0,1,0,11.0938)" width="691.6094360351562" height="218.4217987060547"></rect><text x="0" y="0" transform="matrix(1,0,0,1,0,11.0938)" class="subexp-label"><tspan>group #2</tspan></text><g transform="matrix(1,0,0,1,10,21.0938)" class="regexp"><path d="M10,67.0938q0,-10 10,-10M661.6094360351562,67.0938q0,-10 -10,-10M0,99.3046989440918c10,0 10,10.445301055908203 20,10.445301055908203M671.6094360351562,99.3046989440918c-10,0 -10,10.445301055908203 -20,10.445301055908203M10,138.2578q0,10 10,10M661.6094360351562,138.2578q0,10 -10,10M10,176.7656q0,10 10,10M661.6094360351562,176.7656q0,10 -10,10M0,99.3046989440918q10,0 10,-10V67.0938M671.6094360351562,99.3046989440918q-10,0 -10,-10V67.0938M0,99.3046989440918q10,0 10,10V176.7656M671.6094360351562,99.3046989440918q-10,0 -10,10V176.7656"></path><g transform="matrix(1,0,0,1,20,0)" class="regexp-matches"><path d="M0,57.0938h0M631.609425,57.0938H631.6094360351562M0,109.75h297.1563M334.453175,109.75H631.6094360351562M0,148.2578h211.7188M419.890675,148.2578H631.6094360351562M0,186.7656h297.1563M334.453175,186.7656H631.6094360351562"></path><g class="match" transform="matrix(1,0,0,1,0,0)"><path d="M46.640625,57.0938H81.6406M143.60935,57.0938H178.6094M215.250025,57.0938H240.25M323.109375,57.0938125H358.1094M433.4219,57.0938H468.4219M551.281275,57.0938125H576.2813"></path><g class="match-fragment literal" transform="matrix(1,0,0,1,0,45.3438)"><g class="label"><rect width="46.640625" height="23.5" rx="3" ry="3"></rect><text x="0" y="0" transform="matrix(1,0,0,1,5,16.75)"><tspan class="quote">“</tspan><tspan>cross</tspan><tspan class="quote">”</tspan></text></g></g><g class="match-fragment" transform="matrix(1,0,0,1,56.6406,0)"><path d="M0,57.0938q10,0 10,-10v-37.00000040893555q0,-10 10,-10h71.96875q10,0 10,10v37.00000040893555q0,10 10,10"></path><g class="subexp" transform="matrix(1,0,0,1,15,10)"><rect rx="3" ry="3" class="subexp-box" transform="matrix(1,0,0,1,0,11.0938)" width="81.96875" height="72"></rect><text x="0" y="0" transform="matrix(1,0,0,1,0,11.0938)" class="subexp-label"><tspan>group #3</tspan></text><g transform="matrix(1,0,0,1,10,21.0938)" class="regexp"><path d="M0,26c10,0 10,-14.25 20,-14.25M61.96875,26c-10,0 -10,-14.25 -20,-14.25M0,26c10,0 10,14.25 20,14.25M61.96875,26c-10,0 -10,14.25 -20,14.25"></path><g transform="matrix(1,0,0,1,20,0)" class="regexp-matches"><path d="M0,11.75h0M21.96875,11.75H21.96875M0,40.25h0.3281M21.6406,40.25H21.96875"></path><g class="match match-fragment literal" transform="matrix(1,0,0,1,0,0)"><g class="label"><rect width="21.96875" height="23.5" rx="3" ry="3"></rect><text x="0" y="0" transform="matrix(1,0,0,1,5,16.75)"><tspan class="quote">“</tspan><tspan>-</tspan><tspan class="quote">”</tspan></text></g></g><g class="match match-fragment literal" transform="matrix(1,0,0,1,0.3281,28.5)"><g class="label"><rect width="21.3125" height="23.5" rx="3" ry="3"></rect><text x="0" y="0" transform="matrix(1,0,0,1,5,16.75)"><tspan class="quote">“</tspan><tspan> </tspan><tspan class="quote">”</tspan></text></g></g></g></g></g></g><g class="match-fragment literal" transform="matrix(1,0,0,1,178.6094,45.3438)"><g class="label"><rect width="36.640625" height="23.5" rx="3" ry="3"></rect><text x="0" y="0" transform="matrix(1,0,0,1,5,16.75)"><tspan class="quote">“</tspan><tspan>site</tspan><tspan class="quote">”</tspan></text></g></g><g class="match-fragment" transform="matrix(1,0,0,1,225.25,35.336)"><path d="M0,21.7578125q10,0 10,-10v-1.7578125q0,-10 10,-10h72.859375q10,0 10,10v1.7578125q0,10 10,10M15,21.7578125q-10,0 -10,10v1.7578125q0,10 10,10h82.859375q10,0 10,-10v-1.7578125q0,-10 -10,-10M107.859375,36.7578125l5,-5m-5,5l-5,-5"></path><g class="any-character" transform="matrix(1,0,0,1,15,10)"><g class="label"><rect width="82.859375" height="23.515625"></rect><text x="0" y="0" transform="matrix(1,0,0,1,5,16.7578)"><tspan>any character</tspan></text></g></g></g><g class="match-fragment subexp" transform="matrix(1,0,0,1,348.1094,10)"><rect rx="3" ry="3" class="subexp-box" transform="matrix(1,0,0,1,0,11.0938)" width="95.3125" height="72"></rect><text x="0" y="0" transform="matrix(1,0,0,1,0,11.0938)" class="subexp-label"><tspan>group #4</tspan></text><g transform="matrix(1,0,0,1,10,21.0938)" class="regexp"><path d="M0,26c10,0 10,-14.25 20,-14.25M75.3125,26c-10,0 -10,-14.25 -20,-14.25M0,26c10,0 10,14.25 20,14.25M75.3125,26c-10,0 -10,14.25 -20,14.25"></path><g transform="matrix(1,0,0,1,20,0)" class="regexp-matches"><path d="M0,11.75h0M35.3125,11.75H35.3125M0,40.25h1.6641M33.648475,40.25H35.3125"></path><g class="match match-fragment literal" transform="matrix(1,0,0,1,0,0)"><g class="label"><rect width="35.3125" height="23.5" rx="3" ry="3"></rect><text x="0" y="0" transform="matrix(1,0,0,1,5,16.75)"><tspan class="quote">“</tspan><tspan>req</tspan><tspan class="quote">”</tspan></text></g></g><g class="match match-fragment literal" transform="matrix(1,0,0,1,1.6641,28.5)"><g class="label"><rect width="31.984375" height="23.5" rx="3" ry="3"></rect><text x="0" y="0" transform="matrix(1,0,0,1,5,16.75)"><tspan class="quote">“</tspan><tspan>ref</tspan><tspan class="quote">”</tspan></text></g></g></g></g></g><g class="match-fragment" transform="matrix(1,0,0,1,453.4219,35.336)"><path d="M0,21.7578125q10,0 10,-10v-1.7578125q0,-10 10,-10h72.859375q10,0 10,10v1.7578125q0,10 10,10M15,21.7578125q-10,0 -10,10v1.7578125q0,10 10,10h82.859375q10,0 10,-10v-1.7578125q0,-10 -10,-10M107.859375,36.7578125l5,-5m-5,5l-5,-5"></path><g class="any-character" transform="matrix(1,0,0,1,15,10)"><g class="label"><rect width="82.859375" height="23.515625"></rect><text x="0" y="0" transform="matrix(1,0,0,1,5,16.7578)"><tspan>any character</tspan></text></g></g></g><g class="match-fragment literal" transform="matrix(1,0,0,1,576.2813,45.336)"><g class="label"><rect width="55.328125" height="23.515625" rx="3" ry="3"></rect><text x="0" y="0" transform="matrix(1,0,0,1,5,16.7578)"><tspan class="quote">“</tspan><tspan>forgery</tspan><tspan class="quote">”</tspan></text></g></g></g><g class="match match-fragment literal" transform="matrix(1,0,0,1,297.1563,98)"><g class="label"><rect width="37.296875" height="23.5" rx="3" ry="3"></rect><text x="0" y="0" transform="matrix(1,0,0,1,5,16.75)"><tspan class="quote">“</tspan><tspan>csrf</tspan><tspan class="quote">”</tspan></text></g></g><g transform="matrix(1,0,0,1,211.7188,126.5)" class="match"><path d="M37.328125,21.757800000000003H62.3281M145.187475,21.7578125H170.1875"></path><g class="match-fragment literal" transform="matrix(1,0,0,1,0,10.0078)"><g class="label"><rect width="37.328125" height="23.5" rx="3" ry="3"></rect><text x="0" y="0" transform="matrix(1,0,0,1,5,16.75)"><tspan class="quote">“</tspan><tspan>sea</tspan><tspan class="quote">”</tspan></text></g></g><g class="match-fragment" transform="matrix(1,0,0,1,47.3281,0)"><path d="M0,21.7578125q10,0 10,-10v-1.7578125q0,-10 10,-10h72.859375q10,0 10,10v1.7578125q0,10 10,10M15,21.7578125q-10,0 -10,10v1.7578125q0,10 10,10h82.859375q10,0 10,-10v-1.7578125q0,-10 -10,-10M107.859375,36.7578125l5,-5m-5,5l-5,-5"></path><g class="any-character" transform="matrix(1,0,0,1,15,10)"><g class="label"><rect width="82.859375" height="23.515625"></rect><text x="0" y="0" transform="matrix(1,0,0,1,5,16.7578)"><tspan>any character</tspan></text></g></g></g><g class="match-fragment literal" transform="matrix(1,0,0,1,170.1875,10.0078)"><g class="label"><rect width="37.984375" height="23.5" rx="3" ry="3"></rect><text x="0" y="0" transform="matrix(1,0,0,1,5,16.75)"><tspan class="quote">“</tspan><tspan>surf</tspan><tspan class="quote">”</tspan></text></g></g></g><g class="match match-fragment literal" transform="matrix(1,0,0,1,297.1563,175.0156)"><g class="label"><rect width="37.296875" height="23.5" rx="3" ry="3"></rect><text x="0" y="0" transform="matrix(1,0,0,1,5,16.75)"><tspan class="quote">“</tspan><tspan>xsrf</tspan><tspan class="quote">”</tspan></text></g></g></g></g></g></g><g transform="matrix(1,0,0,1,0,234.4218)" class="match"><path d="M681.6094360351562,120.3984989440918H716.6094M799.468775,120.3985125H834.4688"></path><g class="match-fragment subexp" transform="matrix(1,0,0,1,0,0)"><rect rx="3" ry="3" class="subexp-box" transform="matrix(1,0,0,1,0,11.0938)" width="691.6094360351562" height="218.4217987060547"></rect><text x="0" y="0" transform="matrix(1,0,0,1,0,11.0938)" class="subexp-label"><tspan>group #5</tspan></text><g transform="matrix(1,0,0,1,10,21.0938)" class="regexp"><path d="M10,67.0938q0,-10 10,-10M661.6094360351562,67.0938q0,-10 -10,-10M0,99.3046989440918c10,0 10,10.445301055908203 20,10.445301055908203M671.6094360351562,99.3046989440918c-10,0 -10,10.445301055908203 -20,10.445301055908203M10,138.2578q0,10 10,10M661.6094360351562,138.2578q0,10 -10,10M10,176.7656q0,10 10,10M661.6094360351562,176.7656q0,10 -10,10M0,99.3046989440918q10,0 10,-10V67.0938M671.6094360351562,99.3046989440918q-10,0 -10,-10V67.0938M0,99.3046989440918q10,0 10,10V176.7656M671.6094360351562,99.3046989440918q-10,0 -10,10V176.7656"></path><g transform="matrix(1,0,0,1,20,0)" class="regexp-matches"><path d="M0,57.0938h0M631.609425,57.0938H631.6094360351562M0,109.75h297.1563M334.453175,109.75H631.6094360351562M0,148.2578h211.7188M419.890675,148.2578H631.6094360351562M0,186.7656h297.1563M334.453175,186.7656H631.6094360351562"></path><g class="match" transform="matrix(1,0,0,1,0,0)"><path d="M46.640625,57.0938H81.6406M143.60935,57.0938H178.6094M215.250025,57.0938H240.25M323.109375,57.0938125H358.1094M433.4219,57.0938H468.4219M551.281275,57.0938125H576.2813"></path><g class="match-fragment literal" transform="matrix(1,0,0,1,0,45.3438)"><g class="label"><rect width="46.640625" height="23.5" rx="3" ry="3"></rect><text x="0" y="0" transform="matrix(1,0,0,1,5,16.75)"><tspan class="quote">“</tspan><tspan>cross</tspan><tspan class="quote">”</tspan></text></g></g><g class="match-fragment" transform="matrix(1,0,0,1,56.6406,0)"><path d="M0,57.0938q10,0 10,-10v-37.00000040893555q0,-10 10,-10h71.96875q10,0 10,10v37.00000040893555q0,10 10,10"></path><g class="subexp" transform="matrix(1,0,0,1,15,10)"><rect rx="3" ry="3" class="subexp-box" transform="matrix(1,0,0,1,0,11.0938)" width="81.96875" height="72"></rect><text x="0" y="0" transform="matrix(1,0,0,1,0,11.0938)" class="subexp-label"><tspan>group #6</tspan></text><g transform="matrix(1,0,0,1,10,21.0938)" class="regexp"><path d="M0,26c10,0 10,-14.25 20,-14.25M61.96875,26c-10,0 -10,-14.25 -20,-14.25M0,26c10,0 10,14.25 20,14.25M61.96875,26c-10,0 -10,14.25 -20,14.25"></path><g transform="matrix(1,0,0,1,20,0)" class="regexp-matches"><path d="M0,11.75h0M21.96875,11.75H21.96875M0,40.25h0.3281M21.6406,40.25H21.96875"></path><g class="match match-fragment literal" transform="matrix(1,0,0,1,0,0)"><g class="label"><rect width="21.96875" height="23.5" rx="3" ry="3"></rect><text x="0" y="0" transform="matrix(1,0,0,1,5,16.75)"><tspan class="quote">“</tspan><tspan>-</tspan><tspan class="quote">”</tspan></text></g></g><g class="match match-fragment literal" transform="matrix(1,0,0,1,0.3281,28.5)"><g class="label"><rect width="21.3125" height="23.5" rx="3" ry="3"></rect><text x="0" y="0" transform="matrix(1,0,0,1,5,16.75)"><tspan class="quote">“</tspan><tspan> </tspan><tspan class="quote">”</tspan></text></g></g></g></g></g></g><g class="match-fragment literal" transform="matrix(1,0,0,1,178.6094,45.3438)"><g class="label"><rect width="36.640625" height="23.5" rx="3" ry="3"></rect><text x="0" y="0" transform="matrix(1,0,0,1,5,16.75)"><tspan class="quote">“</tspan><tspan>site</tspan><tspan class="quote">”</tspan></text></g></g><g class="match-fragment" transform="matrix(1,0,0,1,225.25,35.336)"><path d="M0,21.7578125q10,0 10,-10v-1.7578125q0,-10 10,-10h72.859375q10,0 10,10v1.7578125q0,10 10,10M15,21.7578125q-10,0 -10,10v1.7578125q0,10 10,10h82.859375q10,0 10,-10v-1.7578125q0,-10 -10,-10M107.859375,36.7578125l5,-5m-5,5l-5,-5"></path><g class="any-character" transform="matrix(1,0,0,1,15,10)"><g class="label"><rect width="82.859375" height="23.515625"></rect><text x="0" y="0" transform="matrix(1,0,0,1,5,16.7578)"><tspan>any character</tspan></text></g></g></g><g class="match-fragment subexp" transform="matrix(1,0,0,1,348.1094,10)"><rect rx="3" ry="3" class="subexp-box" transform="matrix(1,0,0,1,0,11.0938)" width="95.3125" height="72"></rect><text x="0" y="0" transform="matrix(1,0,0,1,0,11.0938)" class="subexp-label"><tspan>group #7</tspan></text><g transform="matrix(1,0,0,1,10,21.0938)" class="regexp"><path d="M0,26c10,0 10,-14.25 20,-14.25M75.3125,26c-10,0 -10,-14.25 -20,-14.25M0,26c10,0 10,14.25 20,14.25M75.3125,26c-10,0 -10,14.25 -20,14.25"></path><g transform="matrix(1,0,0,1,20,0)" class="regexp-matches"><path d="M0,11.75h0M35.3125,11.75H35.3125M0,40.25h1.6641M33.648475,40.25H35.3125"></path><g class="match match-fragment literal" transform="matrix(1,0,0,1,0,0)"><g class="label"><rect width="35.3125" height="23.5" rx="3" ry="3"></rect><text x="0" y="0" transform="matrix(1,0,0,1,5,16.75)"><tspan class="quote">“</tspan><tspan>req</tspan><tspan class="quote">”</tspan></text></g></g><g class="match match-fragment literal" transform="matrix(1,0,0,1,1.6641,28.5)"><g class="label"><rect width="31.984375" height="23.5" rx="3" ry="3"></rect><text x="0" y="0" transform="matrix(1,0,0,1,5,16.75)"><tspan class="quote">“</tspan><tspan>ref</tspan><tspan class="quote">”</tspan></text></g></g></g></g></g><g class="match-fragment" transform="matrix(1,0,0,1,453.4219,35.336)"><path d="M0,21.7578125q10,0 10,-10v-1.7578125q0,-10 10,-10h72.859375q10,0 10,10v1.7578125q0,10 10,10M15,21.7578125q-10,0 -10,10v1.7578125q0,10 10,10h82.859375q10,0 10,-10v-1.7578125q0,-10 -10,-10M107.859375,36.7578125l5,-5m-5,5l-5,-5"></path><g class="any-character" transform="matrix(1,0,0,1,15,10)"><g class="label"><rect width="82.859375" height="23.515625"></rect><text x="0" y="0" transform="matrix(1,0,0,1,5,16.7578)"><tspan>any character</tspan></text></g></g></g><g class="match-fragment literal" transform="matrix(1,0,0,1,576.2813,45.336)"><g class="label"><rect width="55.328125" height="23.515625" rx="3" ry="3"></rect><text x="0" y="0" transform="matrix(1,0,0,1,5,16.7578)"><tspan class="quote">“</tspan><tspan>forgery</tspan><tspan class="quote">”</tspan></text></g></g></g><g class="match match-fragment literal" transform="matrix(1,0,0,1,297.1563,98)"><g class="label"><rect width="37.296875" height="23.5" rx="3" ry="3"></rect><text x="0" y="0" transform="matrix(1,0,0,1,5,16.75)"><tspan class="quote">“</tspan><tspan>csrf</tspan><tspan class="quote">”</tspan></text></g></g><g transform="matrix(1,0,0,1,211.7188,126.5)" class="match"><path d="M37.328125,21.757800000000003H62.3281M145.187475,21.7578125H170.1875"></path><g class="match-fragment literal" transform="matrix(1,0,0,1,0,10.0078)"><g class="label"><rect width="37.328125" height="23.5" rx="3" ry="3"></rect><text x="0" y="0" transform="matrix(1,0,0,1,5,16.75)"><tspan class="quote">“</tspan><tspan>sea</tspan><tspan class="quote">”</tspan></text></g></g><g class="match-fragment" transform="matrix(1,0,0,1,47.3281,0)"><path d="M0,21.7578125q10,0 10,-10v-1.7578125q0,-10 10,-10h72.859375q10,0 10,10v1.7578125q0,10 10,10M15,21.7578125q-10,0 -10,10v1.7578125q0,10 10,10h82.859375q10,0 10,-10v-1.7578125q0,-10 -10,-10M107.859375,36.7578125l5,-5m-5,5l-5,-5"></path><g class="any-character" transform="matrix(1,0,0,1,15,10)"><g class="label"><rect width="82.859375" height="23.515625"></rect><text x="0" y="0" transform="matrix(1,0,0,1,5,16.7578)"><tspan>any character</tspan></text></g></g></g><g class="match-fragment literal" transform="matrix(1,0,0,1,170.1875,10.0078)"><g class="label"><rect width="37.984375" height="23.5" rx="3" ry="3"></rect><text x="0" y="0" transform="matrix(1,0,0,1,5,16.75)"><tspan class="quote">“</tspan><tspan>surf</tspan><tspan class="quote">”</tspan></text></g></g></g><g class="match match-fragment literal" transform="matrix(1,0,0,1,297.1563,175.0156)"><g class="label"><rect width="37.296875" height="23.5" rx="3" ry="3"></rect><text x="0" y="0" transform="matrix(1,0,0,1,5,16.75)"><tspan class="quote">“</tspan><tspan>xsrf</tspan><tspan class="quote">”</tspan></text></g></g></g></g></g><g class="match-fragment" transform="matrix(1,0,0,1,701.6094,98.6407)"><path d="M0,21.7578125q10,0 10,-10v-1.7578125q0,-10 10,-10h72.859375q10,0 10,10v1.7578125q0,10 10,10M15,21.7578125q-10,0 -10,10v1.7578125q0,10 10,10h82.859375q10,0 10,-10v-1.7578125q0,-10 -10,-10M107.859375,36.7578125l5,-5m-5,5l-5,-5"></path><g class="any-character" transform="matrix(1,0,0,1,15,10)"><g class="label"><rect width="82.859375" height="23.515625"></rect><text x="0" y="0" transform="matrix(1,0,0,1,5,16.7578)"><tspan>any character</tspan></text></g></g></g><g class="match-fragment subexp" transform="matrix(1,0,0,1,824.4688,30.5547)"><rect rx="3" ry="3" class="subexp-box" transform="matrix(1,0,0,1,0,11.0938)" width="118" height="157.5"></rect><text x="0" y="0" transform="matrix(1,0,0,1,0,11.0938)" class="subexp-label"><tspan>group #8</tspan></text><g transform="matrix(1,0,0,1,10,21.0938)" class="regexp"><path d="M10,21.75q0,-10 10,-10M88,21.75q0,-10 -10,-10M10,50.25q0,-10 10,-10M88,50.25q0,-10 -10,-10M0,68.75c10,0 10,0 20,0M98,68.75c-10,0 -10,0 -20,0M10,87.25q0,10 10,10M88,87.25q0,10 -10,10M10,115.75q0,10 10,10M88,115.75q0,10 -10,10M0,68.75q10,0 10,-10V21.75M98,68.75q-10,0 -10,-10V21.75M0,68.75q10,0 10,10V115.75M98,68.75q-10,0 -10,10V115.75"></path><g transform="matrix(1,0,0,1,20,0)" class="regexp-matches"><path d="M0,11.75h14.0156M43.98435,11.75H58M0,40.25h0M58,40.25H58M0,68.75h1.6719M56.32815,68.75H58M0,97.25h5M53,97.25H58M0,125.75h5.3359M52.664025,125.75H58"></path><g class="match match-fragment literal" transform="matrix(1,0,0,1,14.0156,0)"><g class="label"><rect width="29.96875" height="23.5" rx="3" ry="3"></rect><text x="0" y="0" transform="matrix(1,0,0,1,5,16.75)"><tspan class="quote">“</tspan><tspan>fix</tspan><tspan class="quote">”</tspan></text></g></g><g class="match match-fragment literal" transform="matrix(1,0,0,1,0,28.5)"><g class="label"><rect width="58" height="23.5" rx="3" ry="3"></rect><text x="0" y="0" transform="matrix(1,0,0,1,5,16.75)"><tspan class="quote">“</tspan><tspan>prevent</tspan><tspan class="quote">”</tspan></text></g></g><g class="match match-fragment literal" transform="matrix(1,0,0,1,1.6719,57)"><g class="label"><rect width="54.65625" height="23.5" rx="3" ry="3"></rect><text x="0" y="0" transform="matrix(1,0,0,1,5,16.75)"><tspan class="quote">“</tspan><tspan>protect</tspan><tspan class="quote">”</tspan></text></g></g><g class="match match-fragment literal" transform="matrix(1,0,0,1,5,85.5)"><g class="label"><rect width="48" height="23.5" rx="3" ry="3"></rect><text x="0" y="0" transform="matrix(1,0,0,1,5,16.75)"><tspan class="quote">“</tspan><tspan>found</tspan><tspan class="quote">”</tspan></text></g></g><g class="match match-fragment literal" transform="matrix(1,0,0,1,5.3359,114)"><g class="label"><rect width="47.328125" height="23.5" rx="3" ry="3"></rect><text x="0" y="0" transform="matrix(1,0,0,1,5,16.75)"><tspan class="quote">“</tspan><tspan>patch</tspan><tspan class="quote">”</tspan></text></g></g></g></g></g></g><g transform="matrix(1,0,0,1,243.7266,468.8436)" class="match"><path d="M262.1719055175781,57.10159724121094H297.1719M380.031275,57.1016125H405.0313"></path><g class="match-fragment subexp" transform="matrix(1,0,0,1,0,0)"><rect rx="3" ry="3" class="subexp-box" transform="matrix(1,0,0,1,0,11.0938)" width="272.1719055175781" height="92.01559448242188"></rect><text x="0" y="0" transform="matrix(1,0,0,1,0,11.0938)" class="subexp-label"><tspan>group #9</tspan></text><g transform="matrix(1,0,0,1,10,21.0938)" class="regexp"><path d="M0,36.00779724121094c10,0 10,-14.249997241210934 20,-14.249997241210934M252.17190551757812,36.00779724121094c-10,0 -10,-14.249997241210934 -20,-14.249997241210934M10,50.265600000000006q0,10 10,10M242.17190551757812,50.265600000000006q0,10 -10,10M0,36.00779724121094q10,0 10,10V50.265600000000006M252.17190551757812,36.00779724121094q-10,0 -10,10V50.265600000000006"></path><g transform="matrix(1,0,0,1,20,0)" class="regexp-matches"><path d="M0,21.757800000000003h0M212.1719,21.757800000000003H212.17190551757812M0,60.265600000000006h80.4219M131.750025,60.265600000000006H212.17190551757812"></path><g class="match" transform="matrix(1,0,0,1,0,0)"><path d="M38,21.757800000000003H63M145.859375,21.7578125H170.8594"></path><g class="match-fragment literal" transform="matrix(1,0,0,1,0,10.0078)"><g class="label"><rect width="38" height="23.5" rx="3" ry="3"></rect><text x="0" y="0" transform="matrix(1,0,0,1,5,16.75)"><tspan class="quote">“</tspan><tspan>one</tspan><tspan class="quote">”</tspan></text></g></g><g class="match-fragment" transform="matrix(1,0,0,1,48,0)"><path d="M0,21.7578125q10,0 10,-10v-1.7578125q0,-10 10,-10h72.859375q10,0 10,10v1.7578125q0,10 10,10M15,21.7578125q-10,0 -10,10v1.7578125q0,10 10,10h82.859375q10,0 10,-10v-1.7578125q0,-10 -10,-10M107.859375,36.7578125l5,-5m-5,5l-5,-5"></path><g transform="matrix(1,0,0,1,15,10)" class="any-character"><g class="label"><rect width="82.859375" height="23.515625"></rect><text x="0" y="0" transform="matrix(1,0,0,1,5,16.7578)"><tspan>any character</tspan></text></g></g></g><g class="match-fragment literal" transform="matrix(1,0,0,1,170.8594,10.0078)"><g class="label"><rect width="41.3125" height="23.5" rx="3" ry="3"></rect><text x="0" y="0" transform="matrix(1,0,0,1,5,16.75)"><tspan class="quote">“</tspan><tspan>click</tspan><tspan class="quote">”</tspan></text></g></g></g><g class="match match-fragment literal" transform="matrix(1,0,0,1,80.4219,48.5156)"><g class="label"><rect width="51.328125" height="23.5" rx="3" ry="3"></rect><text x="0" y="0" transform="matrix(1,0,0,1,5,16.75)"><tspan class="quote">“</tspan><tspan>autom</tspan><tspan class="quote">”</tspan></text></g></g></g></g></g><g class="match-fragment" transform="matrix(1,0,0,1,282.1719,35.3438)"><path d="M0,21.7578125q10,0 10,-10v-1.7578125q0,-10 10,-10h72.859375q10,0 10,10v1.7578125q0,10 10,10M15,21.7578125q-10,0 -10,10v1.7578125q0,10 10,10h82.859375q10,0 10,-10v-1.7578125q0,-10 -10,-10M107.859375,36.7578125l5,-5m-5,5l-5,-5"></path><g class="any-character" transform="matrix(1,0,0,1,15,10)"><g class="label"><rect width="82.859375" height="23.515625"></rect><text x="0" y="0" transform="matrix(1,0,0,1,5,16.7578)"><tspan>any character</tspan></text></g></g></g><g class="match-fragment literal" transform="matrix(1,0,0,1,405.0313,45.3516)"><g class="label"><rect width="49.984375" height="23.5" rx="3" ry="3"></rect><text x="0" y="0" transform="matrix(1,0,0,1,5,16.75)"><tspan class="quote">“</tspan><tspan>attack</tspan><tspan class="quote">”</tspan></text></g></g></g><g transform="matrix(1,0,0,1,359.8204,576.8592)" class="match"><path d="M42.640625,21.757800000000003H67.6406M150.499975,21.7578125H175.5"></path><g class="match-fragment literal" transform="matrix(1,0,0,1,0,10.0078)"><g class="label"><rect width="42.640625" height="23.5" rx="3" ry="3"></rect><text x="0" y="0" transform="matrix(1,0,0,1,5,16.75)"><tspan class="quote">“</tspan><tspan>sess</tspan><tspan class="quote">”</tspan></text></g></g><g class="match-fragment" transform="matrix(1,0,0,1,52.6406,0)"><path d="M0,21.7578125q10,0 10,-10v-1.7578125q0,-10 10,-10h72.859375q10,0 10,10v1.7578125q0,10 10,10M15,21.7578125q-10,0 -10,10v1.7578125q0,10 10,10h82.859375q10,0 10,-10v-1.7578125q0,-10 -10,-10M107.859375,36.7578125l5,-5m-5,5l-5,-5"></path><g class="any-character" transform="matrix(1,0,0,1,15,10)"><g class="label"><rect width="82.859375" height="23.515625"></rect><text x="0" y="0" transform="matrix(1,0,0,1,5,16.7578)"><tspan>any character</tspan></text></g></g></g><g class="match-fragment literal" transform="matrix(1,0,0,1,175.5,10)"><g class="label"><rect width="47.328125" height="23.515625" rx="3" ry="3"></rect><text x="0" y="0" transform="matrix(1,0,0,1,5,16.7578)"><tspan class="quote">“</tspan><tspan>riding</tspan><tspan class="quote">”</tspan></text></g></g></g><g transform="matrix(1,0,0,1,360.4766,625.3748)" class="match"><path d="M40.65625,21.757800000000003H65.6563M148.515675,21.7578125H173.5156"></path><g class="match-fragment literal" transform="matrix(1,0,0,1,0,10.0078)"><g class="label"><rect width="40.65625" height="23.5" rx="3" ry="3"></rect><text x="0" y="0" transform="matrix(1,0,0,1,5,16.75)"><tspan class="quote">“</tspan><tspan>conf</tspan><tspan class="quote">”</tspan></text></g></g><g class="match-fragment" transform="matrix(1,0,0,1,50.6563,0)"><path d="M0,21.7578125q10,0 10,-10v-1.7578125q0,-10 10,-10h72.859375q10,0 10,10v1.7578125q0,10 10,10M15,21.7578125q-10,0 -10,10v1.7578125q0,10 10,10h82.859375q10,0 10,-10v-1.7578125q0,-10 -10,-10M107.859375,36.7578125l5,-5m-5,5l-5,-5"></path><g class="any-character" transform="matrix(1,0,0,1,15,10)"><g class="label"><rect width="82.859375" height="23.515625"></rect><text x="0" y="0" transform="matrix(1,0,0,1,5,16.7578)"><tspan>any character</tspan></text></g></g></g><g class="match-fragment literal" transform="matrix(1,0,0,1,173.5156,10.0078)"><g class="label"><rect width="48" height="23.5" rx="3" ry="3"></rect><text x="0" y="0" transform="matrix(1,0,0,1,5,16.75)"><tspan class="quote">“</tspan><tspan>deput</tspan><tspan class="quote">”</tspan></text></g></g></g></g></g><path d="M10,334.49211502075195H0M992.4688720703125,334.49211502075195H1002.4688720703125"></path><circle cx="0" cy="334.49211502075195" r="5"></circle><circle cx="1002.4688720703125" cy="334.49211502075195" r="5"></circle></g></svg>
          