
            <svg xmlns="http://www.w3.org/2000/svg" xmlns:cc="http://creativecommons.org/ns#" xmlns:rdf="http://www.w3.org/1999/02/22-rdf-syntax-ns#" version="1.1" width="664.5781860351562" height="260.5">
              <defs>
                <style type="text/css">svg{background-color:#fff}text,tspan{font:12px Arial}path{fill-opacity:0;stroke-width:2px;stroke:#000}circle{fill:#6b6659;stroke-width:2px;stroke:#000}.anchor text,.any-character text{fill:#fff}.anchor rect,.any-character rect{fill:#6b6659}.escape text,.charset-escape text,.literal text{fill:#000}.escape rect,.charset-escape rect{fill:#bada55}.literal rect{fill:#dae9e5}.charset .charset-box{fill:#cbcbba}.subexp .subexp-label tspan,.charset .charset-label tspan,.match-fragment .repeat-label tspan{font-size:10px}.repeat-label{cursor:help}.subexp .subexp-label tspan,.charset .charset-label tspan{dominant-baseline:text-after-edge}.subexp .subexp-box{stroke:#908c83;stroke-dasharray:6,2;stroke-width:2px;fill-opacity:0}.quote{fill:#908c83}
          </style>
              </defs>
              <metadata>
                <rdf:rdf>
                  <cc:license rdf:about="http://creativecommons.org/licenses/by/3.0/">
                    <cc:permits rdf:resource="http://creativecommons.org/ns#Reproduction"></cc:permits>
                    <cc:permits rdf:resource="http://creativecommons.org/ns#Distribution"></cc:permits>
                    <cc:requires rdf:resource="http://creativecommons.org/ns#Notice"></cc:requires>
                    <cc:requires rdf:resource="http://creativecommons.org/ns#Attribution"></cc:requires>
                    <cc:permits rdf:resource="http://creativecommons.org/ns#DerivativeWorks"></cc:permits>
                  </cc:license>
                </rdf:rdf>
              </metadata>
            <desc>Created with Snap</desc><g transform="matrix(1,0,0,1,15,9.9062)" class="root"><g transform="matrix(1,0,0,1,10,0)" class="regexp match match-fragment subexp"><rect rx="3" ry="3" class="subexp-box" transform="matrix(1,0,0,1,0,11.0938)" width="614.5781860351562" height="229.5"></rect><text x="0" y="0" transform="matrix(1,0,0,1,0,11.0938)" class="subexp-label"><tspan>group #1</tspan></text><g transform="matrix(1,0,0,1,10,21.0938)" class="regexp"><path d="M10,21.75q0,-10 10,-10M584.5781860351562,21.75q0,-10 -10,-10M0,104.75c10,0 10,1.9376000000000033 20,1.9376000000000033M594.5781860351562,104.75c-10,0 -10,1.9376000000000033 -20,1.9376000000000033M10,159.25q0,10 10,10M584.5781860351562,159.25q0,10 -10,10M10,187.75q0,10 10,10M584.5781860351562,187.75q0,10 -10,10M0,104.75q10,0 10,-10V21.75M594.5781860351562,104.75q-10,0 -10,-10V21.75M0,104.75q10,0 10,10V187.75M594.5781860351562,104.75q-10,0 -10,10V187.75"></path><g transform="matrix(1,0,0,1,20,0)" class="regexp-matches"><path d="M0,11.75h256.961M297.61725,11.75H554.5781860351562M0,106.6876h35M544.578175,106.6876H554.5781860351562M0,169.25h253.625M300.953125,169.25H554.5781860351562M0,197.75h241.2813M313.296925,197.75H554.5781860351562"></path><g class="match match-fragment literal" transform="matrix(1,0,0,1,256.961,0)"><g class="label"><rect width="40.65625" height="23.5" rx="3" ry="3"></rect><text x="0" y="0" transform="matrix(1,0,0,1,5,16.75)"><tspan class="quote">“</tspan><tspan>dos </tspan><tspan class="quote">”</tspan></text></g></g><g class="match match-fragment subexp" transform="matrix(1,0,0,1,0,28.5)"><rect rx="3" ry="3" class="subexp-box" transform="matrix(1,0,0,1,0,11.0938)" width="554.5781860351562" height="113"></rect><text x="0" y="0" transform="matrix(1,0,0,1,0,11.0938)" class="subexp-label"><tspan>group #2</tspan></text><g transform="matrix(1,0,0,1,10,21.0938)" class="regexp match"><path d="M98.34375,57.0938H133.3438M186.671925,57.0938H221.6719M283.64065,57.0938H318.6406M346.624975,57.0938H381.625M443.59375,57.0938H478.5938"></path><g class="match-fragment" transform="matrix(1,0,0,1,0,14.25)"><path d="M0,42.8438q10,0 10,-10v-22.75000040893555q0,-10 10,-10h83.34375q10,0 10,10v22.75000040893555q0,10 10,10"></path><g class="subexp" transform="matrix(1,0,0,1,15,10)"><rect rx="3" ry="3" class="subexp-box" transform="matrix(1,0,0,1,0,11.0938)" width="93.34375" height="43.5"></rect><text x="0" y="0" transform="matrix(1,0,0,1,0,11.0938)" class="subexp-label"><tspan>group #3</tspan></text><g transform="matrix(1,0,0,1,10,21.0938)" class="regexp match match-fragment literal"><g class="label"><rect width="73.34375" height="23.5" rx="3" ry="3"></rect><text x="0" y="0" transform="matrix(1,0,0,1,5,16.75)"><tspan class="quote">“</tspan><tspan>distributed</tspan><tspan class="quote">”</tspan></text></g></g></g></g><g class="match-fragment literal" transform="matrix(1,0,0,1,133.3438,45.3438)"><g class="label"><rect width="53.328125" height="23.5" rx="3" ry="3"></rect><text x="0" y="0" transform="matrix(1,0,0,1,5,16.75)"><tspan class="quote">“</tspan><tspan> denial</tspan><tspan class="quote">”</tspan></text></g></g><g class="match-fragment" transform="matrix(1,0,0,1,196.6719,0)"><path d="M0,57.0938q10,0 10,-10v-37.00000040893555q0,-10 10,-10h71.96875q10,0 10,10v37.00000040893555q0,10 10,10"></path><g class="subexp" transform="matrix(1,0,0,1,15,10)"><rect rx="3" ry="3" class="subexp-box" transform="matrix(1,0,0,1,0,11.0938)" width="81.96875" height="72"></rect><text x="0" y="0" transform="matrix(1,0,0,1,0,11.0938)" class="subexp-label"><tspan>group #4</tspan></text><g transform="matrix(1,0,0,1,10,21.0938)" class="regexp"><path d="M0,26c10,0 10,-14.25 20,-14.25M61.96875,26c-10,0 -10,-14.25 -20,-14.25M0,26c10,0 10,14.25 20,14.25M61.96875,26c-10,0 -10,14.25 -20,14.25"></path><g transform="matrix(1,0,0,1,20,0)" class="regexp-matches"><path d="M0,11.75h0M21.96875,11.75H21.96875M0,40.25h0.3281M21.6406,40.25H21.96875"></path><g class="match match-fragment literal" transform="matrix(1,0,0,1,0,0)"><g class="label"><rect width="21.96875" height="23.5" rx="3" ry="3"></rect><text x="0" y="0" transform="matrix(1,0,0,1,5,16.75)"><tspan class="quote">“</tspan><tspan>-</tspan><tspan class="quote">”</tspan></text></g></g><g class="match match-fragment literal" transform="matrix(1,0,0,1,0.3281,28.5)"><g class="label"><rect width="21.3125" height="23.5" rx="3" ry="3"></rect><text x="0" y="0" transform="matrix(1,0,0,1,5,16.75)"><tspan class="quote">“</tspan><tspan> </tspan><tspan class="quote">”</tspan></text></g></g></g></g></g></g><g class="match-fragment literal" transform="matrix(1,0,0,1,318.6406,45.3438)"><g class="label"><rect width="27.984375" height="23.5" rx="3" ry="3"></rect><text x="0" y="0" transform="matrix(1,0,0,1,5,16.75)"><tspan class="quote">“</tspan><tspan>of</tspan><tspan class="quote">”</tspan></text></g></g><g class="match-fragment" transform="matrix(1,0,0,1,356.625,0)"><path d="M0,57.0938q10,0 10,-10v-37.00000040893555q0,-10 10,-10h71.96875q10,0 10,10v37.00000040893555q0,10 10,10"></path><g class="subexp" transform="matrix(1,0,0,1,15,10)"><rect rx="3" ry="3" class="subexp-box" transform="matrix(1,0,0,1,0,11.0938)" width="81.96875" height="72"></rect><text x="0" y="0" transform="matrix(1,0,0,1,0,11.0938)" class="subexp-label"><tspan>group #5</tspan></text><g transform="matrix(1,0,0,1,10,21.0938)" class="regexp"><path d="M0,26c10,0 10,-14.25 20,-14.25M61.96875,26c-10,0 -10,-14.25 -20,-14.25M0,26c10,0 10,14.25 20,14.25M61.96875,26c-10,0 -10,14.25 -20,14.25"></path><g transform="matrix(1,0,0,1,20,0)" class="regexp-matches"><path d="M0,11.75h0M21.96875,11.75H21.96875M0,40.25h0.3281M21.6406,40.25H21.96875"></path><g class="match match-fragment literal" transform="matrix(1,0,0,1,0,0)"><g class="label"><rect width="21.96875" height="23.5" rx="3" ry="3"></rect><text x="0" y="0" transform="matrix(1,0,0,1,5,16.75)"><tspan class="quote">“</tspan><tspan>-</tspan><tspan class="quote">”</tspan></text></g></g><g class="match match-fragment literal" transform="matrix(1,0,0,1,0.3281,28.5)"><g class="label"><rect width="21.3125" height="23.5" rx="3" ry="3"></rect><text x="0" y="0" transform="matrix(1,0,0,1,5,16.75)"><tspan class="quote">“</tspan><tspan> </tspan><tspan class="quote">”</tspan></text></g></g></g></g></g></g><g class="match-fragment literal" transform="matrix(1,0,0,1,478.5938,45.3438)"><g class="label"><rect width="55.984375" height="23.5" rx="3" ry="3"></rect><text x="0" y="0" transform="matrix(1,0,0,1,5,16.75)"><tspan class="quote">“</tspan><tspan>service</tspan><tspan class="quote">”</tspan></text></g></g></g></g><g class="match match-fragment literal" transform="matrix(1,0,0,1,253.625,157.5)"><g class="label"><rect width="47.328125" height="23.5" rx="3" ry="3"></rect><text x="0" y="0" transform="matrix(1,0,0,1,5,16.75)"><tspan class="quote">“</tspan><tspan>ddos </tspan><tspan class="quote">”</tspan></text></g></g><g class="match match-fragment literal" transform="matrix(1,0,0,1,241.2813,186)"><g class="label"><rect width="72.015625" height="23.5" rx="3" ry="3"></rect><text x="0" y="0" transform="matrix(1,0,0,1,5,16.75)"><tspan class="quote">“</tspan><tspan>deadlocks</tspan><tspan class="quote">”</tspan></text></g></g></g></g></g><path d="M20,125.8438H0M614.5781860351562,125.8438H634.5781860351562"></path><circle cx="0" cy="125.8438" r="5"></circle><circle cx="634.5781860351562" cy="125.8438" r="5"></circle></g></svg>
          