
            <svg xmlns="http://www.w3.org/2000/svg" xmlns:cc="http://creativecommons.org/ns#" xmlns:rdf="http://www.w3.org/1999/02/22-rdf-syntax-ns#" version="1.1" width="599.6719360351562" height="1265.1953125">
              <defs>
                <style type="text/css">svg{background-color:#fff}text,tspan{font:12px Arial}path{fill-opacity:0;stroke-width:2px;stroke:#000}circle{fill:#6b6659;stroke-width:2px;stroke:#000}.anchor text,.any-character text{fill:#fff}.anchor rect,.any-character rect{fill:#6b6659}.escape text,.charset-escape text,.literal text{fill:#000}.escape rect,.charset-escape rect{fill:#bada55}.literal rect{fill:#dae9e5}.charset .charset-box{fill:#cbcbba}.subexp .subexp-label tspan,.charset .charset-label tspan,.match-fragment .repeat-label tspan{font-size:10px}.repeat-label{cursor:help}.subexp .subexp-label tspan,.charset .charset-label tspan{dominant-baseline:text-after-edge}.subexp .subexp-box{stroke:#908c83;stroke-dasharray:6,2;stroke-width:2px;fill-opacity:0}.quote{fill:#908c83}
          </style>
              </defs>
              <metadata>
                <rdf:rdf>
                  <cc:license rdf:about="http://creativecommons.org/licenses/by/3.0/">
                    <cc:permits rdf:resource="http://creativecommons.org/ns#Reproduction"></cc:permits>
                    <cc:permits rdf:resource="http://creativecommons.org/ns#Distribution"></cc:permits>
                    <cc:requires rdf:resource="http://creativecommons.org/ns#Notice"></cc:requires>
                    <cc:requires rdf:resource="http://creativecommons.org/ns#Attribution"></cc:requires>
                    <cc:permits rdf:resource="http://creativecommons.org/ns#DerivativeWorks"></cc:permits>
                  </cc:license>
                </rdf:rdf>
              </metadata>
            <desc>Created with Snap</desc><g transform="matrix(1,0,0,1,15,9.9062)" class="root"><g transform="matrix(1,0,0,1,10,0)" class="regexp"><path d="M10,331.1641125q0,-10 10,-10M539.6719360351562,331.1641125q0,-10 -10,-10M10,715.9843999999999q0,10 10,10M539.6719360351562,715.9843999999999q0,10 -10,10M10,889.4843972412109q0,10 10,10M539.6719360351562,889.4843972412109q0,10 -10,10M10,1015.9921999999999q0,10 10,10M539.6719360351562,1015.9921999999999q0,10 -10,10M10,1095.5079q0,10 10,10M539.6719360351562,1095.5079q0,10 -10,10M10,1153.9297000000001q0,10 10,10M539.6719360351562,1153.9297000000001q0,10 -10,10M10,1213.5313q0,10 10,10M539.6719360351562,1213.5313q0,10 -10,10M0,622.6914558410645q10,0 10,-10V331.1641125M549.6719360351562,622.6914558410645q-10,0 -10,-10V331.1641125M0,622.6914558410645q10,0 10,10V1213.5313M549.6719360351562,622.6914558410645q-10,0 -10,10V1213.5313"></path><g transform="matrix(1,0,0,1,20,0)" class="regexp-matches"><path d="M0,321.1641125h10M509.67195,321.1641125H509.67193603515625M0,725.9843999999999h86.4141M423.257875,725.9843999999999H509.67193603515625M0,899.4843972412109h26.6485M478.023475,899.4843972412109H509.67193603515625M0,1025.9922h91.0938M403.57824999999997,1025.9922H509.67193603515625M0,1105.5079h66.5703M418.101575,1105.5079H509.67193603515625M0,1163.9297000000001h128.4219M381.250075,1163.9297000000001H509.67193603515625M0,1223.5313h128.41410000000002M391.257825,1223.5313H509.67193603515625"></path><g transform="matrix(1,0,0,1,0,0)" class="match"><path d="M324.15631103515625,321.1641125H359.1563M442.015675,321.1641125H467.0157"></path><g class="match-fragment subexp" transform="matrix(1,0,0,1,0,0)"><rect rx="3" ry="3" class="subexp-box" transform="matrix(1,0,0,1,0,11.0938)" width="334.15631103515625" height="620.140625"></rect><text x="0" y="0" transform="matrix(1,0,0,1,0,11.0938)" class="subexp-label"><tspan>group #1</tspan></text><g class="regexp" transform="matrix(1,0,0,1,10,21.0938)"><path d="M10,21.75q0,-10 10,-10M304.15631103515625,21.75q0,-10 -10,-10M10,50.25q0,-10 10,-10M304.15631103515625,50.25q0,-10 -10,-10M10,78.75q0,-10 10,-10M304.15631103515625,78.75q0,-10 -10,-10M10,107.25q0,-10 10,-10M304.15631103515625,107.25q0,-10 -10,-10M10,135.75q0,-10 10,-10M304.15631103515625,135.75q0,-10 -10,-10M10,164.2578125q0,-10 10,-10M304.15631103515625,164.2578125q0,-10 -10,-10M10,192.7656q0,-10 10,-10M304.15631103515625,192.7656q0,-10 -10,-10M10,221.2734125q0,-10 10,-10M304.15631103515625,221.2734125q0,-10 -10,-10M10,249.7813q0,-10 10,-10M304.15631103515625,249.7813q0,-10 -10,-10M10,278.2813q0,-10 10,-10M304.15631103515625,278.2813q0,-10 -10,-10M0,300.0703125c10,0 10,-3.2890125000000126 20,-3.2890125000000126M314.15631103515625,300.0703125c-10,0 -10,-3.2890125000000126 -20,-3.2890125000000126M10,315.2813q0,10 10,10M304.15631103515625,315.2813q0,10 -10,10M10,431.8828972412109q0,10 10,10M304.15631103515625,431.8828972412109q0,10 -10,10M10,568.3906q0,10 10,10M304.15631103515625,568.3906q0,10 -10,10M0,300.0703125q10,0 10,-10V21.75M314.15631103515625,300.0703125q-10,0 -10,-10V21.75M0,300.0703125q10,0 10,10V568.3906M314.15631103515625,300.0703125q-10,0 -10,10V568.3906"></path><g transform="matrix(1,0,0,1,20,0)" class="regexp-matches"><path d="M0,11.75h120.4219M153.7344,11.75H274.15631103515625M0,40.25h97.7344M176.4219,40.25H274.15631103515625M0,68.75h118.7578M155.398425,68.75H274.15631103515625M0,97.25h113.75M160.40625,97.25H274.15631103515625M0,125.75h116.75M157.40625,125.75H274.15631103515625M0,154.2578125h113.086M161.070375,154.2578125H274.15631103515625M0,182.7656h113.4141M160.74222500000002,182.7656H274.15631103515625M0,211.2734125h110.086M164.070375,211.2734125H274.15631103515625M0,239.7813h115.0782M159.07819999999998,239.7813H274.15631103515625M0,268.2813h108.4141M165.74222500000002,268.2813H274.15631103515625M0,296.7813h118.7578M155.398425,296.7813H274.15631103515625M0,325.2813h116.7578M157.398425,325.2813H274.15631103515625M0,441.8828972412109h10M264.1562957763672,441.8828972412109H274.15631103515625M0,578.3906h58.7891M215.36724999999998,578.3906H274.15631103515625"></path><g class="match match-fragment literal" transform="matrix(1,0,0,1,120.4219,0)"><g class="label"><rect width="33.3125" height="23.5" rx="3" ry="3"></rect><text x="0" y="0" transform="matrix(1,0,0,1,5,16.75)"><tspan class="quote">“</tspan><tspan>sql</tspan><tspan class="quote">”</tspan></text></g></g><g class="match match-fragment literal" transform="matrix(1,0,0,1,97.7344,28.5)"><g class="label"><rect width="78.6875" height="23.5" rx="3" ry="3"></rect><text x="0" y="0" transform="matrix(1,0,0,1,5,16.75)"><tspan class="quote">“</tspan><tspan>http header</tspan><tspan class="quote">”</tspan></text></g></g><g class="match match-fragment literal" transform="matrix(1,0,0,1,118.7578,57)"><g class="label"><rect width="36.640625" height="23.5" rx="3" ry="3"></rect><text x="0" y="0" transform="matrix(1,0,0,1,5,16.75)"><tspan class="quote">“</tspan><tspan>xxe</tspan><tspan class="quote">”</tspan></text></g></g><g class="match match-fragment literal" transform="matrix(1,0,0,1,113.75,85.5)"><g class="label"><rect width="46.65625" height="23.5" rx="3" ry="3"></rect><text x="0" y="0" transform="matrix(1,0,0,1,5,16.75)"><tspan class="quote">“</tspan><tspan>nosql</tspan><tspan class="quote">”</tspan></text></g></g><g class="match match-fragment literal" transform="matrix(1,0,0,1,116.75,114)"><g class="label"><rect width="40.65625" height="23.5" rx="3" ry="3"></rect><text x="0" y="0" transform="matrix(1,0,0,1,5,16.75)"><tspan class="quote">“</tspan><tspan>ldap</tspan><tspan class="quote">”</tspan></text></g></g><g class="match match-fragment literal" transform="matrix(1,0,0,1,113.086,142.5)"><g class="label"><rect width="47.984375" height="23.515625" rx="3" ry="3"></rect><text x="0" y="0" transform="matrix(1,0,0,1,5,16.7578)"><tspan class="quote">“</tspan><tspan>regex</tspan><tspan class="quote">”</tspan></text></g></g><g class="match match-fragment literal" transform="matrix(1,0,0,1,113.4141,171.0156)"><g class="label"><rect width="47.328125" height="23.5" rx="3" ry="3"></rect><text x="0" y="0" transform="matrix(1,0,0,1,5,16.75)"><tspan class="quote">“</tspan><tspan>xpath</tspan><tspan class="quote">”</tspan></text></g></g><g class="match match-fragment literal" transform="matrix(1,0,0,1,110.086,199.5156)"><g class="label"><rect width="53.984375" height="23.515625" rx="3" ry="3"></rect><text x="0" y="0" transform="matrix(1,0,0,1,5,16.7578)"><tspan class="quote">“</tspan><tspan>xquery</tspan><tspan class="quote">”</tspan></text></g></g><g class="match match-fragment literal" transform="matrix(1,0,0,1,115.0782,228.0313)"><g class="label"><rect width="44" height="23.5" rx="3" ry="3"></rect><text x="0" y="0" transform="matrix(1,0,0,1,5,16.75)"><tspan class="quote">“</tspan><tspan>code</tspan><tspan class="quote">”</tspan></text></g></g><g class="match match-fragment literal" transform="matrix(1,0,0,1,108.4141,256.5313)"><g class="label"><rect width="57.328125" height="23.5" rx="3" ry="3"></rect><text x="0" y="0" transform="matrix(1,0,0,1,5,16.75)"><tspan class="quote">“</tspan><tspan>queries</tspan><tspan class="quote">”</tspan></text></g></g><g class="match match-fragment literal" transform="matrix(1,0,0,1,118.7578,285.0313)"><g class="label"><rect width="36.640625" height="23.5" rx="3" ry="3"></rect><text x="0" y="0" transform="matrix(1,0,0,1,5,16.75)"><tspan class="quote">“</tspan><tspan>xml</tspan><tspan class="quote">”</tspan></text></g></g><g class="match match-fragment literal" transform="matrix(1,0,0,1,116.7578,313.5313)"><g class="label"><rect width="40.640625" height="23.5" rx="3" ry="3"></rect><text x="0" y="0" transform="matrix(1,0,0,1,5,16.75)"><tspan class="quote">“</tspan><tspan>html</tspan><tspan class="quote">”</tspan></text></g></g><g class="match match-fragment subexp" transform="matrix(1,0,0,1,0,342.0313)"><rect rx="3" ry="3" class="subexp-box" transform="matrix(1,0,0,1,0,11.0938)" width="274.1562957763672" height="177.51559448242188"></rect><text x="0" y="0" transform="matrix(1,0,0,1,0,11.0938)" class="subexp-label"><tspan>group #2</tspan></text><g transform="matrix(1,0,0,1,10,21.0938)" class="regexp"><path d="M10,21.75q0,-10 10,-10M244.1562957763672,21.75q0,-10 -10,-10M10,50.25q0,-10 10,-10M244.1562957763672,50.25q0,-10 -10,-10M0,78.75779724121094c10,0 10,0.0000027587890656377567 20,0.0000027587890656377567M254.1562957763672,78.75779724121094c-10,0 -10,0.0000027587890656377567 -20,0.0000027587890656377567M10,107.2656q0,10 10,10M244.1562957763672,107.2656q0,10 -10,10M10,135.7656q0,10 10,10M244.1562957763672,135.7656q0,10 -10,10M0,78.75779724121094q10,0 10,-10V21.75M254.1562957763672,78.75779724121094q-10,0 -10,-10V21.75M0,78.75779724121094q10,0 10,10V135.7656M254.1562957763672,78.75779724121094q-10,0 -10,10V135.7656"></path><g transform="matrix(1,0,0,1,20,0)" class="regexp-matches"><path d="M0,11.75h85.75M128.40625,11.75H214.1562957763672M0,40.25h90.086M124.070375,40.25H214.1562957763672M0,78.7578h0M214.1563,78.7578H214.1562957763672M0,117.2656h71.75M142.40625,117.2656H214.1562957763672M0,145.7656h86.7578M127.398425,145.7656H214.1562957763672"></path><g class="match match-fragment literal" transform="matrix(1,0,0,1,85.75,0)"><g class="label"><rect width="42.65625" height="23.5" rx="3" ry="3"></rect><text x="0" y="0" transform="matrix(1,0,0,1,5,16.75)"><tspan class="quote">“</tspan><tspan>shell</tspan><tspan class="quote">”</tspan></text></g></g><g class="match match-fragment literal" transform="matrix(1,0,0,1,90.086,28.5)"><g class="label"><rect width="33.984375" height="23.5" rx="3" ry="3"></rect><text x="0" y="0" transform="matrix(1,0,0,1,5,16.75)"><tspan class="quote">“</tspan><tspan>os </tspan><tspan class="quote">”</tspan></text></g></g><g class="match" transform="matrix(1,0,0,1,0,57)"><path d="M41.984375,21.757800000000003H66.9844M149.843775,21.7578125H174.8438"></path><g class="match-fragment literal" transform="matrix(1,0,0,1,0,10.0078)"><g class="label"><rect width="41.984375" height="23.5" rx="3" ry="3"></rect><text x="0" y="0" transform="matrix(1,0,0,1,5,16.75)"><tspan class="quote">“</tspan><tspan>oper</tspan><tspan class="quote">”</tspan></text></g></g><g class="match-fragment" transform="matrix(1,0,0,1,51.9844,0)"><path d="M0,21.7578125q10,0 10,-10v-1.7578125q0,-10 10,-10h72.859375q10,0 10,10v1.7578125q0,10 10,10M15,21.7578125q-10,0 -10,10v1.7578125q0,10 10,10h82.859375q10,0 10,-10v-1.7578125q0,-10 -10,-10M107.859375,36.7578125l5,-5m-5,5l-5,-5"></path><g transform="matrix(1,0,0,1,15,10)" class="any-character"><g class="label"><rect width="82.859375" height="23.515625"></rect><text x="0" y="0" transform="matrix(1,0,0,1,5,16.7578)"><tspan>any character</tspan></text></g></g></g><g class="match-fragment literal" transform="matrix(1,0,0,1,174.8438,10)"><g class="label"><rect width="39.3125" height="23.515625" rx="3" ry="3"></rect><text x="0" y="0" transform="matrix(1,0,0,1,5,16.7578)"><tspan class="quote">“</tspan><tspan> sys</tspan><tspan class="quote">”</tspan></text></g></g></g><g class="match match-fragment literal" transform="matrix(1,0,0,1,71.75,105.5156)"><g class="label"><rect width="70.65625" height="23.5" rx="3" ry="3"></rect><text x="0" y="0" transform="matrix(1,0,0,1,5,16.75)"><tspan class="quote">“</tspan><tspan>command</tspan><tspan class="quote">”</tspan></text></g></g><g class="match match-fragment literal" transform="matrix(1,0,0,1,86.7578,134.0156)"><g class="label"><rect width="40.640625" height="23.5" rx="3" ry="3"></rect><text x="0" y="0" transform="matrix(1,0,0,1,5,16.75)"><tspan class="quote">“</tspan><tspan>cmd</tspan><tspan class="quote">”</tspan></text></g></g></g></g></g><g transform="matrix(1,0,0,1,58.7891,535.5468)" class="match"><path d="M24.640625,42.8438H59.6406M81.60935,42.8438H116.6094"></path><g class="match-fragment literal" transform="matrix(1,0,0,1,0,31.0938)"><g class="label"><rect width="24.640625" height="23.5" rx="3" ry="3"></rect><text x="0" y="0" transform="matrix(1,0,0,1,5,16.75)"><tspan class="quote">“</tspan><tspan>e</tspan><tspan class="quote">”</tspan></text></g></g><g class="match-fragment" transform="matrix(1,0,0,1,34.6406,0)"><path d="M0,42.8438q10,0 10,-10v-22.75000040893555q0,-10 10,-10h31.96875q10,0 10,10v22.75000040893555q0,10 10,10"></path><g transform="matrix(1,0,0,1,15,10)" class="subexp"><rect rx="3" ry="3" class="subexp-box" transform="matrix(1,0,0,1,0,11.0938)" width="41.96875" height="43.5"></rect><text x="0" y="0" transform="matrix(1,0,0,1,0,11.0938)" class="subexp-label"><tspan>group #3</tspan></text><g transform="matrix(1,0,0,1,10,21.0938)" class="regexp match match-fragment literal"><g class="label"><rect width="21.96875" height="23.5" rx="3" ry="3"></rect><text x="0" y="0" transform="matrix(1,0,0,1,5,16.75)"><tspan class="quote">“</tspan><tspan>-</tspan><tspan class="quote">”</tspan></text></g></g></g></g><g class="match-fragment literal" transform="matrix(1,0,0,1,116.6094,31.0938)"><g class="label"><rect width="39.96875" height="23.5" rx="3" ry="3"></rect><text x="0" y="0" transform="matrix(1,0,0,1,5,16.75)"><tspan class="quote">“</tspan><tspan>mail</tspan><tspan class="quote">”</tspan></text></g></g></g></g></g></g><g class="match-fragment" transform="matrix(1,0,0,1,344.1563,299.4063)"><path d="M0,21.7578125q10,0 10,-10v-1.7578125q0,-10 10,-10h72.859375q10,0 10,10v1.7578125q0,10 10,10M15,21.7578125q-10,0 -10,10v1.7578125q0,10 10,10h82.859375q10,0 10,-10v-1.7578125q0,-10 -10,-10M107.859375,36.7578125l5,-5m-5,5l-5,-5"></path><g class="any-character" transform="matrix(1,0,0,1,15,10)"><g class="label"><rect width="82.859375" height="23.515625"></rect><text x="0" y="0" transform="matrix(1,0,0,1,5,16.7578)"><tspan>any character</tspan></text></g></g></g><g class="match-fragment literal" transform="matrix(1,0,0,1,467.0157,309.4063)"><g class="label"><rect width="42.65625" height="23.515625" rx="3" ry="3"></rect><text x="0" y="0" transform="matrix(1,0,0,1,5,16.7578)"><tspan class="quote">“</tspan><tspan>injec</tspan><tspan class="quote">”</tspan></text></g></g></g><g transform="matrix(1,0,0,1,76.4141,636.1406)" class="match"><path d="M108,89.8438H143M225.859375,89.8438125H260.8594"></path><g class="match-fragment subexp" transform="matrix(1,0,0,1,0,0)"><rect rx="3" ry="3" class="subexp-box" transform="matrix(1,0,0,1,0,11.0938)" width="118" height="157.5"></rect><text x="0" y="0" transform="matrix(1,0,0,1,0,11.0938)" class="subexp-label"><tspan>group #4</tspan></text><g transform="matrix(1,0,0,1,10,21.0938)" class="regexp"><path d="M10,21.75q0,-10 10,-10M88,21.75q0,-10 -10,-10M10,50.25q0,-10 10,-10M88,50.25q0,-10 -10,-10M0,68.75c10,0 10,0 20,0M98,68.75c-10,0 -10,0 -20,0M10,87.25q0,10 10,10M88,87.25q0,10 -10,10M10,115.75q0,10 10,10M88,115.75q0,10 -10,10M0,68.75q10,0 10,-10V21.75M98,68.75q-10,0 -10,-10V21.75M0,68.75q10,0 10,10V115.75M98,68.75q-10,0 -10,10V115.75"></path><g transform="matrix(1,0,0,1,20,0)" class="regexp-matches"><path d="M0,11.75h5.3359M52.664025,11.75H58M0,40.25h14.0156M43.98435,40.25H58M0,68.75h0M58,68.75H58M0,97.25h5M53,97.25H58M0,125.75h1.6719M56.32815,125.75H58"></path><g class="match match-fragment literal" transform="matrix(1,0,0,1,5.3359,0)"><g class="label"><rect width="47.328125" height="23.5" rx="3" ry="3"></rect><text x="0" y="0" transform="matrix(1,0,0,1,5,16.75)"><tspan class="quote">“</tspan><tspan>patch</tspan><tspan class="quote">”</tspan></text></g></g><g class="match match-fragment literal" transform="matrix(1,0,0,1,14.0156,28.5)"><g class="label"><rect width="29.96875" height="23.5" rx="3" ry="3"></rect><text x="0" y="0" transform="matrix(1,0,0,1,5,16.75)"><tspan class="quote">“</tspan><tspan>fix</tspan><tspan class="quote">”</tspan></text></g></g><g class="match match-fragment literal" transform="matrix(1,0,0,1,0,57)"><g class="label"><rect width="58" height="23.5" rx="3" ry="3"></rect><text x="0" y="0" transform="matrix(1,0,0,1,5,16.75)"><tspan class="quote">“</tspan><tspan>prevent</tspan><tspan class="quote">”</tspan></text></g></g><g class="match match-fragment literal" transform="matrix(1,0,0,1,5,85.5)"><g class="label"><rect width="48" height="23.5" rx="3" ry="3"></rect><text x="0" y="0" transform="matrix(1,0,0,1,5,16.75)"><tspan class="quote">“</tspan><tspan>found</tspan><tspan class="quote">”</tspan></text></g></g><g class="match match-fragment literal" transform="matrix(1,0,0,1,1.6719,114)"><g class="label"><rect width="54.65625" height="23.5" rx="3" ry="3"></rect><text x="0" y="0" transform="matrix(1,0,0,1,5,16.75)"><tspan class="quote">“</tspan><tspan>protect</tspan><tspan class="quote">”</tspan></text></g></g></g></g></g><g class="match-fragment" transform="matrix(1,0,0,1,128,68.086)"><path d="M0,21.7578125q10,0 10,-10v-1.7578125q0,-10 10,-10h72.859375q10,0 10,10v1.7578125q0,10 10,10M15,21.7578125q-10,0 -10,10v1.7578125q0,10 10,10h82.859375q10,0 10,-10v-1.7578125q0,-10 -10,-10M107.859375,36.7578125l5,-5m-5,5l-5,-5"></path><g class="any-character" transform="matrix(1,0,0,1,15,10)"><g class="label"><rect width="82.859375" height="23.515625"></rect><text x="0" y="0" transform="matrix(1,0,0,1,5,16.7578)"><tspan>any character</tspan></text></g></g></g><g class="match-fragment subexp" transform="matrix(1,0,0,1,250.8594,28.4922)"><rect rx="3" ry="3" class="subexp-box" transform="matrix(1,0,0,1,0,11.0938)" width="105.984375" height="100.51559448242188"></rect><text x="0" y="0" transform="matrix(1,0,0,1,0,11.0938)" class="subexp-label"><tspan>group #5</tspan></text><g transform="matrix(1,0,0,1,10,21.0938)" class="regexp"><path d="M10,21.7578125q0,-10 10,-10M75.984375,21.7578125q0,-10 -10,-10M0,40.25779724121094c10,0 10,0.00780275878906167 20,0.00780275878906167M85.984375,40.25779724121094c-10,0 -10,0.00780275878906167 -20,0.00780275878906167M10,58.765600000000006q0,10 10,10M75.984375,58.765600000000006q0,10 -10,10M0,40.25779724121094q10,0 10,-10V21.7578125M85.984375,40.25779724121094q-10,0 -10,-10V21.7578125M0,40.25779724121094q10,0 10,10V58.765600000000006M85.984375,40.25779724121094q-10,0 -10,10V58.765600000000006"></path><g transform="matrix(1,0,0,1,20,0)" class="regexp-matches"><path d="M0,11.7578125h1.6641M44.32035,11.7578125H45.984375M0,40.2656h1.6719M44.312525,40.2656H45.984375M0,68.7656h0M45.984375,68.7656H45.984375"></path><g class="match match-fragment literal" transform="matrix(1,0,0,1,1.6641,0)"><g class="label"><rect width="42.65625" height="23.515625" rx="3" ry="3"></rect><text x="0" y="0" transform="matrix(1,0,0,1,5,16.7578)"><tspan class="quote">“</tspan><tspan>injec</tspan><tspan class="quote">”</tspan></text></g></g><g class="match match-fragment literal" transform="matrix(1,0,0,1,1.6719,28.5156)"><g class="label"><rect width="42.640625" height="23.5" rx="3" ry="3"></rect><text x="0" y="0" transform="matrix(1,0,0,1,5,16.75)"><tspan class="quote">“</tspan><tspan> sqli </tspan><tspan class="quote">”</tspan></text></g></g><g class="match match-fragment literal" transform="matrix(1,0,0,1,0,57.0156)"><g class="label"><rect width="45.984375" height="23.5" rx="3" ry="3"></rect><text x="0" y="0" transform="matrix(1,0,0,1,5,16.75)"><tspan class="quote">“</tspan><tspan> osci </tspan><tspan class="quote">”</tspan></text></g></g></g></g></g></g><g transform="matrix(1,0,0,1,16.6485,809.6406)" class="match"><path d="M92.65625,89.84379724121094H127.6563M210.515675,89.8438125H245.5156M343.5156,89.8438H378.5156"></path><g class="match-fragment subexp" transform="matrix(1,0,0,1,0,28.4922)"><rect rx="3" ry="3" class="subexp-box" transform="matrix(1,0,0,1,0,11.0938)" width="102.65625" height="100.51559448242188"></rect><text x="0" y="0" transform="matrix(1,0,0,1,0,11.0938)" class="subexp-label"><tspan>group #6</tspan></text><g transform="matrix(1,0,0,1,10,21.0938)" class="regexp"><path d="M10,21.7578125q0,-10 10,-10M72.65625,21.7578125q0,-10 -10,-10M0,40.25779724121094c10,0 10,0.00780275878906167 20,0.00780275878906167M82.65625,40.25779724121094c-10,0 -10,0.00780275878906167 -20,0.00780275878906167M10,58.765600000000006q0,10 10,10M72.65625,58.765600000000006q0,10 -10,10M0,40.25779724121094q10,0 10,-10V21.7578125M82.65625,40.25779724121094q-10,0 -10,-10V21.7578125M0,40.25779724121094q10,0 10,10V58.765600000000006M82.65625,40.25779724121094q-10,0 -10,10V58.765600000000006"></path><g transform="matrix(1,0,0,1,20,0)" class="regexp-matches"><path d="M0,11.7578125h0M42.65625,11.7578125H42.65625M0,40.2656h1.6719M40.9844,40.2656H42.65625M0,68.7656h0.0078M42.648425,68.7656H42.65625"></path><g class="match match-fragment literal" transform="matrix(1,0,0,1,0,0)"><g class="label"><rect width="42.65625" height="23.515625" rx="3" ry="3"></rect><text x="0" y="0" transform="matrix(1,0,0,1,5,16.7578)"><tspan class="quote">“</tspan><tspan>injec</tspan><tspan class="quote">”</tspan></text></g></g><g class="match match-fragment literal" transform="matrix(1,0,0,1,1.6719,28.5156)"><g class="label"><rect width="39.3125" height="23.5" rx="3" ry="3"></rect><text x="0" y="0" transform="matrix(1,0,0,1,5,16.75)"><tspan class="quote">“</tspan><tspan>sqli </tspan><tspan class="quote">”</tspan></text></g></g><g class="match match-fragment literal" transform="matrix(1,0,0,1,0.0078,57.0156)"><g class="label"><rect width="42.640625" height="23.5" rx="3" ry="3"></rect><text x="0" y="0" transform="matrix(1,0,0,1,5,16.75)"><tspan class="quote">“</tspan><tspan>osci </tspan><tspan class="quote">”</tspan></text></g></g></g></g></g><g class="match-fragment" transform="matrix(1,0,0,1,112.6563,68.086)"><path d="M0,21.7578125q10,0 10,-10v-1.7578125q0,-10 10,-10h72.859375q10,0 10,10v1.7578125q0,10 10,10M15,21.7578125q-10,0 -10,10v1.7578125q0,10 10,10h82.859375q10,0 10,-10v-1.7578125q0,-10 -10,-10M107.859375,36.7578125l5,-5m-5,5l-5,-5"></path><g class="any-character" transform="matrix(1,0,0,1,15,10)"><g class="label"><rect width="82.859375" height="23.515625"></rect><text x="0" y="0" transform="matrix(1,0,0,1,5,16.7578)"><tspan>any character</tspan></text></g></g></g><g class="match-fragment subexp" transform="matrix(1,0,0,1,235.5156,0)"><rect rx="3" ry="3" class="subexp-box" transform="matrix(1,0,0,1,0,11.0938)" width="118" height="157.5"></rect><text x="0" y="0" transform="matrix(1,0,0,1,0,11.0938)" class="subexp-label"><tspan>group #7</tspan></text><g transform="matrix(1,0,0,1,10,21.0938)" class="regexp"><path d="M10,21.75q0,-10 10,-10M88,21.75q0,-10 -10,-10M10,50.25q0,-10 10,-10M88,50.25q0,-10 -10,-10M0,68.75c10,0 10,0 20,0M98,68.75c-10,0 -10,0 -20,0M10,87.25q0,10 10,10M88,87.25q0,10 -10,10M10,115.75q0,10 10,10M88,115.75q0,10 -10,10M0,68.75q10,0 10,-10V21.75M98,68.75q-10,0 -10,-10V21.75M0,68.75q10,0 10,10V115.75M98,68.75q-10,0 -10,10V115.75"></path><g transform="matrix(1,0,0,1,20,0)" class="regexp-matches"><path d="M0,11.75h5.3359M52.664025,11.75H58M0,40.25h14.0156M43.98435,40.25H58M0,68.75h0M58,68.75H58M0,97.25h5M53,97.25H58M0,125.75h1.6719M56.32815,125.75H58"></path><g class="match match-fragment literal" transform="matrix(1,0,0,1,5.3359,0)"><g class="label"><rect width="47.328125" height="23.5" rx="3" ry="3"></rect><text x="0" y="0" transform="matrix(1,0,0,1,5,16.75)"><tspan class="quote">“</tspan><tspan>patch</tspan><tspan class="quote">”</tspan></text></g></g><g class="match match-fragment literal" transform="matrix(1,0,0,1,14.0156,28.5)"><g class="label"><rect width="29.96875" height="23.5" rx="3" ry="3"></rect><text x="0" y="0" transform="matrix(1,0,0,1,5,16.75)"><tspan class="quote">“</tspan><tspan>fix</tspan><tspan class="quote">”</tspan></text></g></g><g class="match match-fragment literal" transform="matrix(1,0,0,1,0,57)"><g class="label"><rect width="58" height="23.5" rx="3" ry="3"></rect><text x="0" y="0" transform="matrix(1,0,0,1,5,16.75)"><tspan class="quote">“</tspan><tspan>prevent</tspan><tspan class="quote">”</tspan></text></g></g><g class="match match-fragment literal" transform="matrix(1,0,0,1,5,85.5)"><g class="label"><rect width="48" height="23.5" rx="3" ry="3"></rect><text x="0" y="0" transform="matrix(1,0,0,1,5,16.75)"><tspan class="quote">“</tspan><tspan>found</tspan><tspan class="quote">”</tspan></text></g></g><g class="match match-fragment literal" transform="matrix(1,0,0,1,1.6719,114)"><g class="label"><rect width="54.65625" height="23.5" rx="3" ry="3"></rect><text x="0" y="0" transform="matrix(1,0,0,1,5,16.75)"><tspan class="quote">“</tspan><tspan>protect</tspan><tspan class="quote">”</tspan></text></g></g></g></g></g><g class="match-fragment" transform="matrix(1,0,0,1,363.5156,68.086)"><path d="M0,21.7578125q10,0 10,-10v-1.7578125q0,-10 10,-10h72.859375q10,0 10,10v1.7578125q0,10 10,10M15,21.7578125q-10,0 -10,10v1.7578125q0,10 10,10h82.859375q10,0 10,-10v-1.7578125q0,-10 -10,-10M107.859375,36.7578125l5,-5m-5,5l-5,-5"></path><g class="any-character" transform="matrix(1,0,0,1,15,10)"><g class="label"><rect width="82.859375" height="23.515625"></rect><text x="0" y="0" transform="matrix(1,0,0,1,5,16.7578)"><tspan>any character</tspan></text></g></g></g></g><g transform="matrix(1,0,0,1,81.0938,983.1406)" class="match"><path d="M169.843775,42.851600000000005H204.8438M263.515675,42.851600000000005H298.5157"></path><g class="match-fragment subexp" transform="matrix(1,0,0,1,0,0)"><rect rx="3" ry="3" class="subexp-box" transform="matrix(1,0,0,1,0,11.0938)" width="194.84378051757812" height="63.515625"></rect><text x="0" y="0" transform="matrix(1,0,0,1,0,11.0938)" class="subexp-label"><tspan>group #8</tspan></text><g transform="matrix(1,0,0,1,10,21.0938)" class="regexp match"><path d="M51.984375,21.757800000000003H76.9844"></path><g class="match-fragment literal" transform="matrix(1,0,0,1,0,10.0078)"><g class="label"><rect width="51.984375" height="23.5" rx="3" ry="3"></rect><text x="0" y="0" transform="matrix(1,0,0,1,5,16.75)"><tspan class="quote">“</tspan><tspan>sanitiz</tspan><tspan class="quote">”</tspan></text></g></g><g class="match-fragment" transform="matrix(1,0,0,1,61.9844,0)"><path d="M0,21.7578125q10,0 10,-10v-1.7578125q0,-10 10,-10h72.859375q10,0 10,10v1.7578125q0,10 10,10M15,21.7578125q-10,0 -10,10v1.7578125q0,10 10,10h82.859375q10,0 10,-10v-1.7578125q0,-10 -10,-10M107.859375,36.7578125l5,-5m-5,5l-5,-5"></path><g class="any-character" transform="matrix(1,0,0,1,15,10)"><g class="label"><rect width="82.859375" height="23.515625"></rect><text x="0" y="0" transform="matrix(1,0,0,1,5,16.7578)"><tspan>any character</tspan></text></g></g></g></g></g><g class="match-fragment literal" transform="matrix(1,0,0,1,204.8438,31.1016)"><g class="label"><rect width="58.671875" height="23.5" rx="3" ry="3"></rect><text x="0" y="0" transform="matrix(1,0,0,1,5,16.75)"><tspan class="quote">“</tspan><tspan> header</tspan><tspan class="quote">”</tspan></text></g></g><g class="match-fragment" transform="matrix(1,0,0,1,273.5157,0.0078)"><path d="M0,42.8438q10,0 10,-10v-22.75000040893555q0,-10 10,-10h33.96875q10,0 10,10v22.75000040893555q0,10 10,10"></path><g class="subexp" transform="matrix(1,0,0,1,15,10)"><rect rx="3" ry="3" class="subexp-box" transform="matrix(1,0,0,1,0,11.0938)" width="43.96875" height="43.5"></rect><text x="0" y="0" transform="matrix(1,0,0,1,0,11.0938)" class="subexp-label"><tspan>group #9</tspan></text><g class="regexp match match-fragment literal" transform="matrix(1,0,0,1,10,21.0938)"><g class="label"><rect width="23.96875" height="23.5" rx="3" ry="3"></rect><text x="0" y="0" transform="matrix(1,0,0,1,5,16.75)"><tspan class="quote">“</tspan><tspan>s</tspan><tspan class="quote">”</tspan></text></g></g></g></g></g><g transform="matrix(1,0,0,1,66.5703,1062.6563)" class="match"><path d="M55.34375,42.851600000000005H90.8751M114.84385,42.851600000000005H150.375M171.6875,42.851600000000005H191.6875"></path><g class="match-fragment literal" transform="matrix(1,0,0,1,0,31.1016)"><g class="label"><rect width="55.34375" height="23.5" rx="3" ry="3"></rect><text x="0" y="0" transform="matrix(1,0,0,1,5,16.75)"><tspan class="quote">“</tspan><tspan>header</tspan><tspan class="quote">”</tspan></text></g></g><g class="match-fragment" transform="matrix(1,0,0,1,65.3438,0.0078)"><path d="M0,42.8438q10,0 10,-10v-22.75000040893555q0,-10 10,-10h35.03125q10,0 10,10v22.75000040893555q0,10 10,10"></path><g class="subexp" transform="matrix(1,0,0,1,15,10)"><rect rx="3" ry="3" class="subexp-box" transform="matrix(1,0,0,1,0,11.0938)" width="45.03125" height="43.5"></rect><text x="0" y="0" transform="matrix(1,0,0,1,0,11.0938)" class="subexp-label"><tspan>group #10</tspan></text><g class="regexp match match-fragment literal" transform="matrix(1,0,0,1,10.5313,21.0938)"><g class="label"><rect width="23.96875" height="23.5" rx="3" ry="3"></rect><text x="0" y="0" transform="matrix(1,0,0,1,5,16.75)"><tspan class="quote">“</tspan><tspan>s</tspan><tspan class="quote">”</tspan></text></g></g></g></g><g class="match-fragment literal" transform="matrix(1,0,0,1,150.375,31.1016)"><g class="label"><rect width="21.3125" height="23.5" rx="3" ry="3"></rect><text x="0" y="0" transform="matrix(1,0,0,1,5,16.75)"><tspan class="quote">“</tspan><tspan> </tspan><tspan class="quote">”</tspan></text></g></g><g class="match-fragment subexp" transform="matrix(1,0,0,1,181.6875,0)"><rect rx="3" ry="3" class="subexp-box" transform="matrix(1,0,0,1,0,11.0938)" width="194.84378051757812" height="63.515625"></rect><text x="0" y="0" transform="matrix(1,0,0,1,0,11.0938)" class="subexp-label"><tspan>group #11</tspan></text><g transform="matrix(1,0,0,1,10,21.0938)" class="regexp match"><path d="M51.984375,21.757800000000003H76.9844"></path><g class="match-fragment literal" transform="matrix(1,0,0,1,0,10.0078)"><g class="label"><rect width="51.984375" height="23.5" rx="3" ry="3"></rect><text x="0" y="0" transform="matrix(1,0,0,1,5,16.75)"><tspan class="quote">“</tspan><tspan>sanitiz</tspan><tspan class="quote">”</tspan></text></g></g><g class="match-fragment" transform="matrix(1,0,0,1,61.9844,0)"><path d="M0,21.7578125q10,0 10,-10v-1.7578125q0,-10 10,-10h72.859375q10,0 10,10v1.7578125q0,10 10,10M15,21.7578125q-10,0 -10,10v1.7578125q0,10 10,10h82.859375q10,0 10,-10v-1.7578125q0,-10 -10,-10M107.859375,36.7578125l5,-5m-5,5l-5,-5"></path><g class="any-character" transform="matrix(1,0,0,1,15,10)"><g class="label"><rect width="82.859375" height="23.515625"></rect><text x="0" y="0" transform="matrix(1,0,0,1,5,16.7578)"><tspan>any character</tspan></text></g></g></g></g></g></g><g transform="matrix(1,0,0,1,128.4219,1142.1719)" class="match"><path d="M41.984375,21.757800000000003H66.9844M149.843775,21.7578125H174.8438"></path><g class="match-fragment literal" transform="matrix(1,0,0,1,0,10.0078)"><g class="label"><rect width="41.984375" height="23.5" rx="3" ry="3"></rect><text x="0" y="0" transform="matrix(1,0,0,1,5,16.75)"><tspan class="quote">“</tspan><tspan>quer</tspan><tspan class="quote">”</tspan></text></g></g><g class="match-fragment" transform="matrix(1,0,0,1,51.9844,0)"><path d="M0,21.7578125q10,0 10,-10v-1.7578125q0,-10 10,-10h72.859375q10,0 10,10v1.7578125q0,10 10,10M15,21.7578125q-10,0 -10,10v1.7578125q0,10 10,10h82.859375q10,0 10,-10v-1.7578125q0,-10 -10,-10M107.859375,36.7578125l5,-5m-5,5l-5,-5"></path><g class="any-character" transform="matrix(1,0,0,1,15,10)"><g class="label"><rect width="82.859375" height="23.515625"></rect><text x="0" y="0" transform="matrix(1,0,0,1,5,16.7578)"><tspan>any character</tspan></text></g></g></g><g class="match-fragment literal" transform="matrix(1,0,0,1,174.8438,10.0078)"><g class="label"><rect width="77.984375" height="23.5" rx="3" ry="3"></rect><text x="0" y="0" transform="matrix(1,0,0,1,5,16.75)"><tspan class="quote">“</tspan><tspan> parametriz</tspan><tspan class="quote">”</tspan></text></g></g></g><g transform="matrix(1,0,0,1,118.4141,1190.6875)" class="match"><path d="M84.65625,32.8438H119.6563M202.515675,32.8438125H227.5156"></path><g class="match-fragment subexp" transform="matrix(1,0,0,1,0,0)"><rect rx="3" ry="3" class="subexp-box" transform="matrix(1,0,0,1,0,11.0938)" width="94.65625" height="43.5"></rect><text x="0" y="0" transform="matrix(1,0,0,1,0,11.0938)" class="subexp-label"><tspan>group #12</tspan></text><g class="regexp match match-fragment literal" transform="matrix(1,0,0,1,10,21.0938)"><g class="label"><rect width="74.65625" height="23.5" rx="3" ry="3"></rect><text x="0" y="0" transform="matrix(1,0,0,1,5,16.75)"><tspan class="quote">“</tspan><tspan>parametriz</tspan><tspan class="quote">”</tspan></text></g></g></g><g class="match-fragment" transform="matrix(1,0,0,1,104.6563,11.086)"><path d="M0,21.7578125q10,0 10,-10v-1.7578125q0,-10 10,-10h72.859375q10,0 10,10v1.7578125q0,10 10,10M15,21.7578125q-10,0 -10,10v1.7578125q0,10 10,10h82.859375q10,0 10,-10v-1.7578125q0,-10 -10,-10M107.859375,36.7578125l5,-5m-5,5l-5,-5"></path><g class="any-character" transform="matrix(1,0,0,1,15,10)"><g class="label"><rect width="82.859375" height="23.515625"></rect><text x="0" y="0" transform="matrix(1,0,0,1,5,16.7578)"><tspan>any character</tspan></text></g></g></g><g class="match-fragment literal" transform="matrix(1,0,0,1,227.5156,21.0938)"><g class="label"><rect width="45.328125" height="23.5" rx="3" ry="3"></rect><text x="0" y="0" transform="matrix(1,0,0,1,5,16.75)"><tspan class="quote">“</tspan><tspan> quer</tspan><tspan class="quote">”</tspan></text></g></g></g></g></g><path d="M10,622.6914558410645H0M559.6719360351562,622.6914558410645H569.6719360351562"></path><circle cx="0" cy="622.6914558410645" r="5"></circle><circle cx="569.6719360351562" cy="622.6914558410645" r="5"></circle></g></svg>
          