
            <svg xmlns="http://www.w3.org/2000/svg" xmlns:cc="http://creativecommons.org/ns#" xmlns:rdf="http://www.w3.org/1999/02/22-rdf-syntax-ns#" version="1.1" width="676.140625" height="832.0157470703125">
              <defs>
                <style type="text/css">svg{background-color:#fff}text,tspan{font:12px Arial}path{fill-opacity:0;stroke-width:2px;stroke:#000}circle{fill:#6b6659;stroke-width:2px;stroke:#000}.anchor text,.any-character text{fill:#fff}.anchor rect,.any-character rect{fill:#6b6659}.escape text,.charset-escape text,.literal text{fill:#000}.escape rect,.charset-escape rect{fill:#bada55}.literal rect{fill:#dae9e5}.charset .charset-box{fill:#cbcbba}.subexp .subexp-label tspan,.charset .charset-label tspan,.match-fragment .repeat-label tspan{font-size:10px}.repeat-label{cursor:help}.subexp .subexp-label tspan,.charset .charset-label tspan{dominant-baseline:text-after-edge}.subexp .subexp-box{stroke:#908c83;stroke-dasharray:6,2;stroke-width:2px;fill-opacity:0}.quote{fill:#908c83}
          </style>
              </defs>
              <metadata>
                <rdf:rdf>
                  <cc:license rdf:about="http://creativecommons.org/licenses/by/3.0/">
                    <cc:permits rdf:resource="http://creativecommons.org/ns#Reproduction"></cc:permits>
                    <cc:permits rdf:resource="http://creativecommons.org/ns#Distribution"></cc:permits>
                    <cc:requires rdf:resource="http://creativecommons.org/ns#Notice"></cc:requires>
                    <cc:requires rdf:resource="http://creativecommons.org/ns#Attribution"></cc:requires>
                    <cc:permits rdf:resource="http://creativecommons.org/ns#DerivativeWorks"></cc:permits>
                  </cc:license>
                </rdf:rdf>
              </metadata>
            <desc>Created with Snap</desc><g class="root" transform="matrix(1,0,0,1,15,5.75)"><g class="regexp" transform="matrix(1,0,0,1,10,0)"><path d="M10,185.00788749999998q0,-10 10,-10M616.140625,185.00788749999998q0,-10 -10,-10M10,504.5860375q0,10 10,10M616.140625,504.5860375q0,10 -10,10M10,680.8673375q0,10 10,10M616.140625,680.8673375q0,10 -10,10M10,709.2891375q0,10 10,10M616.140625,709.2891375q0,10 -10,10M10,737.7110375q0,10 10,10M616.140625,737.7110375q0,10 -10,10M10,766.1329375q0,10 10,10M616.140625,766.1329375q0,10 -10,10M10,794.5548375q0,10 10,10M616.140625,794.5548375q0,10 -10,10M0,410.25787353515625q10,0 10,-10V185.00788749999998M626.140625,410.25787353515625q-10,0 -10,-10V185.00788749999998M0,410.25787353515625q10,0 10,10V794.5548375M626.140625,410.25787353515625q-10,0 -10,10V794.5548375"></path><g class="regexp-matches" transform="matrix(1,0,0,1,20,0)"><path d="M0,175.00788749999998h25.664M560.47655,175.00788749999998H586.140625M0,514.5860375h0M576.14065,514.5860375H586.140625M0,690.8673375h261.0547M325.08595,690.8673375H586.140625M0,719.2891375h268.0625M318.078125,719.2891375H586.140625M0,747.7110375h272.7344M313.406275,747.7110375H586.140625M0,776.1329375h272.3984M313.74215,776.1329375H586.140625M0,804.5548375h271.4063M314.734425,804.5548375H586.140625"></path><g class="match" transform="matrix(1,0,0,1,15.664,0)"><path d="M108.03125,175.00788749999998H143.0313M225.734425,175.0078375H250.7344M298.07815,175.0078375H323.0781M405.781225,175.0078375H440.7813"></path><g class="match-fragment subexp" transform="matrix(1,0,0,1,0,85.2657)"><rect class="subexp-box" rx="3" ry="3" transform="matrix(1,0,0,1,0,11.1875)" width="118.03125" height="157.109375"></rect><text x="0" y="0" class="subexp-label" transform="matrix(1,0,0,1,0,11.1875)"><tspan>group #1</tspan></text><g class="regexp" transform="matrix(1,0,0,1,10,21.1875)"><path d="M10,21.7109375q0,-10 10,-10M88.03125,21.7109375q0,-10 -10,-10M10,50.1328375q0,-10 10,-10M88.03125,50.1328375q0,-10 -10,-10M0,68.5546875c10,0 10,0.00005000000000165983 20,0.00005000000000165983M98.03125,68.5546875c-10,0 -10,0.00005000000000165983 -20,0.00005000000000165983M10,86.9765375q0,10 10,10M88.03125,86.9765375q0,10 -10,10M10,115.3984375q0,10 10,10M88.03125,115.3984375q0,10 -10,10M0,68.5546875q10,0 10,-10V21.7109375M98.03125,68.5546875q-10,0 -10,-10V21.7109375M0,68.5546875q10,0 10,10V115.3984375M98.03125,68.5546875q-10,0 -10,10V115.3984375"></path><g class="regexp-matches" transform="matrix(1,0,0,1,20,0)"><path d="M0,11.7109375h14.0156M44.0156,11.7109375H58.03125M0,40.1328375h5M53.03125,40.1328375H58.03125M0,68.5547375h0M58.03125,68.5547375H58.03125M0,96.9765375h1.6719M56.3594,96.9765375H58.03125M0,125.3984375h5.3359M52.695275,125.3984375H58.03125"></path><g class="match match-fragment literal" transform="matrix(1,0,0,1,14.0156,0)"><g class="label"><rect width="30" height="23.421875" rx="3" ry="3"></rect><text x="0" y="0" transform="matrix(1,0,0,1,5,16.7109)"><tspan class="quote">“</tspan><tspan>fix</tspan><tspan class="quote">”</tspan></text></g></g><g class="match match-fragment literal" transform="matrix(1,0,0,1,5,28.4219)"><g class="label"><rect width="48.03125" height="23.421875" rx="3" ry="3"></rect><text x="0" y="0" transform="matrix(1,0,0,1,5,16.7109)"><tspan class="quote">“</tspan><tspan>found</tspan><tspan class="quote">”</tspan></text></g></g><g class="match match-fragment literal" transform="matrix(1,0,0,1,0,56.8438)"><g class="label"><rect width="58.03125" height="23.421875" rx="3" ry="3"></rect><text x="0" y="0" transform="matrix(1,0,0,1,5,16.7109)"><tspan class="quote">“</tspan><tspan>prevent</tspan><tspan class="quote">”</tspan></text></g></g><g class="match match-fragment literal" transform="matrix(1,0,0,1,1.6719,85.2656)"><g class="label"><rect width="54.6875" height="23.421875" rx="3" ry="3"></rect><text x="0" y="0" transform="matrix(1,0,0,1,5,16.7109)"><tspan class="quote">“</tspan><tspan>protect</tspan><tspan class="quote">”</tspan></text></g></g><g class="match match-fragment literal" transform="matrix(1,0,0,1,5.3359,113.6875)"><g class="label"><rect width="47.359375" height="23.421875" rx="3" ry="3"></rect><text x="0" y="0" transform="matrix(1,0,0,1,5,16.7109)"><tspan class="quote">“</tspan><tspan>patch</tspan><tspan class="quote">”</tspan></text></g></g></g></g></g><g class="match-fragment" transform="matrix(1,0,0,1,128.0313,153.2969)"><path d="M0,21.7109375q10,0 10,-10v-1.7109375q0,-10 10,-10h72.703125q10,0 10,10v1.7109375q0,10 10,10M15,21.7109375q-10,0 -10,10v1.7109375q0,10 10,10h82.703125q10,0 10,-10v-1.7109375q0,-10 -10,-10M107.703125,36.7109375l5,-5m-5,5l-5,-5"></path><g class="any-character" transform="matrix(1,0,0,1,15,10)"><g class="label"><rect width="82.703125" height="23.421875"></rect><text x="0" y="0" transform="matrix(1,0,0,1,5,16.7109)"><tspan>any character</tspan></text></g></g></g><g class="match-fragment literal" transform="matrix(1,0,0,1,250.7344,163.2969)"><g class="label"><rect width="47.34375" height="23.421875" rx="3" ry="3"></rect><text x="0" y="0" transform="matrix(1,0,0,1,5,16.7109)"><tspan class="quote">“</tspan><tspan>secur</tspan><tspan class="quote">”</tspan></text></g></g><g class="match-fragment" transform="matrix(1,0,0,1,308.0781,153.2969)"><path d="M0,21.7109375q10,0 10,-10v-1.7109375q0,-10 10,-10h72.703125q10,0 10,10v1.7109375q0,10 10,10M15,21.7109375q-10,0 -10,10v1.7109375q0,10 10,10h82.703125q10,0 10,-10v-1.7109375q0,-10 -10,-10M107.703125,36.7109375l5,-5m-5,5l-5,-5"></path><g class="any-character" transform="matrix(1,0,0,1,15,10)"><g class="label"><rect width="82.703125" height="23.421875"></rect><text x="0" y="0" transform="matrix(1,0,0,1,5,16.7109)"><tspan>any character</tspan></text></g></g></g><g class="match-fragment subexp" transform="matrix(1,0,0,1,430.7813,0)"><rect class="subexp-box" rx="3" ry="3" transform="matrix(1,0,0,1,0,11.1875)" width="124.03125" height="327.64068603515625"></rect><text x="0" y="0" class="subexp-label" transform="matrix(1,0,0,1,0,11.1875)"><tspan>group #2</tspan></text><g class="regexp" transform="matrix(1,0,0,1,10,21.1875)"><path d="M10,21.7109375q0,-10 10,-10M94.03125,21.7109375q0,-10 -10,-10M10,50.1328375q0,-10 10,-10M94.03125,50.1328375q0,-10 -10,-10M10,78.5547375q0,-10 10,-10M94.03125,78.5547375q0,-10 -10,-10M10,106.9765375q0,-10 10,-10M94.03125,106.9765375q0,-10 -10,-10M10,135.3984375q0,-10 10,-10M94.03125,135.3984375q0,-10 -10,-10M0,153.82034301757812c10,0 10,-0.0000055175781312755134 20,-0.0000055175781312755134M104.03125,153.82034301757812c-10,0 -10,-0.0000055175781312755134 -20,-0.0000055175781312755134M10,172.2422375q0,10 10,10M94.03125,172.2422375q0,10 -10,10M10,200.6640375q0,10 10,10M94.03125,200.6640375q0,10 -10,10M10,229.0859375q0,10 10,10M94.03125,229.0859375q0,10 -10,10M10,257.5078375q0,10 10,10M94.03125,257.5078375q0,10 -10,10M10,285.9297375q0,10 10,10M94.03125,285.9297375q0,10 -10,10M0,153.82034301757812q10,0 10,-10V21.7109375M104.03125,153.82034301757812q-10,0 -10,-10V21.7109375M0,153.82034301757812q10,0 10,10V285.9297375M104.03125,153.82034301757812q-10,0 -10,10V285.9297375"></path><g class="regexp-matches" transform="matrix(1,0,0,1,20,0)"><path d="M0,11.7109375h13.0078M51.023425,11.7109375H64.03125M0,40.1328375h0M64.03125,40.1328375H64.03125M0,68.5547375h1.3359M62.695275,68.5547375H64.03125M0,96.9765375h6.6719M57.3594,96.9765375H64.03125M0,125.3984375h2.0078M62.023425,125.3984375H64.03125M0,153.8203375h9.0078M55.023425,153.8203375H64.03125M0,182.2422375h9.0078M55.023425,182.2422375H64.03125M0,210.6640375h7.0078M57.023425,210.6640375H64.03125M0,239.0859375h12.3438M51.68755,239.0859375H64.03125M0,267.5078375h11.6719M52.3594,267.5078375H64.03125M0,295.9297375h10.3516M53.679725,295.9297375H64.03125"></path><g class="match match-fragment literal" transform="matrix(1,0,0,1,13.0078,0)"><g class="label"><rect width="38.015625" height="23.421875" rx="3" ry="3"></rect><text x="0" y="0" transform="matrix(1,0,0,1,5,16.7109)"><tspan class="quote">“</tspan><tspan>bug</tspan><tspan class="quote">”</tspan></text></g></g><g class="match match-fragment literal" transform="matrix(1,0,0,1,0,28.4219)"><g class="label"><rect width="64.03125" height="23.421875" rx="3" ry="3"></rect><text x="0" y="0" transform="matrix(1,0,0,1,5,16.7109)"><tspan class="quote">“</tspan><tspan>vulnerab</tspan><tspan class="quote">”</tspan></text></g></g><g class="match match-fragment literal" transform="matrix(1,0,0,1,1.3359,56.8438)"><g class="label"><rect width="61.359375" height="23.421875" rx="3" ry="3"></rect><text x="0" y="0" transform="matrix(1,0,0,1,5,16.7109)"><tspan class="quote">“</tspan><tspan>problem</tspan><tspan class="quote">”</tspan></text></g></g><g class="match match-fragment literal" transform="matrix(1,0,0,1,6.6719,85.2656)"><g class="label"><rect width="50.6875" height="23.421875" rx="3" ry="3"></rect><text x="0" y="0" transform="matrix(1,0,0,1,5,16.7109)"><tspan class="quote">“</tspan><tspan>defect</tspan><tspan class="quote">”</tspan></text></g></g><g class="match match-fragment literal" transform="matrix(1,0,0,1,2.0078,113.6875)"><g class="label"><rect width="60.015625" height="23.421875" rx="3" ry="3"></rect><text x="0" y="0" transform="matrix(1,0,0,1,5,16.7109)"><tspan class="quote">“</tspan><tspan>warning</tspan><tspan class="quote">”</tspan></text></g></g><g class="match match-fragment literal" transform="matrix(1,0,0,1,9.0078,142.1094)"><g class="label"><rect width="46.015625" height="23.421875" rx="3" ry="3"></rect><text x="0" y="0" transform="matrix(1,0,0,1,5,16.7109)"><tspan class="quote">“</tspan><tspan>issue</tspan><tspan class="quote">”</tspan></text></g></g><g class="match match-fragment literal" transform="matrix(1,0,0,1,9.0078,170.5313)"><g class="label"><rect width="46.015625" height="23.421875" rx="3" ry="3"></rect><text x="0" y="0" transform="matrix(1,0,0,1,5,16.7109)"><tspan class="quote">“</tspan><tspan>weak</tspan><tspan class="quote">”</tspan></text></g></g><g class="match match-fragment literal" transform="matrix(1,0,0,1,7.0078,198.9531)"><g class="label"><rect width="50.015625" height="23.421875" rx="3" ry="3"></rect><text x="0" y="0" transform="matrix(1,0,0,1,5,16.7109)"><tspan class="quote">“</tspan><tspan>attack</tspan><tspan class="quote">”</tspan></text></g></g><g class="match match-fragment literal" transform="matrix(1,0,0,1,12.3438,227.375)"><g class="label"><rect width="39.34375" height="23.421875" rx="3" ry="3"></rect><text x="0" y="0" transform="matrix(1,0,0,1,5,16.7109)"><tspan class="quote">“</tspan><tspan>flaw</tspan><tspan class="quote">”</tspan></text></g></g><g class="match match-fragment literal" transform="matrix(1,0,0,1,11.6719,255.7969)"><g class="label"><rect width="40.6875" height="23.421875" rx="3" ry="3"></rect><text x="0" y="0" transform="matrix(1,0,0,1,5,16.7109)"><tspan class="quote">“</tspan><tspan>fault</tspan><tspan class="quote">”</tspan></text></g></g><g class="match match-fragment literal" transform="matrix(1,0,0,1,10.3516,284.2188)"><g class="label"><rect width="43.328125" height="23.421875" rx="3" ry="3"></rect><text x="0" y="0" transform="matrix(1,0,0,1,5,16.7109)"><tspan class="quote">“</tspan><tspan>error</tspan><tspan class="quote">”</tspan></text></g></g></g></g></g></g><g class="match" transform="matrix(1,0,0,1,0,339.5782)"><path d="M47.34375,175.0078375H72.3438M155.046925,175.0078375H180.0469M201.375025,175.0078375H221.375M325.40625,175.00784301757812H360.4063M443.109425,175.0078375H478.1094"></path><g class="match-fragment literal" transform="matrix(1,0,0,1,0,163.2969)"><g class="label"><rect width="47.34375" height="23.421875" rx="3" ry="3"></rect><text x="0" y="0" transform="matrix(1,0,0,1,5,16.7109)"><tspan class="quote">“</tspan><tspan>secur</tspan><tspan class="quote">”</tspan></text></g></g><g class="match-fragment" transform="matrix(1,0,0,1,57.3438,153.2969)"><path d="M0,21.7109375q10,0 10,-10v-1.7109375q0,-10 10,-10h72.703125q10,0 10,10v1.7109375q0,10 10,10M15,21.7109375q-10,0 -10,10v1.7109375q0,10 10,10h82.703125q10,0 10,-10v-1.7109375q0,-10 -10,-10M107.703125,36.7109375l5,-5m-5,5l-5,-5"></path><g class="any-character" transform="matrix(1,0,0,1,15,10)"><g class="label"><rect width="82.703125" height="23.421875"></rect><text x="0" y="0" transform="matrix(1,0,0,1,5,16.7109)"><tspan>any character</tspan></text></g></g></g><g class="match-fragment literal" transform="matrix(1,0,0,1,180.0469,163.2969)"><g class="label"><rect width="21.328125" height="23.421875" rx="3" ry="3"></rect><text x="0" y="0" transform="matrix(1,0,0,1,5,16.7109)"><tspan class="quote">“</tspan><tspan> </tspan><tspan class="quote">”</tspan></text></g></g><g class="match-fragment subexp" transform="matrix(1,0,0,1,211.375,0)"><rect class="subexp-box" rx="3" ry="3" transform="matrix(1,0,0,1,0,11.1875)" width="124.03125" height="327.64068603515625"></rect><text x="0" y="0" class="subexp-label" transform="matrix(1,0,0,1,0,11.1875)"><tspan>group #3</tspan></text><g class="regexp" transform="matrix(1,0,0,1,10,21.1875)"><path d="M10,21.7109375q0,-10 10,-10M94.03125,21.7109375q0,-10 -10,-10M10,50.1328375q0,-10 10,-10M94.03125,50.1328375q0,-10 -10,-10M10,78.5547375q0,-10 10,-10M94.03125,78.5547375q0,-10 -10,-10M10,106.9765375q0,-10 10,-10M94.03125,106.9765375q0,-10 -10,-10M10,135.3984375q0,-10 10,-10M94.03125,135.3984375q0,-10 -10,-10M0,153.82034301757812c10,0 10,-0.0000055175781312755134 20,-0.0000055175781312755134M104.03125,153.82034301757812c-10,0 -10,-0.0000055175781312755134 -20,-0.0000055175781312755134M10,172.2422375q0,10 10,10M94.03125,172.2422375q0,10 -10,10M10,200.6640375q0,10 10,10M94.03125,200.6640375q0,10 -10,10M10,229.0859375q0,10 10,10M94.03125,229.0859375q0,10 -10,10M10,257.5078375q0,10 10,10M94.03125,257.5078375q0,10 -10,10M10,285.9297375q0,10 10,10M94.03125,285.9297375q0,10 -10,10M0,153.82034301757812q10,0 10,-10V21.7109375M104.03125,153.82034301757812q-10,0 -10,-10V21.7109375M0,153.82034301757812q10,0 10,10V285.9297375M104.03125,153.82034301757812q-10,0 -10,10V285.9297375"></path><g class="regexp-matches" transform="matrix(1,0,0,1,20,0)"><path d="M0,11.7109375h13.0078M51.023425,11.7109375H64.03125M0,40.1328375h0M64.03125,40.1328375H64.03125M0,68.5547375h1.3359M62.695275,68.5547375H64.03125M0,96.9765375h6.6719M57.3594,96.9765375H64.03125M0,125.3984375h2.0078M62.023425,125.3984375H64.03125M0,153.8203375h9.0078M55.023425,153.8203375H64.03125M0,182.2422375h9.0078M55.023425,182.2422375H64.03125M0,210.6640375h7.0078M57.023425,210.6640375H64.03125M0,239.0859375h12.3438M51.68755,239.0859375H64.03125M0,267.5078375h11.6719M52.3594,267.5078375H64.03125M0,295.9297375h10.3516M53.679725,295.9297375H64.03125"></path><g class="match match-fragment literal" transform="matrix(1,0,0,1,13.0078,0)"><g class="label"><rect width="38.015625" height="23.421875" rx="3" ry="3"></rect><text x="0" y="0" transform="matrix(1,0,0,1,5,16.7109)"><tspan class="quote">“</tspan><tspan>bug</tspan><tspan class="quote">”</tspan></text></g></g><g class="match match-fragment literal" transform="matrix(1,0,0,1,0,28.4219)"><g class="label"><rect width="64.03125" height="23.421875" rx="3" ry="3"></rect><text x="0" y="0" transform="matrix(1,0,0,1,5,16.7109)"><tspan class="quote">“</tspan><tspan>vulnerab</tspan><tspan class="quote">”</tspan></text></g></g><g class="match match-fragment literal" transform="matrix(1,0,0,1,1.3359,56.8438)"><g class="label"><rect width="61.359375" height="23.421875" rx="3" ry="3"></rect><text x="0" y="0" transform="matrix(1,0,0,1,5,16.7109)"><tspan class="quote">“</tspan><tspan>problem</tspan><tspan class="quote">”</tspan></text></g></g><g class="match match-fragment literal" transform="matrix(1,0,0,1,6.6719,85.2656)"><g class="label"><rect width="50.6875" height="23.421875" rx="3" ry="3"></rect><text x="0" y="0" transform="matrix(1,0,0,1,5,16.7109)"><tspan class="quote">“</tspan><tspan>defect</tspan><tspan class="quote">”</tspan></text></g></g><g class="match match-fragment literal" transform="matrix(1,0,0,1,2.0078,113.6875)"><g class="label"><rect width="60.015625" height="23.421875" rx="3" ry="3"></rect><text x="0" y="0" transform="matrix(1,0,0,1,5,16.7109)"><tspan class="quote">“</tspan><tspan>warning</tspan><tspan class="quote">”</tspan></text></g></g><g class="match match-fragment literal" transform="matrix(1,0,0,1,9.0078,142.1094)"><g class="label"><rect width="46.015625" height="23.421875" rx="3" ry="3"></rect><text x="0" y="0" transform="matrix(1,0,0,1,5,16.7109)"><tspan class="quote">“</tspan><tspan>issue</tspan><tspan class="quote">”</tspan></text></g></g><g class="match match-fragment literal" transform="matrix(1,0,0,1,9.0078,170.5313)"><g class="label"><rect width="46.015625" height="23.421875" rx="3" ry="3"></rect><text x="0" y="0" transform="matrix(1,0,0,1,5,16.7109)"><tspan class="quote">“</tspan><tspan>weak</tspan><tspan class="quote">”</tspan></text></g></g><g class="match match-fragment literal" transform="matrix(1,0,0,1,7.0078,198.9531)"><g class="label"><rect width="50.015625" height="23.421875" rx="3" ry="3"></rect><text x="0" y="0" transform="matrix(1,0,0,1,5,16.7109)"><tspan class="quote">“</tspan><tspan>attack</tspan><tspan class="quote">”</tspan></text></g></g><g class="match match-fragment literal" transform="matrix(1,0,0,1,12.3438,227.375)"><g class="label"><rect width="39.34375" height="23.421875" rx="3" ry="3"></rect><text x="0" y="0" transform="matrix(1,0,0,1,5,16.7109)"><tspan class="quote">“</tspan><tspan>flaw</tspan><tspan class="quote">”</tspan></text></g></g><g class="match match-fragment literal" transform="matrix(1,0,0,1,11.6719,255.7969)"><g class="label"><rect width="40.6875" height="23.421875" rx="3" ry="3"></rect><text x="0" y="0" transform="matrix(1,0,0,1,5,16.7109)"><tspan class="quote">“</tspan><tspan>fault</tspan><tspan class="quote">”</tspan></text></g></g><g class="match match-fragment literal" transform="matrix(1,0,0,1,10.3516,284.2188)"><g class="label"><rect width="43.328125" height="23.421875" rx="3" ry="3"></rect><text x="0" y="0" transform="matrix(1,0,0,1,5,16.7109)"><tspan class="quote">“</tspan><tspan>error</tspan><tspan class="quote">”</tspan></text></g></g></g></g></g><g class="match-fragment" transform="matrix(1,0,0,1,345.4063,153.2969)"><path d="M0,21.7109375q10,0 10,-10v-1.7109375q0,-10 10,-10h72.703125q10,0 10,10v1.7109375q0,10 10,10M15,21.7109375q-10,0 -10,10v1.7109375q0,10 10,10h82.703125q10,0 10,-10v-1.7109375q0,-10 -10,-10M107.703125,36.7109375l5,-5m-5,5l-5,-5"></path><g class="any-character" transform="matrix(1,0,0,1,15,10)"><g class="label"><rect width="82.703125" height="23.421875"></rect><text x="0" y="0" transform="matrix(1,0,0,1,5,16.7109)"><tspan>any character</tspan></text></g></g></g><g class="match-fragment subexp" transform="matrix(1,0,0,1,468.1094,85.2657)"><rect class="subexp-box" rx="3" ry="3" transform="matrix(1,0,0,1,0,11.1875)" width="118.03125" height="157.109375"></rect><text x="0" y="0" class="subexp-label" transform="matrix(1,0,0,1,0,11.1875)"><tspan>group #4</tspan></text><g class="regexp" transform="matrix(1,0,0,1,10,21.1875)"><path d="M10,21.7109375q0,-10 10,-10M88.03125,21.7109375q0,-10 -10,-10M10,50.1328375q0,-10 10,-10M88.03125,50.1328375q0,-10 -10,-10M0,68.5546875c10,0 10,0.00005000000000165983 20,0.00005000000000165983M98.03125,68.5546875c-10,0 -10,0.00005000000000165983 -20,0.00005000000000165983M10,86.9765375q0,10 10,10M88.03125,86.9765375q0,10 -10,10M10,115.3984375q0,10 10,10M88.03125,115.3984375q0,10 -10,10M0,68.5546875q10,0 10,-10V21.7109375M98.03125,68.5546875q-10,0 -10,-10V21.7109375M0,68.5546875q10,0 10,10V115.3984375M98.03125,68.5546875q-10,0 -10,10V115.3984375"></path><g class="regexp-matches" transform="matrix(1,0,0,1,20,0)"><path d="M0,11.7109375h14.0156M44.0156,11.7109375H58.03125M0,40.1328375h5M53.03125,40.1328375H58.03125M0,68.5547375h0M58.03125,68.5547375H58.03125M0,96.9765375h1.6719M56.3594,96.9765375H58.03125M0,125.3984375h5.3359M52.695275,125.3984375H58.03125"></path><g class="match match-fragment literal" transform="matrix(1,0,0,1,14.0156,0)"><g class="label"><rect width="30" height="23.421875" rx="3" ry="3"></rect><text x="0" y="0" transform="matrix(1,0,0,1,5,16.7109)"><tspan class="quote">“</tspan><tspan>fix</tspan><tspan class="quote">”</tspan></text></g></g><g class="match match-fragment literal" transform="matrix(1,0,0,1,5,28.4219)"><g class="label"><rect width="48.03125" height="23.421875" rx="3" ry="3"></rect><text x="0" y="0" transform="matrix(1,0,0,1,5,16.7109)"><tspan class="quote">“</tspan><tspan>found</tspan><tspan class="quote">”</tspan></text></g></g><g class="match match-fragment literal" transform="matrix(1,0,0,1,0,56.8438)"><g class="label"><rect width="58.03125" height="23.421875" rx="3" ry="3"></rect><text x="0" y="0" transform="matrix(1,0,0,1,5,16.7109)"><tspan class="quote">“</tspan><tspan>prevent</tspan><tspan class="quote">”</tspan></text></g></g><g class="match match-fragment literal" transform="matrix(1,0,0,1,1.6719,85.2656)"><g class="label"><rect width="54.6875" height="23.421875" rx="3" ry="3"></rect><text x="0" y="0" transform="matrix(1,0,0,1,5,16.7109)"><tspan class="quote">“</tspan><tspan>protect</tspan><tspan class="quote">”</tspan></text></g></g><g class="match match-fragment literal" transform="matrix(1,0,0,1,5.3359,113.6875)"><g class="label"><rect width="47.359375" height="23.421875" rx="3" ry="3"></rect><text x="0" y="0" transform="matrix(1,0,0,1,5,16.7109)"><tspan class="quote">“</tspan><tspan>patch</tspan><tspan class="quote">”</tspan></text></g></g></g></g></g></g><g class="match match-fragment literal" transform="matrix(1,0,0,1,261.0547,679.1564)"><g class="label"><rect width="64.03125" height="23.421875" rx="3" ry="3"></rect><text x="0" y="0" transform="matrix(1,0,0,1,5,16.7109)"><tspan class="quote">“</tspan><tspan>vulnerab</tspan><tspan class="quote">”</tspan></text></g></g><g class="match match-fragment literal" transform="matrix(1,0,0,1,268.0625,707.5782)"><g class="label"><rect width="50.015625" height="23.421875" rx="3" ry="3"></rect><text x="0" y="0" transform="matrix(1,0,0,1,5,16.7109)"><tspan class="quote">“</tspan><tspan>attack</tspan><tspan class="quote">”</tspan></text></g></g><g class="match match-fragment literal" transform="matrix(1,0,0,1,272.7344,736.0001)"><g class="label"><rect width="40.671875" height="23.421875" rx="3" ry="3"></rect><text x="0" y="0" transform="matrix(1,0,0,1,5,16.7109)"><tspan class="quote">“</tspan><tspan>cve-</tspan><tspan class="quote">”</tspan></text></g></g><g class="match match-fragment literal" transform="matrix(1,0,0,1,272.3984,764.422)"><g class="label"><rect width="41.34375" height="23.421875" rx="3" ry="3"></rect><text x="0" y="0" transform="matrix(1,0,0,1,5,16.7109)"><tspan class="quote">“</tspan><tspan>nvd-</tspan><tspan class="quote">”</tspan></text></g></g><g class="match match-fragment literal" transform="matrix(1,0,0,1,271.4063,792.8439)"><g class="label"><rect width="43.328125" height="23.421875" rx="3" ry="3"></rect><text x="0" y="0" transform="matrix(1,0,0,1,5,16.7109)"><tspan class="quote">“</tspan><tspan>cwe-</tspan><tspan class="quote">”</tspan></text></g></g></g></g><path d="M10,410.25787353515625H0M636.140625,410.25787353515625H646.140625"></path><circle cx="0" cy="410.25787353515625" r="5"></circle><circle cx="646.140625" cy="410.25787353515625" r="5"></circle></g></svg>
          