
            <svg xmlns="http://www.w3.org/2000/svg" xmlns:cc="http://creativecommons.org/ns#" xmlns:rdf="http://www.w3.org/1999/02/22-rdf-syntax-ns#" version="1.1" width="653.6875" height="339.0625305175781">
              <defs>
                <style type="text/css">svg{background-color:#fff}text,tspan{font:12px Arial}path{fill-opacity:0;stroke-width:2px;stroke:#000}circle{fill:#6b6659;stroke-width:2px;stroke:#000}.anchor text,.any-character text{fill:#fff}.anchor rect,.any-character rect{fill:#6b6659}.escape text,.charset-escape text,.literal text{fill:#000}.escape rect,.charset-escape rect{fill:#bada55}.literal rect{fill:#dae9e5}.charset .charset-box{fill:#cbcbba}.subexp .subexp-label tspan,.charset .charset-label tspan,.match-fragment .repeat-label tspan{font-size:10px}.repeat-label{cursor:help}.subexp .subexp-label tspan,.charset .charset-label tspan{dominant-baseline:text-after-edge}.subexp .subexp-box{stroke:#908c83;stroke-dasharray:6,2;stroke-width:2px;fill-opacity:0}.quote{fill:#908c83}
          </style>
              </defs>
              <metadata>
                <rdf:rdf>
                  <cc:license rdf:about="http://creativecommons.org/licenses/by/3.0/">
                    <cc:permits rdf:resource="http://creativecommons.org/ns#Reproduction"></cc:permits>
                    <cc:permits rdf:resource="http://creativecommons.org/ns#Distribution"></cc:permits>
                    <cc:requires rdf:resource="http://creativecommons.org/ns#Notice"></cc:requires>
                    <cc:requires rdf:resource="http://creativecommons.org/ns#Attribution"></cc:requires>
                    <cc:permits rdf:resource="http://creativecommons.org/ns#DerivativeWorks"></cc:permits>
                  </cc:license>
                </rdf:rdf>
              </metadata>
            <desc>Created with Snap</desc><g transform="matrix(1,0,0,1,15,9.9062)" class="root"><g transform="matrix(1,0,0,1,10,0)" class="regexp match match-fragment subexp"><rect rx="3" ry="3" class="subexp-box" transform="matrix(1,0,0,1,0,11.0938)" width="603.6875" height="308.0625305175781"></rect><text x="0" y="0" transform="matrix(1,0,0,1,0,11.0938)" class="subexp-label"><tspan>group #1</tspan></text><g transform="matrix(1,0,0,1,10,21.0938)" class="regexp"><path d="M10,67.1016125q0,-10 10,-10M573.6875,67.1016125q0,-10 -10,-10M10,193.63286801757812q0,10 10,10M573.6875,193.63286801757812q0,10 -10,10M0,144.12506484985352q10,0 10,-10V67.1016125M583.6875,144.12506484985352q-10,0 -10,-10V67.1016125M0,144.12506484985352q10,0 10,10V193.63286801757812M583.6875,144.12506484985352q-10,0 -10,10V193.63286801757812"></path><g transform="matrix(1,0,0,1,20,0)" class="regexp-matches"><path d="M0,57.1016125h149.1015M404.5859,57.1016125H543.6875M0,203.63286801757812h10M533.687525,203.63286801757812H543.6875"></path><g transform="matrix(1,0,0,1,139.1015,0)" class="match"><path d="M204.171875,57.1016125H224.1719"></path><g class="match-fragment subexp" transform="matrix(1,0,0,1,0,0)"><rect rx="3" ry="3" class="subexp-box" transform="matrix(1,0,0,1,0,11.0938)" width="214.171875" height="92.015625"></rect><text x="0" y="0" transform="matrix(1,0,0,1,0,11.0938)" class="subexp-label"><tspan>group #2</tspan></text><g transform="matrix(1,0,0,1,10,21.0938)" class="regexp"><path d="M10,21.75q0,-10 10,-10M184.171875,21.75q0,-10 -10,-10M0,36.0078125c10,0 10,14.249987500000003 20,14.249987500000003M194.171875,36.0078125c-10,0 -10,14.249987500000003 -20,14.249987500000003M0,36.0078125q10,0 10,-10V21.75M194.171875,36.0078125q-10,0 -10,-10V21.75"></path><g transform="matrix(1,0,0,1,20,0)" class="regexp-matches"><path d="M0,11.75h56.4219M97.750025,11.75H154.171875M0,50.2578h0M139.171875,50.2578H154.171875"></path><g transform="matrix(1,0,0,1,56.4219,0)" class="match match-fragment literal"><g class="label"><rect width="41.328125" height="23.5" rx="3" ry="3"></rect><text x="0" y="0" transform="matrix(1,0,0,1,5,16.75)"><tspan class="quote">“</tspan><tspan>path</tspan><tspan class="quote">”</tspan></text></g></g><g transform="matrix(1,0,0,1,0,28.5)" class="match"><path d="M31.3125,21.757800000000003H56.3125"></path><g class="match-fragment literal" transform="matrix(1,0,0,1,0,10.0078)"><g class="label"><rect width="31.3125" height="23.5" rx="3" ry="3"></rect><text x="0" y="0" transform="matrix(1,0,0,1,5,16.75)"><tspan class="quote">“</tspan><tspan>dir</tspan><tspan class="quote">”</tspan></text></g></g><g class="match-fragment" transform="matrix(1,0,0,1,41.3125,0)"><path d="M0,21.7578125q10,0 10,-10v-1.7578125q0,-10 10,-10h72.859375q10,0 10,10v1.7578125q0,10 10,10M15,21.7578125q-10,0 -10,10v1.7578125q0,10 10,10h82.859375q10,0 10,-10v-1.7578125q0,-10 -10,-10M107.859375,36.7578125l5,-5m-5,5l-5,-5"></path><g transform="matrix(1,0,0,1,15,10)" class="any-character"><g class="label"><rect width="82.859375" height="23.515625"></rect><text x="0" y="0" transform="matrix(1,0,0,1,5,16.7578)"><tspan>any character</tspan></text></g></g></g></g></g></g></g><g class="match-fragment literal" transform="matrix(1,0,0,1,224.1719,45.3516)"><g class="label"><rect width="41.3125" height="23.5" rx="3" ry="3"></rect><text x="0" y="0" transform="matrix(1,0,0,1,5,16.75)"><tspan class="quote">“</tspan><tspan> trav</tspan><tspan class="quote">”</tspan></text></g></g></g><g transform="matrix(1,0,0,1,0,108.0156)" class="match"><path d="M279.5000305175781,95.61726801757813H314.5M397.359375,95.6173125H432.3594"></path><g class="match-fragment subexp" transform="matrix(1,0,0,1,0,0)"><rect rx="3" ry="3" class="subexp-box" transform="matrix(1,0,0,1,0,11.0938)" width="289.5000305175781" height="169.04693603515625"></rect><text x="0" y="0" transform="matrix(1,0,0,1,0,11.0938)" class="subexp-label"><tspan>group #3</tspan></text><g transform="matrix(1,0,0,1,10,21.0938)" class="regexp"><path d="M10,21.75q0,-10 10,-10M259.5000305175781,21.75q0,-10 -10,-10M10,60.2578q0,-10 10,-10M259.5000305175781,60.2578q0,-10 -10,-10M10,88.77340000000001q0,10 10,10M259.5000305175781,88.77340000000001q0,10 -10,10M10,127.28911249999999q0,10 10,10M259.5000305175781,127.28911249999999q0,10 -10,10M0,74.52346801757812q10,0 10,-10V21.75M269.5000305175781,74.52346801757812q-10,0 -10,-10V21.75M0,74.52346801757812q10,0 10,10V127.28911249999999M269.5000305175781,74.52346801757812q-10,0 -10,10V127.28911249999999"></path><g transform="matrix(1,0,0,1,20,0)" class="regexp-matches"><path d="M0,11.75h71.0781M158.42185,11.75H229.50003051757812M0,50.2578h12.0078M217.4922,50.2578H229.50003051757812M0,98.77340000000001h0M229.500025,98.77340000000001H229.50003051757812M0,137.2891125h72.0781M157.42185,137.2891125H229.50003051757812"></path><g class="match match-fragment literal" transform="matrix(1,0,0,1,71.0781,0)"><g class="label"><rect width="87.34375" height="23.5" rx="3" ry="3"></rect><text x="0" y="0" transform="matrix(1,0,0,1,5,16.75)"><tspan class="quote">“</tspan><tspan>dot-dot-slash</tspan><tspan class="quote">”</tspan></text></g></g><g class="match" transform="matrix(1,0,0,1,12.0078,28.5)"><path d="M31.3125,21.757800000000003H56.3125M139.171875,21.7578125H164.1719"></path><g class="match-fragment literal" transform="matrix(1,0,0,1,0,10.0078)"><g class="label"><rect width="31.3125" height="23.5" rx="3" ry="3"></rect><text x="0" y="0" transform="matrix(1,0,0,1,5,16.75)"><tspan class="quote">“</tspan><tspan>dir</tspan><tspan class="quote">”</tspan></text></g></g><g class="match-fragment" transform="matrix(1,0,0,1,41.3125,0)"><path d="M0,21.7578125q10,0 10,-10v-1.7578125q0,-10 10,-10h72.859375q10,0 10,10v1.7578125q0,10 10,10M15,21.7578125q-10,0 -10,10v1.7578125q0,10 10,10h82.859375q10,0 10,-10v-1.7578125q0,-10 -10,-10M107.859375,36.7578125l5,-5m-5,5l-5,-5"></path><g class="any-character" transform="matrix(1,0,0,1,15,10)"><g class="label"><rect width="82.859375" height="23.515625"></rect><text x="0" y="0" transform="matrix(1,0,0,1,5,16.7578)"><tspan>any character</tspan></text></g></g></g><g class="match-fragment literal" transform="matrix(1,0,0,1,164.1719,10.0078)"><g class="label"><rect width="41.3125" height="23.5" rx="3" ry="3"></rect><text x="0" y="0" transform="matrix(1,0,0,1,5,16.75)"><tspan class="quote">“</tspan><tspan> trav</tspan><tspan class="quote">”</tspan></text></g></g></g><g transform="matrix(1,0,0,1,0,77.0156)" class="match"><path d="M31.3125,21.757800000000003H56.3125M139.171875,21.7578125H164.1719"></path><g class="match-fragment literal" transform="matrix(1,0,0,1,0,10.0078)"><g class="label"><rect width="31.3125" height="23.5" rx="3" ry="3"></rect><text x="0" y="0" transform="matrix(1,0,0,1,5,16.75)"><tspan class="quote">“</tspan><tspan>dir</tspan><tspan class="quote">”</tspan></text></g></g><g class="match-fragment" transform="matrix(1,0,0,1,41.3125,0)"><path d="M0,21.7578125q10,0 10,-10v-1.7578125q0,-10 10,-10h72.859375q10,0 10,10v1.7578125q0,10 10,10M15,21.7578125q-10,0 -10,10v1.7578125q0,10 10,10h82.859375q10,0 10,-10v-1.7578125q0,-10 -10,-10M107.859375,36.7578125l5,-5m-5,5l-5,-5"></path><g class="any-character" transform="matrix(1,0,0,1,15,10)"><g class="label"><rect width="82.859375" height="23.515625"></rect><text x="0" y="0" transform="matrix(1,0,0,1,5,16.7578)"><tspan>any character</tspan></text></g></g></g><g class="match-fragment literal" transform="matrix(1,0,0,1,164.1719,10)"><g class="label"><rect width="65.328125" height="23.515625" rx="3" ry="3"></rect><text x="0" y="0" transform="matrix(1,0,0,1,5,16.7578)"><tspan class="quote">“</tspan><tspan> climbing</tspan><tspan class="quote">”</tspan></text></g></g></g><g class="match match-fragment literal" transform="matrix(1,0,0,1,72.0781,125.5313)"><g class="label"><rect width="85.34375" height="23.515625" rx="3" ry="3"></rect><text x="0" y="0" transform="matrix(1,0,0,1,5,16.7578)"><tspan class="quote">“</tspan><tspan>backtracking</tspan><tspan class="quote">”</tspan></text></g></g></g></g></g><g class="match-fragment" transform="matrix(1,0,0,1,299.5,73.8595)"><path d="M0,21.7578125q10,0 10,-10v-1.7578125q0,-10 10,-10h72.859375q10,0 10,10v1.7578125q0,10 10,10M15,21.7578125q-10,0 -10,10v1.7578125q0,10 10,10h82.859375q10,0 10,-10v-1.7578125q0,-10 -10,-10M107.859375,36.7578125l5,-5m-5,5l-5,-5"></path><g transform="matrix(1,0,0,1,15,10)" class="any-character"><g class="label"><rect width="82.859375" height="23.515625"></rect><text x="0" y="0" transform="matrix(1,0,0,1,5,16.7578)"><tspan>any character</tspan></text></g></g></g><g class="match-fragment subexp" transform="matrix(1,0,0,1,422.3594,20.0235)"><rect rx="3" ry="3" class="subexp-box" transform="matrix(1,0,0,1,0,11.0938)" width="121.328125" height="129"></rect><text x="0" y="0" transform="matrix(1,0,0,1,0,11.0938)" class="subexp-label"><tspan>group #4</tspan></text><g transform="matrix(1,0,0,1,10,21.0938)" class="regexp"><path d="M10,21.75q0,-10 10,-10M91.328125,21.75q0,-10 -10,-10M0,54.5c10,0 10,-14.25 20,-14.25M101.328125,54.5c-10,0 -10,-14.25 -20,-14.25M0,54.5c10,0 10,14.25 20,14.25M101.328125,54.5c-10,0 -10,14.25 -20,14.25M10,87.25q0,10 10,10M91.328125,87.25q0,10 -10,10M0,54.5q10,0 10,-10V21.75M101.328125,54.5q-10,0 -10,-10V21.75M0,54.5q10,0 10,10V87.25M101.328125,54.5q-10,0 -10,10V87.25"></path><g transform="matrix(1,0,0,1,20,0)" class="regexp-matches"><path d="M0,11.75h5.6719M55.656275,11.75H61.328125M0,40.25h10.6719M50.656275,40.25H61.328125M0,68.75h7.6719M53.656275,68.75H61.328125M0,97.25h0M61.328125,97.25H61.328125"></path><g class="match match-fragment literal" transform="matrix(1,0,0,1,5.6719,0)"><g class="label"><rect width="49.984375" height="23.5" rx="3" ry="3"></rect><text x="0" y="0" transform="matrix(1,0,0,1,5,16.75)"><tspan class="quote">“</tspan><tspan>attack</tspan><tspan class="quote">”</tspan></text></g></g><g class="match match-fragment literal" transform="matrix(1,0,0,1,10.6719,28.5)"><g class="label"><rect width="39.984375" height="23.5" rx="3" ry="3"></rect><text x="0" y="0" transform="matrix(1,0,0,1,5,16.75)"><tspan class="quote">“</tspan><tspan>vuln</tspan><tspan class="quote">”</tspan></text></g></g><g class="match match-fragment literal" transform="matrix(1,0,0,1,7.6719,57)"><g class="label"><rect width="45.984375" height="23.5" rx="3" ry="3"></rect><text x="0" y="0" transform="matrix(1,0,0,1,5,16.75)"><tspan class="quote">“</tspan><tspan>issue</tspan><tspan class="quote">”</tspan></text></g></g><g class="match match-fragment literal" transform="matrix(1,0,0,1,0,85.5)"><g class="label"><rect width="61.328125" height="23.5" rx="3" ry="3"></rect><text x="0" y="0" transform="matrix(1,0,0,1,5,16.75)"><tspan class="quote">“</tspan><tspan>problem</tspan><tspan class="quote">”</tspan></text></g></g></g></g></g></g></g></g></g><path d="M20,165.2188648498535H0M603.6875,165.2188648498535H623.6875"></path><circle cx="0" cy="165.2188648498535" r="5"></circle><circle cx="623.6875" cy="165.2188648498535" r="5"></circle></g></svg>
          