
            <svg xmlns="http://www.w3.org/2000/svg" xmlns:cc="http://creativecommons.org/ns#" xmlns:rdf="http://www.w3.org/1999/02/22-rdf-syntax-ns#" version="1.1" width="826.859375" height="1086.406494140625">
              <defs>
                <style type="text/css">svg{background-color:#fff}text,tspan{font:12px Arial}path{fill-opacity:0;stroke-width:2px;stroke:#000}circle{fill:#6b6659;stroke-width:2px;stroke:#000}.anchor text,.any-character text{fill:#fff}.anchor rect,.any-character rect{fill:#6b6659}.escape text,.charset-escape text,.literal text{fill:#000}.escape rect,.charset-escape rect{fill:#bada55}.literal rect{fill:#dae9e5}.charset .charset-box{fill:#cbcbba}.subexp .subexp-label tspan,.charset .charset-label tspan,.match-fragment .repeat-label tspan{font-size:10px}.repeat-label{cursor:help}.subexp .subexp-label tspan,.charset .charset-label tspan{dominant-baseline:text-after-edge}.subexp .subexp-box{stroke:#908c83;stroke-dasharray:6,2;stroke-width:2px;fill-opacity:0}.quote{fill:#908c83}
          </style>
              </defs>
              <metadata>
                <rdf:rdf>
                  <cc:license rdf:about="http://creativecommons.org/licenses/by/3.0/">
                    <cc:permits rdf:resource="http://creativecommons.org/ns#Reproduction"></cc:permits>
                    <cc:permits rdf:resource="http://creativecommons.org/ns#Distribution"></cc:permits>
                    <cc:requires rdf:resource="http://creativecommons.org/ns#Notice"></cc:requires>
                    <cc:requires rdf:resource="http://creativecommons.org/ns#Attribution"></cc:requires>
                    <cc:permits rdf:resource="http://creativecommons.org/ns#DerivativeWorks"></cc:permits>
                  </cc:license>
                </rdf:rdf>
              </metadata>
            <desc>Created with Snap</desc><g class="root" transform="matrix(1,0,0,1,15,5.75)"><g class="regexp" transform="matrix(1,0,0,1,10,0)"><path d="M10,99.7421875q0,-10 10,-10M766.859375,99.7421875q0,-10 -10,-10M10,226.1562864440918q0,-10 10,-10M766.859375,226.1562864440918q0,-10 -10,-10M10,349.7422353881836q0,-10 10,-10M766.859375,349.7422353881836q0,-10 -10,-10M10,473.3281864440918q0,-10 10,-10M766.859375,473.3281864440918q0,-10 -10,-10M10,531.7110375q0,-10 10,-10M766.859375,531.7110375q0,-10 -10,-10M10,599.7423353881836q0,10 10,10M766.859375,599.7423353881836q0,10 -10,10M10,672.3360375q0,10 10,10M766.859375,672.3360375q0,10 -10,10M10,756.1563864440918q0,10 10,10M766.859375,756.1563864440918q0,10 -10,10M10,941.5860875000001q0,10 10,10M766.859375,941.5860875000001q0,10 -10,10M0,537.4532470703125q10,0 10,-10V99.7421875M776.859375,537.4532470703125q-10,0 -10,-10V99.7421875M0,537.4532470703125q10,0 10,10V941.5860875000001M776.859375,537.4532470703125q-10,0 -10,10V941.5860875000001"></path><g class="regexp-matches" transform="matrix(1,0,0,1,20,0)"><path d="M0,89.7421875h17.0156M719.8437860351562,89.7421875H736.859375M0,216.1562864440918h147.3672M599.4922,216.1562864440918H736.859375M0,339.7422353881836h113.3593M623.4999805175781,339.7422353881836H736.859375M0,463.3281864440918h148.7187M598.1406,463.3281864440918H736.859375M0,521.7110375h248.0547M488.80472499999996,521.7110375H736.859375M0,609.7423353881836h10M726.8593944824219,609.7423353881836H736.859375M0,682.3360375h262.0703M474.78905,682.3360375H736.859375M0,766.1563864440918h107.0547M629.804675,766.1563864440918H736.859375M0,951.5860875000001h108.3906M628.4687707763671,951.5860875000001H736.859375"></path><g class="match" transform="matrix(1,0,0,1,7.0156,0)"><path d="M108.03125,89.7421875H143.0313M225.734425,89.7422375H250.7344M272.062525,89.7422375H292.0625"></path><g class="match-fragment subexp" transform="matrix(1,0,0,1,0,0)"><rect class="subexp-box" rx="3" ry="3" transform="matrix(1,0,0,1,0,11.1875)" width="118.03125" height="157.109375"></rect><text x="0" y="0" class="subexp-label" transform="matrix(1,0,0,1,0,11.1875)"><tspan>group #1</tspan></text><g class="regexp" transform="matrix(1,0,0,1,10,21.1875)"><path d="M10,21.7109375q0,-10 10,-10M88.03125,21.7109375q0,-10 -10,-10M10,50.1328375q0,-10 10,-10M88.03125,50.1328375q0,-10 -10,-10M0,68.5546875c10,0 10,0.00005000000000165983 20,0.00005000000000165983M98.03125,68.5546875c-10,0 -10,0.00005000000000165983 -20,0.00005000000000165983M10,86.9765375q0,10 10,10M88.03125,86.9765375q0,10 -10,10M10,115.3984375q0,10 10,10M88.03125,115.3984375q0,10 -10,10M0,68.5546875q10,0 10,-10V21.7109375M98.03125,68.5546875q-10,0 -10,-10V21.7109375M0,68.5546875q10,0 10,10V115.3984375M98.03125,68.5546875q-10,0 -10,10V115.3984375"></path><g class="regexp-matches" transform="matrix(1,0,0,1,20,0)"><path d="M0,11.7109375h14.0156M44.0156,11.7109375H58.03125M0,40.1328375h0M58.03125,40.1328375H58.03125M0,68.5547375h5M53.03125,68.5547375H58.03125M0,96.9765375h1.6719M56.3594,96.9765375H58.03125M0,125.3984375h5.3359M52.695275,125.3984375H58.03125"></path><g class="match match-fragment literal" transform="matrix(1,0,0,1,14.0156,0)"><g class="label"><rect width="30" height="23.421875" rx="3" ry="3"></rect><text x="0" y="0" transform="matrix(1,0,0,1,5,16.7109)"><tspan class="quote">“</tspan><tspan>fix</tspan><tspan class="quote">”</tspan></text></g></g><g class="match match-fragment literal" transform="matrix(1,0,0,1,0,28.4219)"><g class="label"><rect width="58.03125" height="23.421875" rx="3" ry="3"></rect><text x="0" y="0" transform="matrix(1,0,0,1,5,16.7109)"><tspan class="quote">“</tspan><tspan>prevent</tspan><tspan class="quote">”</tspan></text></g></g><g class="match match-fragment literal" transform="matrix(1,0,0,1,5,56.8438)"><g class="label"><rect width="48.03125" height="23.421875" rx="3" ry="3"></rect><text x="0" y="0" transform="matrix(1,0,0,1,5,16.7109)"><tspan class="quote">“</tspan><tspan>found</tspan><tspan class="quote">”</tspan></text></g></g><g class="match match-fragment literal" transform="matrix(1,0,0,1,1.6719,85.2656)"><g class="label"><rect width="54.6875" height="23.421875" rx="3" ry="3"></rect><text x="0" y="0" transform="matrix(1,0,0,1,5,16.7109)"><tspan class="quote">“</tspan><tspan>protect</tspan><tspan class="quote">”</tspan></text></g></g><g class="match match-fragment literal" transform="matrix(1,0,0,1,5.3359,113.6875)"><g class="label"><rect width="47.359375" height="23.421875" rx="3" ry="3"></rect><text x="0" y="0" transform="matrix(1,0,0,1,5,16.7109)"><tspan class="quote">“</tspan><tspan>patch</tspan><tspan class="quote">”</tspan></text></g></g></g></g></g><g class="match-fragment" transform="matrix(1,0,0,1,128.0313,68.0313)"><path d="M0,21.7109375q10,0 10,-10v-1.7109375q0,-10 10,-10h72.703125q10,0 10,10v1.7109375q0,10 10,10M15,21.7109375q-10,0 -10,10v1.7109375q0,10 10,10h82.703125q10,0 10,-10v-1.7109375q0,-10 -10,-10M107.703125,36.7109375l5,-5m-5,5l-5,-5"></path><g class="any-character" transform="matrix(1,0,0,1,15,10)"><g class="label"><rect width="82.703125" height="23.421875"></rect><text x="0" y="0" transform="matrix(1,0,0,1,5,16.7109)"><tspan>any character</tspan></text></g></g></g><g class="match-fragment literal" transform="matrix(1,0,0,1,250.7344,78.0313)"><g class="label"><rect width="21.328125" height="23.421875" rx="3" ry="3"></rect><text x="0" y="0" transform="matrix(1,0,0,1,5,16.7109)"><tspan class="quote">“</tspan><tspan> </tspan><tspan class="quote">”</tspan></text></g></g><g class="match-fragment subexp" transform="matrix(1,0,0,1,282.0625,8.4218)"><rect class="subexp-box" rx="3" ry="3" transform="matrix(1,0,0,1,0,11.1875)" width="440.76568603515625" height="140.26567840576172"></rect><text x="0" y="0" class="subexp-label" transform="matrix(1,0,0,1,0,11.1875)"><tspan>group #2</tspan></text><g class="regexp" transform="matrix(1,0,0,1,10,21.1875)"><path d="M10,31.7109375q0,-10 10,-10M410.76568603515625,31.7109375q0,-10 -10,-10M0,60.13283920288086c10,0 10,-0.0000017028808656505134 20,-0.0000017028808656505134M420.76568603515625,60.13283920288086c-10,0 -10,-0.0000017028808656505134 -20,-0.0000017028808656505134M10,88.5547375q0,10 10,10M410.76568603515625,88.5547375q0,10 -10,10M0,60.13283920288086q10,0 10,-10V31.7109375M420.76568603515625,60.13283920288086q-10,0 -10,-10V31.7109375M0,60.13283920288086q10,0 10,10V88.5547375M420.76568603515625,60.13283920288086q-10,0 -10,10V88.5547375"></path><g class="regexp-matches" transform="matrix(1,0,0,1,20,0)"><path d="M0,21.7109375h0M380.765675,21.7109375H380.76568603515625M0,60.132837499999994h168.3907M212.375075,60.132837499999994H380.76568603515625M0,98.5547375h78.3438M302.421925,98.5547375H380.76568603515625"></path><g class="match" transform="matrix(1,0,0,1,0,0)"><path d="M41.34375,21.7109375H66.3438M149.046925,21.7109375H174.0469M201.39065,21.7109375H226.3906M309.093725,21.7109375H334.0938"></path><g class="match-fragment literal" transform="matrix(1,0,0,1,0,10)"><g class="label"><rect width="41.34375" height="23.421875" rx="3" ry="3"></rect><text x="0" y="0" transform="matrix(1,0,0,1,5,16.7109)"><tspan class="quote">“</tspan><tspan>man</tspan><tspan class="quote">”</tspan></text></g></g><g class="match-fragment" transform="matrix(1,0,0,1,51.3438,0)"><path d="M0,21.7109375q10,0 10,-10v-1.7109375q0,-10 10,-10h72.703125q10,0 10,10v1.7109375q0,10 10,10M15,21.7109375q-10,0 -10,10v1.7109375q0,10 10,10h82.703125q10,0 10,-10v-1.7109375q0,-10 -10,-10M107.703125,36.7109375l5,-5m-5,5l-5,-5"></path><g class="any-character" transform="matrix(1,0,0,1,15,10)"><g class="label"><rect width="82.703125" height="23.421875"></rect><text x="0" y="0" transform="matrix(1,0,0,1,5,16.7109)"><tspan>any character</tspan></text></g></g></g><g class="match-fragment literal" transform="matrix(1,0,0,1,174.0469,10)"><g class="label"><rect width="27.34375" height="23.421875" rx="3" ry="3"></rect><text x="0" y="0" transform="matrix(1,0,0,1,5,16.7109)"><tspan class="quote">“</tspan><tspan>in</tspan><tspan class="quote">”</tspan></text></g></g><g class="match-fragment" transform="matrix(1,0,0,1,211.3906,0)"><path d="M0,21.7109375q10,0 10,-10v-1.7109375q0,-10 10,-10h72.703125q10,0 10,10v1.7109375q0,10 10,10M15,21.7109375q-10,0 -10,10v1.7109375q0,10 10,10h82.703125q10,0 10,-10v-1.7109375q0,-10 -10,-10M107.703125,36.7109375l5,-5m-5,5l-5,-5"></path><g class="any-character" transform="matrix(1,0,0,1,15,10)"><g class="label"><rect width="82.703125" height="23.421875"></rect><text x="0" y="0" transform="matrix(1,0,0,1,5,16.7109)"><tspan>any character</tspan></text></g></g></g><g class="match-fragment literal" transform="matrix(1,0,0,1,334.0938,10)"><g class="label"><rect width="46.671875" height="23.421875" rx="3" ry="3"></rect><text x="0" y="0" transform="matrix(1,0,0,1,5,16.7109)"><tspan class="quote">“</tspan><tspan>midle</tspan><tspan class="quote">”</tspan></text></g></g></g><g class="match match-fragment literal" transform="matrix(1,0,0,1,168.3907,48.4219)"><g class="label"><rect width="43.984375" height="23.421875" rx="3" ry="3"></rect><text x="0" y="0" transform="matrix(1,0,0,1,5,16.7109)"><tspan class="quote">“</tspan><tspan>mitm</tspan><tspan class="quote">”</tspan></text></g></g><g class="match" transform="matrix(1,0,0,1,78.3438,76.8438)"><path d="M53.359375,21.7109375H78.3594M161.062525,21.7109375H186.0625"></path><g class="match-fragment literal" transform="matrix(1,0,0,1,0,10)"><g class="label"><rect width="53.359375" height="23.421875" rx="3" ry="3"></rect><text x="0" y="0" transform="matrix(1,0,0,1,5,16.7109)"><tspan class="quote">“</tspan><tspan>bucket</tspan><tspan class="quote">”</tspan></text></g></g><g class="match-fragment" transform="matrix(1,0,0,1,63.3594,0)"><path d="M0,21.7109375q10,0 10,-10v-1.7109375q0,-10 10,-10h72.703125q10,0 10,10v1.7109375q0,10 10,10M15,21.7109375q-10,0 -10,10v1.7109375q0,10 10,10h82.703125q10,0 10,-10v-1.7109375q0,-10 -10,-10M107.703125,36.7109375l5,-5m-5,5l-5,-5"></path><g class="any-character" transform="matrix(1,0,0,1,15,10)"><g class="label"><rect width="82.703125" height="23.421875"></rect><text x="0" y="0" transform="matrix(1,0,0,1,5,16.7109)"><tspan>any character</tspan></text></g></g></g><g class="match-fragment literal" transform="matrix(1,0,0,1,186.0625,10)"><g class="label"><rect width="38.015625" height="23.421875" rx="3" ry="3"></rect><text x="0" y="0" transform="matrix(1,0,0,1,5,16.7109)"><tspan class="quote">“</tspan><tspan>brig</tspan><tspan class="quote">”</tspan></text></g></g></g></g></g></g></g><g class="match" transform="matrix(1,0,0,1,137.3672,169.0469)"><path d="M84.6875,47.1093864440918H119.6875M202.390625,47.109337499999995H227.3906M284.73435,47.1093375H309.7344M392.437525,47.109337499999995H417.4375"></path><g class="match-fragment subexp" transform="matrix(1,0,0,1,0,0)"><rect class="subexp-box" rx="3" ry="3" transform="matrix(1,0,0,1,0,11.1875)" width="94.6875" height="71.8437728881836"></rect><text x="0" y="0" class="subexp-label" transform="matrix(1,0,0,1,0,11.1875)"><tspan>group #3</tspan></text><g class="regexp" transform="matrix(1,0,0,1,10,21.1875)"><path d="M0,25.921886444091797c10,0 10,-14.210948944091797 20,-14.210948944091797M74.6875,25.921886444091797c-10,0 -10,-14.210948944091797 -20,-14.210948944091797M0,25.921886444091797c10,0 10,14.210951055908204 20,14.210951055908204M74.6875,25.921886444091797c-10,0 -10,14.210951055908204 -20,14.210951055908204"></path><g class="regexp-matches" transform="matrix(1,0,0,1,20,0)"><path d="M0,11.7109375h1.6719M33.01565,11.7109375H34.6875M0,40.1328375h0M34.6875,40.1328375H34.6875"></path><g class="match match-fragment literal" transform="matrix(1,0,0,1,1.6719,0)"><g class="label"><rect width="31.34375" height="23.421875" rx="3" ry="3"></rect><text x="0" y="0" transform="matrix(1,0,0,1,5,16.7109)"><tspan class="quote">“</tspan><tspan>un</tspan><tspan class="quote">”</tspan></text></g></g><g class="match match-fragment literal" transform="matrix(1,0,0,1,0,28.4219)"><g class="label"><rect width="34.6875" height="23.421875" rx="3" ry="3"></rect><text x="0" y="0" transform="matrix(1,0,0,1,5,16.7109)"><tspan class="quote">“</tspan><tspan>not</tspan><tspan class="quote">”</tspan></text></g></g></g></g></g><g class="match-fragment" transform="matrix(1,0,0,1,104.6875,25.3984)"><path d="M0,21.7109375q10,0 10,-10v-1.7109375q0,-10 10,-10h72.703125q10,0 10,10v1.7109375q0,10 10,10M15,21.7109375q-10,0 -10,10v1.7109375q0,10 10,10h82.703125q10,0 10,-10v-1.7109375q0,-10 -10,-10M107.703125,36.7109375l5,-5m-5,5l-5,-5"></path><g class="any-character" transform="matrix(1,0,0,1,15,10)"><g class="label"><rect width="82.703125" height="23.421875"></rect><text x="0" y="0" transform="matrix(1,0,0,1,5,16.7109)"><tspan>any character</tspan></text></g></g></g><g class="match-fragment literal" transform="matrix(1,0,0,1,227.3906,35.3984)"><g class="label"><rect width="57.34375" height="23.421875" rx="3" ry="3"></rect><text x="0" y="0" transform="matrix(1,0,0,1,5,16.7109)"><tspan class="quote">“</tspan><tspan>encrypt</tspan><tspan class="quote">”</tspan></text></g></g><g class="match-fragment" transform="matrix(1,0,0,1,294.7344,25.3984)"><path d="M0,21.7109375q10,0 10,-10v-1.7109375q0,-10 10,-10h72.703125q10,0 10,10v1.7109375q0,10 10,10M15,21.7109375q-10,0 -10,10v1.7109375q0,10 10,10h82.703125q10,0 10,-10v-1.7109375q0,-10 -10,-10M107.703125,36.7109375l5,-5m-5,5l-5,-5"></path><g class="any-character" transform="matrix(1,0,0,1,15,10)"><g class="label"><rect width="82.703125" height="23.421875"></rect><text x="0" y="0" transform="matrix(1,0,0,1,5,16.7109)"><tspan>any character</tspan></text></g></g></g><g class="match-fragment literal" transform="matrix(1,0,0,1,417.4375,35.3984)"><g class="label"><rect width="44.6875" height="23.421875" rx="3" ry="3"></rect><text x="0" y="0" transform="matrix(1,0,0,1,5,16.7109)"><tspan class="quote">“</tspan><tspan> data</tspan><tspan class="quote">”</tspan></text></g></g></g><g class="match" transform="matrix(1,0,0,1,103.3593,252.8281)"><path d="M104.03125,86.9141353881836H139.0313M221.734425,86.9140375H256.7344"></path><g class="match-fragment subexp" transform="matrix(1,0,0,1,0,25.5938)"><rect class="subexp-box" rx="3" ry="3" transform="matrix(1,0,0,1,0,11.1875)" width="114.03125" height="100.26567077636719"></rect><text x="0" y="0" class="subexp-label" transform="matrix(1,0,0,1,0,11.1875)"><tspan>group #4</tspan></text><g class="regexp" transform="matrix(1,0,0,1,10,21.1875)"><path d="M10,21.7109375q0,-10 10,-10M84.03125,21.7109375q0,-10 -10,-10M0,40.132835388183594c10,0 10,0.000002111816407079914 20,0.000002111816407079914M94.03125,40.132835388183594c-10,0 -10,0.000002111816407079914 -20,0.000002111816407079914M10,58.5547375q0,10 10,10M84.03125,58.5547375q0,10 -10,10M0,40.132835388183594q10,0 10,-10V21.7109375M94.03125,40.132835388183594q-10,0 -10,-10V21.7109375M0,40.132835388183594q10,0 10,10V58.5547375M94.03125,40.132835388183594q-10,0 -10,10V58.5547375"></path><g class="regexp-matches" transform="matrix(1,0,0,1,20,0)"><path d="M0,11.7109375h4.0078M50.023425,11.7109375H54.03125M0,40.1328375h8.0078M46.023425,40.1328375H54.03125M0,68.5547375h0M54.03125,68.5547375H54.03125"></path><g class="match match-fragment literal" transform="matrix(1,0,0,1,4.0078,0)"><g class="label"><rect width="46.015625" height="23.421875" rx="3" ry="3"></rect><text x="0" y="0" transform="matrix(1,0,0,1,5,16.7109)"><tspan class="quote">“</tspan><tspan>weak</tspan><tspan class="quote">”</tspan></text></g></g><g class="match match-fragment literal" transform="matrix(1,0,0,1,8.0078,28.4219)"><g class="label"><rect width="38.015625" height="23.421875" rx="3" ry="3"></rect><text x="0" y="0" transform="matrix(1,0,0,1,5,16.7109)"><tspan class="quote">“</tspan><tspan>bad</tspan><tspan class="quote">”</tspan></text></g></g><g class="match match-fragment literal" transform="matrix(1,0,0,1,0,56.8438)"><g class="label"><rect width="54.03125" height="23.421875" rx="3" ry="3"></rect><text x="0" y="0" transform="matrix(1,0,0,1,5,16.7109)"><tspan class="quote">“</tspan><tspan>unsafe</tspan><tspan class="quote">”</tspan></text></g></g></g></g></g><g class="match-fragment" transform="matrix(1,0,0,1,124.0313,65.2031)"><path d="M0,21.7109375q10,0 10,-10v-1.7109375q0,-10 10,-10h72.703125q10,0 10,10v1.7109375q0,10 10,10M15,21.7109375q-10,0 -10,10v1.7109375q0,10 10,10h82.703125q10,0 10,-10v-1.7109375q0,-10 -10,-10M107.703125,36.7109375l5,-5m-5,5l-5,-5"></path><g class="any-character" transform="matrix(1,0,0,1,15,10)"><g class="label"><rect width="82.703125" height="23.421875"></rect><text x="0" y="0" transform="matrix(1,0,0,1,5,16.7109)"><tspan>any character</tspan></text></g></g></g><g class="match-fragment subexp" transform="matrix(1,0,0,1,246.7344,0)"><rect class="subexp-box" rx="3" ry="3" transform="matrix(1,0,0,1,0,11.1875)" width="283.4062805175781" height="151.4531707763672"></rect><text x="0" y="0" class="subexp-label" transform="matrix(1,0,0,1,0,11.1875)"><tspan>group #5</tspan></text><g class="regexp" transform="matrix(1,0,0,1,10,21.1875)"><path d="M10,31.7109375q0,-10 10,-10M253.40628051757812,31.7109375q0,-10 -10,-10M10,85.5312375q0,10 10,10M253.40628051757812,85.5312375q0,10 -10,10M0,65.7265853881836q10,0 10,-10V31.7109375M263.4062805175781,65.7265853881836q-10,0 -10,-10V31.7109375M0,65.7265853881836q10,0 10,10V85.5312375M263.4062805175781,65.7265853881836q-10,0 -10,10V85.5312375"></path><g class="regexp-matches" transform="matrix(1,0,0,1,20,0)"><path d="M0,21.7109375h0M223.406275,21.7109375H223.40628051757812M0,95.5312375h12.6797M200.726575,95.5312375H223.40628051757812"></path><g class="match" transform="matrix(1,0,0,1,0,0)"><path d="M43.34375,21.7109375H68.3438M151.046925,21.7109375H176.0469"></path><g class="match-fragment literal" transform="matrix(1,0,0,1,0,10)"><g class="label"><rect width="43.34375" height="23.421875" rx="3" ry="3"></rect><text x="0" y="0" transform="matrix(1,0,0,1,5,16.7109)"><tspan class="quote">“</tspan><tspan>pass</tspan><tspan class="quote">”</tspan></text></g></g><g class="match-fragment" transform="matrix(1,0,0,1,53.3438,0)"><path d="M0,21.7109375q10,0 10,-10v-1.7109375q0,-10 10,-10h72.703125q10,0 10,10v1.7109375q0,10 10,10M15,21.7109375q-10,0 -10,10v1.7109375q0,10 10,10h82.703125q10,0 10,-10v-1.7109375q0,-10 -10,-10M107.703125,36.7109375l5,-5m-5,5l-5,-5"></path><g class="any-character" transform="matrix(1,0,0,1,15,10)"><g class="label"><rect width="82.703125" height="23.421875"></rect><text x="0" y="0" transform="matrix(1,0,0,1,5,16.7109)"><tspan>any character</tspan></text></g></g></g><g class="match-fragment literal" transform="matrix(1,0,0,1,176.0469,10)"><g class="label"><rect width="47.359375" height="23.421875" rx="3" ry="3"></rect><text x="0" y="0" transform="matrix(1,0,0,1,5,16.7109)"><tspan class="quote">“</tspan><tspan> hash</tspan><tspan class="quote">”</tspan></text></g></g></g><g class="match" transform="matrix(1,0,0,1,12.6797,48.4219)"><path d="M40,47.1093375H60"></path><g class="match-fragment literal" transform="matrix(1,0,0,1,0,35.3984)"><g class="label"><rect width="40" height="23.421875" rx="3" ry="3"></rect><text x="0" y="0" transform="matrix(1,0,0,1,5,16.7109)"><tspan class="quote">“</tspan><tspan>key </tspan><tspan class="quote">”</tspan></text></g></g><g class="match-fragment subexp" transform="matrix(1,0,0,1,50,0)"><rect class="subexp-box" rx="3" ry="3" transform="matrix(1,0,0,1,0,11.1875)" width="148.046875" height="71.8437728881836"></rect><text x="0" y="0" class="subexp-label" transform="matrix(1,0,0,1,0,11.1875)"><tspan>group #6</tspan></text><g class="regexp" transform="matrix(1,0,0,1,10,21.1875)"><path d="M0,25.921886444091797c10,0 10,-14.210948944091797 20,-14.210948944091797M128.046875,25.921886444091797c-10,0 -10,-14.210948944091797 -20,-14.210948944091797M0,25.921886444091797c10,0 10,14.210951055908204 20,14.210951055908204M128.046875,25.921886444091797c-10,0 -10,14.210951055908204 -20,14.210951055908204"></path><g class="regexp-matches" transform="matrix(1,0,0,1,20,0)"><path d="M0,11.7109375h19.6797M68.3672,11.7109375H88.046875M0,40.1328375h0M88.046875,40.1328375H88.046875"></path><g class="match match-fragment literal" transform="matrix(1,0,0,1,19.6797,0)"><g class="label"><rect width="48.6875" height="23.421875" rx="3" ry="3"></rect><text x="0" y="0" transform="matrix(1,0,0,1,5,16.7109)"><tspan class="quote">“</tspan><tspan>gener</tspan><tspan class="quote">”</tspan></text></g></g><g class="match match-fragment literal" transform="matrix(1,0,0,1,0,28.4219)"><g class="label"><rect width="88.046875" height="23.421875" rx="3" ry="3"></rect><text x="0" y="0" transform="matrix(1,0,0,1,5,16.7109)"><tspan class="quote">“</tspan><tspan>management</tspan><tspan class="quote">”</tspan></text></g></g></g></g></g></g></g></g></g></g><g class="match" transform="matrix(1,0,0,1,138.7187,416.2188)"><path d="M118.015625,47.1093864440918H153.0156M235.718725,47.109337499999995H260.7188M319.421925,47.1093375H354.4219M378.4219,47.1093375H413.4219"></path><g class="match-fragment subexp" transform="matrix(1,0,0,1,0,0)"><rect class="subexp-box" rx="3" ry="3" transform="matrix(1,0,0,1,0,11.1875)" width="128.015625" height="71.8437728881836"></rect><text x="0" y="0" class="subexp-label" transform="matrix(1,0,0,1,0,11.1875)"><tspan>group #7</tspan></text><g class="regexp" transform="matrix(1,0,0,1,10,21.1875)"><path d="M0,25.921886444091797c10,0 10,-14.210948944091797 20,-14.210948944091797M108.015625,25.921886444091797c-10,0 -10,-14.210948944091797 -20,-14.210948944091797M0,25.921886444091797c10,0 10,14.210951055908204 20,14.210951055908204M108.015625,25.921886444091797c-10,0 -10,14.210951055908204 -20,14.210951055908204"></path><g class="regexp-matches" transform="matrix(1,0,0,1,20,0)"><path d="M0,11.7109375h0M68.015625,11.7109375H68.015625M0,40.1328375h13.6641M54.3516,40.1328375H68.015625"></path><g class="match match-fragment literal" transform="matrix(1,0,0,1,0,0)"><g class="label"><rect width="68.015625" height="23.421875" rx="3" ry="3"></rect><text x="0" y="0" transform="matrix(1,0,0,1,5,16.7109)"><tspan class="quote">“</tspan><tspan>important</tspan><tspan class="quote">”</tspan></text></g></g><g class="match match-fragment literal" transform="matrix(1,0,0,1,13.6641,28.4219)"><g class="label"><rect width="40.6875" height="23.421875" rx="3" ry="3"></rect><text x="0" y="0" transform="matrix(1,0,0,1,5,16.7109)"><tspan class="quote">“</tspan><tspan>safe</tspan><tspan class="quote">”</tspan></text></g></g></g></g></g><g class="match-fragment" transform="matrix(1,0,0,1,138.0156,25.3984)"><path d="M0,21.7109375q10,0 10,-10v-1.7109375q0,-10 10,-10h72.703125q10,0 10,10v1.7109375q0,10 10,10M15,21.7109375q-10,0 -10,10v1.7109375q0,10 10,10h82.703125q10,0 10,-10v-1.7109375q0,-10 -10,-10M107.703125,36.7109375l5,-5m-5,5l-5,-5"></path><g class="any-character" transform="matrix(1,0,0,1,15,10)"><g class="label"><rect width="82.703125" height="23.421875"></rect><text x="0" y="0" transform="matrix(1,0,0,1,5,16.7109)"><tspan>any character</tspan></text></g></g></g><g class="match-fragment literal" transform="matrix(1,0,0,1,260.7188,35.3984)"><g class="label"><rect width="58.703125" height="23.421875" rx="3" ry="3"></rect><text x="0" y="0" transform="matrix(1,0,0,1,5,16.7109)"><tspan class="quote">“</tspan><tspan> header</tspan><tspan class="quote">”</tspan></text></g></g><g class="match-fragment" transform="matrix(1,0,0,1,329.4219,4.2109)"><path d="M0,42.8984375q10,0 10,-10v-18.6484375q0,-10 10,-10h34q10,0 10,10v18.6484375q0,10 10,10"></path><g class="subexp" transform="matrix(1,0,0,1,15,10)"><rect class="subexp-box" rx="3" ry="3" transform="matrix(1,0,0,1,0,11.1875)" width="44" height="43.421875"></rect><text x="0" y="0" class="subexp-label" transform="matrix(1,0,0,1,0,11.1875)"><tspan>group #8</tspan></text><g class="regexp match match-fragment literal" transform="matrix(1,0,0,1,10,21.1875)"><g class="label"><rect width="24" height="23.421875" rx="3" ry="3"></rect><text x="0" y="0" transform="matrix(1,0,0,1,5,16.7109)"><tspan class="quote">“</tspan><tspan>s</tspan><tspan class="quote">”</tspan></text></g></g></g></g><g class="match-fragment literal" transform="matrix(1,0,0,1,413.4219,35.3984)"><g class="label"><rect width="46" height="23.421875" rx="3" ry="3"></rect><text x="0" y="0" transform="matrix(1,0,0,1,5,16.7109)"><tspan class="quote">“</tspan><tspan> miss</tspan><tspan class="quote">”</tspan></text></g></g></g><g class="match" transform="matrix(1,0,0,1,248.0547,500.0001)"><path d="M54.03125,21.7109375H79.0313M161.734425,21.7109375H186.7344"></path><g class="match-fragment literal" transform="matrix(1,0,0,1,0,10)"><g class="label"><rect width="54.03125" height="23.421875" rx="3" ry="3"></rect><text x="0" y="0" transform="matrix(1,0,0,1,5,16.7109)"><tspan class="quote">“</tspan><tspan>unsafe</tspan><tspan class="quote">”</tspan></text></g></g><g class="match-fragment" transform="matrix(1,0,0,1,64.0313,0)"><path d="M0,21.7109375q10,0 10,-10v-1.7109375q0,-10 10,-10h72.703125q10,0 10,10v1.7109375q0,10 10,10M15,21.7109375q-10,0 -10,10v1.7109375q0,10 10,10h82.703125q10,0 10,-10v-1.7109375q0,-10 -10,-10M107.703125,36.7109375l5,-5m-5,5l-5,-5"></path><g class="any-character" transform="matrix(1,0,0,1,15,10)"><g class="label"><rect width="82.703125" height="23.421875"></rect><text x="0" y="0" transform="matrix(1,0,0,1,5,16.7109)"><tspan>any character</tspan></text></g></g></g><g class="match-fragment literal" transform="matrix(1,0,0,1,186.7344,10)"><g class="label"><rect width="54.015625" height="23.421875" rx="3" ry="3"></rect><text x="0" y="0" transform="matrix(1,0,0,1,5,16.7109)"><tspan class="quote">“</tspan><tspan> crypto</tspan><tspan class="quote">”</tspan></text></g></g></g><g class="match" transform="matrix(1,0,0,1,0,548.422)"><path d="M107.375,61.320335388183594H142.375M225.078125,61.3203375H250.0781M271.406225,61.320337499999994H291.4063"></path><g class="match-fragment subexp" transform="matrix(1,0,0,1,0,0)"><rect class="subexp-box" rx="3" ry="3" transform="matrix(1,0,0,1,0,11.1875)" width="117.375" height="100.26567077636719"></rect><text x="0" y="0" class="subexp-label" transform="matrix(1,0,0,1,0,11.1875)"><tspan>group #9</tspan></text><g class="regexp" transform="matrix(1,0,0,1,10,21.1875)"><path d="M10,21.7109375q0,-10 10,-10M87.375,21.7109375q0,-10 -10,-10M0,40.132835388183594c10,0 10,0.000002111816407079914 20,0.000002111816407079914M97.375,40.132835388183594c-10,0 -10,0.000002111816407079914 -20,0.000002111816407079914M10,58.5547375q0,10 10,10M87.375,58.5547375q0,10 -10,10M0,40.132835388183594q10,0 10,-10V21.7109375M97.375,40.132835388183594q-10,0 -10,-10V21.7109375M0,40.132835388183594q10,0 10,10V58.5547375M97.375,40.132835388183594q-10,0 -10,10V58.5547375"></path><g class="regexp-matches" transform="matrix(1,0,0,1,20,0)"><path d="M0,11.7109375h0M57.375,11.7109375H57.375M0,40.1328375h1.3359M56.039025,40.1328375H57.375M0,68.5547375h9.6797M47.695325,68.5547375H57.375"></path><g class="match match-fragment literal" transform="matrix(1,0,0,1,0,0)"><g class="label"><rect width="57.375" height="23.421875" rx="3" ry="3"></rect><text x="0" y="0" transform="matrix(1,0,0,1,5,16.7109)"><tspan class="quote">“</tspan><tspan>change</tspan><tspan class="quote">”</tspan></text></g></g><g class="match match-fragment literal" transform="matrix(1,0,0,1,1.3359,28.4219)"><g class="label"><rect width="54.703125" height="23.421875" rx="3" ry="3"></rect><text x="0" y="0" transform="matrix(1,0,0,1,5,16.7109)"><tspan class="quote">“</tspan><tspan>update</tspan><tspan class="quote">”</tspan></text></g></g><g class="match match-fragment literal" transform="matrix(1,0,0,1,9.6797,56.8438)"><g class="label"><rect width="38.015625" height="23.421875" rx="3" ry="3"></rect><text x="0" y="0" transform="matrix(1,0,0,1,5,16.7109)"><tspan class="quote">“</tspan><tspan>add</tspan><tspan class="quote">”</tspan></text></g></g></g></g></g><g class="match-fragment" transform="matrix(1,0,0,1,127.375,39.6094)"><path d="M0,21.7109375q10,0 10,-10v-1.7109375q0,-10 10,-10h72.703125q10,0 10,10v1.7109375q0,10 10,10M15,21.7109375q-10,0 -10,10v1.7109375q0,10 10,10h82.703125q10,0 10,-10v-1.7109375q0,-10 -10,-10M107.703125,36.7109375l5,-5m-5,5l-5,-5"></path><g class="any-character" transform="matrix(1,0,0,1,15,10)"><g class="label"><rect width="82.703125" height="23.421875"></rect><text x="0" y="0" transform="matrix(1,0,0,1,5,16.7109)"><tspan>any character</tspan></text></g></g></g><g class="match-fragment literal" transform="matrix(1,0,0,1,250.0781,49.6094)"><g class="label"><rect width="21.328125" height="23.421875" rx="3" ry="3"></rect><text x="0" y="0" transform="matrix(1,0,0,1,5,16.7109)"><tspan class="quote">“</tspan><tspan> </tspan><tspan class="quote">”</tspan></text></g></g><g class="match-fragment subexp" transform="matrix(1,0,0,1,281.4063,4.2109)"><rect class="subexp-box" rx="3" ry="3" transform="matrix(1,0,0,1,0,11.1875)" width="455.4530944824219" height="91.8437728881836"></rect><text x="0" y="0" class="subexp-label" transform="matrix(1,0,0,1,0,11.1875)"><tspan>group #10</tspan></text><g class="regexp" transform="matrix(1,0,0,1,10,21.1875)"><path d="M10,21.7109375q0,-10 10,-10M425.4530944824219,21.7109375q0,-10 -10,-10M0,35.9218864440918c10,0 10,14.210951055908204 20,14.210951055908204M435.4530944824219,35.9218864440918c-10,0 -10,14.210951055908204 -20,14.210951055908204M0,35.9218864440918q10,0 10,-10V21.7109375M435.4530944824219,35.9218864440918q-10,0 -10,-10V21.7109375"></path><g class="regexp-matches" transform="matrix(1,0,0,1,20,0)"><path d="M0,11.7109375h175.7187M219.734325,11.7109375H395.4530944824219M0,50.1328375h0M395.4531,50.1328375H395.4530944824219"></path><g class="match match-fragment literal" transform="matrix(1,0,0,1,175.7187,0)"><g class="label"><rect width="44.015625" height="23.421875" rx="3" ry="3"></rect><text x="0" y="0" transform="matrix(1,0,0,1,5,16.7109)"><tspan class="quote">“</tspan><tspan>https</tspan><tspan class="quote">”</tspan></text></g></g><g class="match" transform="matrix(1,0,0,1,0,28.4219)"><path d="M36.671875,21.7109375H61.6719M144.375025,21.7109375H169.375M222.0625,21.7109375H247.0625M329.765625,21.7109375H354.7656"></path><g class="match-fragment literal" transform="matrix(1,0,0,1,0,10)"><g class="label"><rect width="36.671875" height="23.421875" rx="3" ry="3"></rect><text x="0" y="0" transform="matrix(1,0,0,1,5,16.7109)"><tspan class="quote">“</tspan><tspan>sec</tspan><tspan class="quote">”</tspan></text></g></g><g class="match-fragment" transform="matrix(1,0,0,1,46.6719,0)"><path d="M0,21.7109375q10,0 10,-10v-1.7109375q0,-10 10,-10h72.703125q10,0 10,10v1.7109375q0,10 10,10M15,21.7109375q-10,0 -10,10v1.7109375q0,10 10,10h82.703125q10,0 10,-10v-1.7109375q0,-10 -10,-10M107.703125,36.7109375l5,-5m-5,5l-5,-5"></path><g class="any-character" transform="matrix(1,0,0,1,15,10)"><g class="label"><rect width="82.703125" height="23.421875"></rect><text x="0" y="0" transform="matrix(1,0,0,1,5,16.7109)"><tspan>any character</tspan></text></g></g></g><g class="match-fragment literal" transform="matrix(1,0,0,1,169.375,10)"><g class="label"><rect width="52.6875" height="23.421875" rx="3" ry="3"></rect><text x="0" y="0" transform="matrix(1,0,0,1,5,16.7109)"><tspan class="quote">“</tspan><tspan>cookie</tspan><tspan class="quote">”</tspan></text></g></g><g class="match-fragment" transform="matrix(1,0,0,1,232.0625,0)"><path d="M0,21.7109375q10,0 10,-10v-1.7109375q0,-10 10,-10h72.703125q10,0 10,10v1.7109375q0,10 10,10M15,21.7109375q-10,0 -10,10v1.7109375q0,10 10,10h82.703125q10,0 10,-10v-1.7109375q0,-10 -10,-10M107.703125,36.7109375l5,-5m-5,5l-5,-5"></path><g class="any-character" transform="matrix(1,0,0,1,15,10)"><g class="label"><rect width="82.703125" height="23.421875"></rect><text x="0" y="0" transform="matrix(1,0,0,1,5,16.7109)"><tspan>any character</tspan></text></g></g></g><g class="match-fragment literal" transform="matrix(1,0,0,1,354.7656,10)"><g class="label"><rect width="40.6875" height="23.421875" rx="3" ry="3"></rect><text x="0" y="0" transform="matrix(1,0,0,1,5,16.7109)"><tspan class="quote">“</tspan><tspan> flag</tspan><tspan class="quote">”</tspan></text></g></g></g></g></g></g></g><g class="match" transform="matrix(1,0,0,1,262.0703,660.6251)"><path d="M38.671875,21.7109375H63.6719M146.375025,21.7109375H171.375"></path><g class="match-fragment literal" transform="matrix(1,0,0,1,0,10)"><g class="label"><rect width="38.671875" height="23.421875" rx="3" ry="3"></rect><text x="0" y="0" transform="matrix(1,0,0,1,5,16.7109)"><tspan class="quote">“</tspan><tspan>rem</tspan><tspan class="quote">”</tspan></text></g></g><g class="match-fragment" transform="matrix(1,0,0,1,48.6719,0)"><path d="M0,21.7109375q10,0 10,-10v-1.7109375q0,-10 10,-10h72.703125q10,0 10,10v1.7109375q0,10 10,10M15,21.7109375q-10,0 -10,10v1.7109375q0,10 10,10h82.703125q10,0 10,-10v-1.7109375q0,-10 -10,-10M107.703125,36.7109375l5,-5m-5,5l-5,-5"></path><g class="any-character" transform="matrix(1,0,0,1,15,10)"><g class="label"><rect width="82.703125" height="23.421875"></rect><text x="0" y="0" transform="matrix(1,0,0,1,5,16.7109)"><tspan>any character</tspan></text></g></g></g><g class="match-fragment literal" transform="matrix(1,0,0,1,171.375,10)"><g class="label"><rect width="41.34375" height="23.421875" rx="3" ry="3"></rect><text x="0" y="0" transform="matrix(1,0,0,1,5,16.7109)"><tspan class="quote">“</tspan><tspan> http</tspan><tspan class="quote">”</tspan></text></g></g></g><g class="match" transform="matrix(1,0,0,1,97.0547,709.047)"><path d="M88.671875,57.1093864440918H123.6719M206.375025,57.1094375H231.375M252.703125,57.1094375H272.7031"></path><g class="match-fragment subexp" transform="matrix(1,0,0,1,0,10)"><rect class="subexp-box" rx="3" ry="3" transform="matrix(1,0,0,1,0,11.1875)" width="98.671875" height="71.8437728881836"></rect><text x="0" y="0" class="subexp-label" transform="matrix(1,0,0,1,0,11.1875)"><tspan>group #11</tspan></text><g class="regexp" transform="matrix(1,0,0,1,10,21.1875)"><path d="M0,25.921886444091797c10,0 10,-14.210948944091797 20,-14.210948944091797M78.671875,25.921886444091797c-10,0 -10,-14.210948944091797 -20,-14.210948944091797M0,25.921886444091797c10,0 10,14.210951055908204 20,14.210951055908204M78.671875,25.921886444091797c-10,0 -10,14.210951055908204 -20,14.210951055908204"></path><g class="regexp-matches" transform="matrix(1,0,0,1,20,0)"><path d="M0,11.7109375h4.3359M34.3359,11.7109375H38.671875M0,40.1328375h0M38.671875,40.1328375H38.671875"></path><g class="match match-fragment literal" transform="matrix(1,0,0,1,4.3359,0)"><g class="label"><rect width="30" height="23.421875" rx="3" ry="3"></rect><text x="0" y="0" transform="matrix(1,0,0,1,5,16.7109)"><tspan class="quote">“</tspan><tspan>fix</tspan><tspan class="quote">”</tspan></text></g></g><g class="match match-fragment literal" transform="matrix(1,0,0,1,0,28.4219)"><g class="label"><rect width="38.671875" height="23.421875" rx="3" ry="3"></rect><text x="0" y="0" transform="matrix(1,0,0,1,5,16.7109)"><tspan class="quote">“</tspan><tspan>rem</tspan><tspan class="quote">”</tspan></text></g></g></g></g></g><g class="match-fragment" transform="matrix(1,0,0,1,108.6719,35.3985)"><path d="M0,21.7109375q10,0 10,-10v-1.7109375q0,-10 10,-10h72.703125q10,0 10,10v1.7109375q0,10 10,10M15,21.7109375q-10,0 -10,10v1.7109375q0,10 10,10h82.703125q10,0 10,-10v-1.7109375q0,-10 -10,-10M107.703125,36.7109375l5,-5m-5,5l-5,-5"></path><g class="any-character" transform="matrix(1,0,0,1,15,10)"><g class="label"><rect width="82.703125" height="23.421875"></rect><text x="0" y="0" transform="matrix(1,0,0,1,5,16.7109)"><tspan>any character</tspan></text></g></g></g><g class="match-fragment literal" transform="matrix(1,0,0,1,231.375,45.3985)"><g class="label"><rect width="21.328125" height="23.421875" rx="3" ry="3"></rect><text x="0" y="0" transform="matrix(1,0,0,1,5,16.7109)"><tspan class="quote">“</tspan><tspan> </tspan><tspan class="quote">”</tspan></text></g></g><g class="match-fragment subexp" transform="matrix(1,0,0,1,262.7031,0)"><rect class="subexp-box" rx="3" ry="3" transform="matrix(1,0,0,1,0,11.1875)" width="280.046875" height="91.84378051757812"></rect><text x="0" y="0" class="subexp-label" transform="matrix(1,0,0,1,0,11.1875)"><tspan>group #12</tspan></text><g class="regexp" transform="matrix(1,0,0,1,10,21.1875)"><path d="M0,35.92189025878906c10,0 10,-14.210952758789062 20,-14.210952758789062M260.046875,35.92189025878906c-10,0 -10,-14.210952758789062 -20,-14.210952758789062M10,50.132837499999994q0,10 10,10M250.046875,50.132837499999994q0,10 -10,10M0,35.92189025878906q10,0 10,10V50.132837499999994M260.046875,35.92189025878906q-10,0 -10,10V50.132837499999994"></path><g class="regexp-matches" transform="matrix(1,0,0,1,20,0)"><path d="M0,21.7109375h0M220.046875,21.7109375H220.046875M0,60.132837499999994h65M155.046875,60.132837499999994H220.046875"></path><g class="match" transform="matrix(1,0,0,1,0,0)"><path d="M50.671875,21.7109375H75.6719M158.375025,21.7109375H183.375"></path><g class="match-fragment literal" transform="matrix(1,0,0,1,0,10)"><g class="label"><rect width="50.671875" height="23.421875" rx="3" ry="3"></rect><text x="0" y="0" transform="matrix(1,0,0,1,5,16.7109)"><tspan class="quote">“</tspan><tspan>secret</tspan><tspan class="quote">”</tspan></text></g></g><g class="match-fragment" transform="matrix(1,0,0,1,60.6719,0)"><path d="M0,21.7109375q10,0 10,-10v-1.7109375q0,-10 10,-10h72.703125q10,0 10,10v1.7109375q0,10 10,10M15,21.7109375q-10,0 -10,10v1.7109375q0,10 10,10h82.703125q10,0 10,-10v-1.7109375q0,-10 -10,-10M107.703125,36.7109375l5,-5m-5,5l-5,-5"></path><g class="any-character" transform="matrix(1,0,0,1,15,10)"><g class="label"><rect width="82.703125" height="23.421875"></rect><text x="0" y="0" transform="matrix(1,0,0,1,5,16.7109)"><tspan>any character</tspan></text></g></g></g><g class="match-fragment literal" transform="matrix(1,0,0,1,183.375,10)"><g class="label"><rect width="36.671875" height="23.421875" rx="3" ry="3"></rect><text x="0" y="0" transform="matrix(1,0,0,1,5,16.7109)"><tspan class="quote">“</tspan><tspan>key</tspan><tspan class="quote">”</tspan></text></g></g></g><g class="match match-fragment literal" transform="matrix(1,0,0,1,65,48.4219)"><g class="label"><rect width="90.046875" height="23.421875" rx="3" ry="3"></rect><text x="0" y="0" transform="matrix(1,0,0,1,5,16.7109)"><tspan class="quote">“</tspan><tspan>hash collision</tspan><tspan class="quote">”</tspan></text></g></g></g></g></g></g><g class="match" transform="matrix(1,0,0,1,98.3906,812.8283)"><path d="M112.03125,138.7577875H147.0313M229.734425,138.7578375H254.7344M276.062525,138.7578375H296.0625"></path><g class="match-fragment subexp" transform="matrix(1,0,0,1,0,49.0156)"><rect class="subexp-box" rx="3" ry="3" transform="matrix(1,0,0,1,0,11.1875)" width="122.03125" height="157.109375"></rect><text x="0" y="0" class="subexp-label" transform="matrix(1,0,0,1,0,11.1875)"><tspan>group #13</tspan></text><g class="regexp" transform="matrix(1,0,0,1,10,21.1875)"><path d="M10,21.7109375q0,-10 10,-10M92.03125,21.7109375q0,-10 -10,-10M10,50.1328375q0,-10 10,-10M92.03125,50.1328375q0,-10 -10,-10M0,68.5546875c10,0 10,0.00005000000000165983 20,0.00005000000000165983M102.03125,68.5546875c-10,0 -10,0.00005000000000165983 -20,0.00005000000000165983M10,86.9765375q0,10 10,10M92.03125,86.9765375q0,10 -10,10M10,115.3984375q0,10 10,10M92.03125,115.3984375q0,10 -10,10M0,68.5546875q10,0 10,-10V21.7109375M102.03125,68.5546875q-10,0 -10,-10V21.7109375M0,68.5546875q10,0 10,10V115.3984375M102.03125,68.5546875q-10,0 -10,10V115.3984375"></path><g class="regexp-matches" transform="matrix(1,0,0,1,20,0)"><path d="M0,11.7109375h7.3359M54.695275,11.7109375H62.03125M0,40.1328375h16.0156M46.0156,40.1328375H62.03125M0,68.5547375h2M60.03125,68.5547375H62.03125M0,96.9765375h0M62.03125,96.9765375H62.03125M0,125.3984375h3.6719M58.3594,125.3984375H62.03125"></path><g class="match match-fragment literal" transform="matrix(1,0,0,1,7.3359,0)"><g class="label"><rect width="47.359375" height="23.421875" rx="3" ry="3"></rect><text x="0" y="0" transform="matrix(1,0,0,1,5,16.7109)"><tspan class="quote">“</tspan><tspan>patch</tspan><tspan class="quote">”</tspan></text></g></g><g class="match match-fragment literal" transform="matrix(1,0,0,1,16.0156,28.4219)"><g class="label"><rect width="30" height="23.421875" rx="3" ry="3"></rect><text x="0" y="0" transform="matrix(1,0,0,1,5,16.7109)"><tspan class="quote">“</tspan><tspan>fix</tspan><tspan class="quote">”</tspan></text></g></g><g class="match match-fragment literal" transform="matrix(1,0,0,1,2,56.8438)"><g class="label"><rect width="58.03125" height="23.421875" rx="3" ry="3"></rect><text x="0" y="0" transform="matrix(1,0,0,1,5,16.7109)"><tspan class="quote">“</tspan><tspan>prevent</tspan><tspan class="quote">”</tspan></text></g></g><g class="match match-fragment literal" transform="matrix(1,0,0,1,0,85.2656)"><g class="label"><rect width="62.03125" height="23.421875" rx="3" ry="3"></rect><text x="0" y="0" transform="matrix(1,0,0,1,5,16.7109)"><tspan class="quote">“</tspan><tspan>upgrade</tspan><tspan class="quote">”</tspan></text></g></g><g class="match match-fragment literal" transform="matrix(1,0,0,1,3.6719,113.6875)"><g class="label"><rect width="54.6875" height="23.421875" rx="3" ry="3"></rect><text x="0" y="0" transform="matrix(1,0,0,1,5,16.7109)"><tspan class="quote">“</tspan><tspan>protect</tspan><tspan class="quote">”</tspan></text></g></g></g></g></g><g class="match-fragment" transform="matrix(1,0,0,1,132.0313,117.0469)"><path d="M0,21.7109375q10,0 10,-10v-1.7109375q0,-10 10,-10h72.703125q10,0 10,10v1.7109375q0,10 10,10M15,21.7109375q-10,0 -10,10v1.7109375q0,10 10,10h82.703125q10,0 10,-10v-1.7109375q0,-10 -10,-10M107.703125,36.7109375l5,-5m-5,5l-5,-5"></path><g class="any-character" transform="matrix(1,0,0,1,15,10)"><g class="label"><rect width="82.703125" height="23.421875"></rect><text x="0" y="0" transform="matrix(1,0,0,1,5,16.7109)"><tspan>any character</tspan></text></g></g></g><g class="match-fragment literal" transform="matrix(1,0,0,1,254.7344,127.0469)"><g class="label"><rect width="21.328125" height="23.421875" rx="3" ry="3"></rect><text x="0" y="0" transform="matrix(1,0,0,1,5,16.7109)"><tspan class="quote">“</tspan><tspan> </tspan><tspan class="quote">”</tspan></text></g></g><g class="match-fragment subexp" transform="matrix(1,0,0,1,286.0625,0)"><rect class="subexp-box" rx="3" ry="3" transform="matrix(1,0,0,1,0,11.1875)" width="254.0156707763672" height="246.6406707763672"></rect><text x="0" y="0" class="subexp-label" transform="matrix(1,0,0,1,0,11.1875)"><tspan>group #14</tspan></text><g class="regexp" transform="matrix(1,0,0,1,10,21.1875)"><path d="M10,67.10933750000001q0,-10 10,-10M224.0156707763672,67.10933750000001q0,-10 -10,-10M0,117.5703353881836c10,0 10,-12.078097888183592 20,-12.078097888183592M234.0156707763672,117.5703353881836c-10,0 -10,-12.078097888183592 -20,-12.078097888183592M10,123.9140375q0,10 10,10M224.0156707763672,123.9140375q0,10 -10,10M10,152.3359375q0,10 10,10M224.0156707763672,152.3359375q0,10 -10,10M10,180.7578375q0,10 10,10M224.0156707763672,180.7578375q0,10 -10,10M10,209.1797375q0,10 10,10M224.0156707763672,209.1797375q0,10 -10,10M0,117.5703353881836q10,0 10,-10V67.10933750000001M234.0156707763672,117.5703353881836q-10,0 -10,-10V67.10933750000001M0,117.5703353881836q10,0 10,10V209.1797375M234.0156707763672,117.5703353881836q-10,0 -10,10V209.1797375"></path><g class="regexp-matches" transform="matrix(1,0,0,1,20,0)"><path d="M0,57.10933750000001h0M194.015675,57.10933750000001H194.0156707763672M0,105.4922375h76.336M117.67975,105.4922375H194.0156707763672M0,133.9140375h76.336M117.67975,133.9140375H194.0156707763672M0,162.3359375h76.336M117.67975,162.3359375H194.0156707763672M0,190.7578375h75M119.015625,190.7578375H194.0156707763672M0,219.1797375h66.6641M127.3516,219.1797375H194.0156707763672"></path><g class="match" transform="matrix(1,0,0,1,0,0)"><path d="M37.34375,57.10933750000001H72.3438M134.3438,57.1093864440918H169.3438"></path><g class="match-fragment literal" transform="matrix(1,0,0,1,0,45.3984)"><g class="label"><rect width="37.34375" height="23.421875" rx="3" ry="3"></rect><text x="0" y="0" transform="matrix(1,0,0,1,5,16.7109)"><tspan class="quote">“</tspan><tspan>sha</tspan><tspan class="quote">”</tspan></text></g></g><g class="match-fragment" transform="matrix(1,0,0,1,47.3438,0)"><path d="M0,57.1093864440918q10,0 10,-10v-32.8593864440918q0,-10 10,-10h72q10,0 10,10v32.8593864440918q0,10 10,10"></path><g class="subexp" transform="matrix(1,0,0,1,15,10)"><rect class="subexp-box" rx="3" ry="3" transform="matrix(1,0,0,1,0,11.1875)" width="82" height="71.8437728881836"></rect><text x="0" y="0" class="subexp-label" transform="matrix(1,0,0,1,0,11.1875)"><tspan>group #15</tspan></text><g class="regexp" transform="matrix(1,0,0,1,10,21.1875)"><path d="M0,25.921886444091797c10,0 10,-14.210948944091797 20,-14.210948944091797M62,25.921886444091797c-10,0 -10,-14.210948944091797 -20,-14.210948944091797M0,25.921886444091797c10,0 10,14.210951055908204 20,14.210951055908204M62,25.921886444091797c-10,0 -10,14.210951055908204 -20,14.210951055908204"></path><g class="regexp-matches" transform="matrix(1,0,0,1,20,0)"><path d="M0,11.7109375h0M22,11.7109375H22M0,40.1328375h0.3359M21.664025,40.1328375H22"></path><g class="match match-fragment literal" transform="matrix(1,0,0,1,0,0)"><g class="label"><rect width="22" height="23.421875" rx="3" ry="3"></rect><text x="0" y="0" transform="matrix(1,0,0,1,5,16.7109)"><tspan class="quote">“</tspan><tspan>-</tspan><tspan class="quote">”</tspan></text></g></g><g class="match match-fragment literal" transform="matrix(1,0,0,1,0.3359,28.4219)"><g class="label"><rect width="21.328125" height="23.421875" rx="3" ry="3"></rect><text x="0" y="0" transform="matrix(1,0,0,1,5,16.7109)"><tspan class="quote">“</tspan><tspan> </tspan><tspan class="quote">”</tspan></text></g></g></g></g></g></g><g class="match-fragment literal" transform="matrix(1,0,0,1,169.3438,45.3984)"><g class="label"><rect width="24.671875" height="23.421875" rx="3" ry="3"></rect><text x="0" y="0" transform="matrix(1,0,0,1,5,16.7109)"><tspan class="quote">“</tspan><tspan>1</tspan><tspan class="quote">”</tspan></text></g></g></g><g class="match match-fragment literal" transform="matrix(1,0,0,1,76.336,93.7813)"><g class="label"><rect width="41.34375" height="23.421875" rx="3" ry="3"></rect><text x="0" y="0" transform="matrix(1,0,0,1,5,16.7109)"><tspan class="quote">“</tspan><tspan>md5</tspan><tspan class="quote">”</tspan></text></g></g><g class="match match-fragment literal" transform="matrix(1,0,0,1,76.336,122.2031)"><g class="label"><rect width="41.34375" height="23.421875" rx="3" ry="3"></rect><text x="0" y="0" transform="matrix(1,0,0,1,5,16.7109)"><tspan class="quote">“</tspan><tspan>md2</tspan><tspan class="quote">”</tspan></text></g></g><g class="match match-fragment literal" transform="matrix(1,0,0,1,76.336,150.625)"><g class="label"><rect width="41.34375" height="23.421875" rx="3" ry="3"></rect><text x="0" y="0" transform="matrix(1,0,0,1,5,16.7109)"><tspan class="quote">“</tspan><tspan>md4</tspan><tspan class="quote">”</tspan></text></g></g><g class="match match-fragment literal" transform="matrix(1,0,0,1,75,179.0469)"><g class="label"><rect width="44.015625" height="23.421875" rx="3" ry="3"></rect><text x="0" y="0" transform="matrix(1,0,0,1,5,16.7109)"><tspan class="quote">“</tspan><tspan>3des</tspan><tspan class="quote">”</tspan></text></g></g><g class="match match-fragment literal" transform="matrix(1,0,0,1,66.6641,207.4688)"><g class="label"><rect width="60.6875" height="23.421875" rx="3" ry="3"></rect><text x="0" y="0" transform="matrix(1,0,0,1,5,16.7109)"><tspan class="quote">“</tspan><tspan>collision</tspan><tspan class="quote">”</tspan></text></g></g></g></g></g></g></g></g><path d="M10,537.4532470703125H0M786.859375,537.4532470703125H796.859375"></path><circle cx="0" cy="537.4532470703125" r="5"></circle><circle cx="796.859375" cy="537.4532470703125" r="5"></circle></g></svg>
          