
            <svg xmlns="http://www.w3.org/2000/svg" xmlns:cc="http://creativecommons.org/ns#" xmlns:rdf="http://www.w3.org/1999/02/22-rdf-syntax-ns#" version="1.1" width="803.46875" height="883.109619140625">
              <defs>
                <style type="text/css">svg{background-color:#fff}text,tspan{font:12px Arial}path{fill-opacity:0;stroke-width:2px;stroke:#000}circle{fill:#6b6659;stroke-width:2px;stroke:#000}.anchor text,.any-character text{fill:#fff}.anchor rect,.any-character rect{fill:#6b6659}.escape text,.charset-escape text,.literal text{fill:#000}.escape rect,.charset-escape rect{fill:#bada55}.literal rect{fill:#dae9e5}.charset .charset-box{fill:#cbcbba}.subexp .subexp-label tspan,.charset .charset-label tspan,.match-fragment .repeat-label tspan{font-size:10px}.repeat-label{cursor:help}.subexp .subexp-label tspan,.charset .charset-label tspan{dominant-baseline:text-after-edge}.subexp .subexp-box{stroke:#908c83;stroke-dasharray:6,2;stroke-width:2px;fill-opacity:0}.quote{fill:#908c83}
          </style>
              </defs>
              <metadata>
                <rdf:rdf>
                  <cc:license rdf:about="http://creativecommons.org/licenses/by/3.0/">
                    <cc:permits rdf:resource="http://creativecommons.org/ns#Reproduction"></cc:permits>
                    <cc:permits rdf:resource="http://creativecommons.org/ns#Distribution"></cc:permits>
                    <cc:requires rdf:resource="http://creativecommons.org/ns#Notice"></cc:requires>
                    <cc:requires rdf:resource="http://creativecommons.org/ns#Attribution"></cc:requires>
                    <cc:permits rdf:resource="http://creativecommons.org/ns#DerivativeWorks"></cc:permits>
                  </cc:license>
                </rdf:rdf>
              </metadata>
            <desc>Created with Snap</desc><g class="root" transform="matrix(1,0,0,1,15,5.75)"><g class="regexp" transform="matrix(1,0,0,1,10,0)"><path d="M10,101.3203864440918q0,-10 10,-10M743.46875,101.3203864440918q0,-10 -10,-10M10,271.94538750000004q0,-10 10,-10M743.46875,271.94538750000004q0,-10 -10,-10M10,604.1486375q0,10 10,10M743.46875,604.1486375q0,10 -10,10M0,435.8048095703125q10,0 10,-10V101.3203864440918M753.46875,435.8048095703125q-10,0 -10,-10V101.3203864440918M0,435.8048095703125q10,0 10,10V604.1486375M753.46875,435.8048095703125q-10,0 -10,10V604.1486375"></path><g class="regexp-matches" transform="matrix(1,0,0,1,20,0)"><path d="M0,91.3203864440918h93.6797M619.7891110351562,91.3203864440918H713.46875M0,261.94538750000004h82.664M630.8046860351562,261.94538750000004H713.46875M0,614.1486375h0M703.4687805175781,614.1486375H713.46875"></path><g class="match" transform="matrix(1,0,0,1,83.6797,0)"><path d="M88.671875,91.3203864440918H123.6719M206.375025,91.3203375H231.375M252.703125,91.3203375H272.7031"></path><g class="match-fragment subexp" transform="matrix(1,0,0,1,0,44.211)"><rect class="subexp-box" rx="3" ry="3" transform="matrix(1,0,0,1,0,11.1875)" width="98.671875" height="71.8437728881836"></rect><text x="0" y="0" class="subexp-label" transform="matrix(1,0,0,1,0,11.1875)"><tspan>group #1</tspan></text><g class="regexp" transform="matrix(1,0,0,1,10,21.1875)"><path d="M0,25.921886444091797c10,0 10,-14.210948944091797 20,-14.210948944091797M78.671875,25.921886444091797c-10,0 -10,-14.210948944091797 -20,-14.210948944091797M0,25.921886444091797c10,0 10,14.210951055908204 20,14.210951055908204M78.671875,25.921886444091797c-10,0 -10,14.210951055908204 -20,14.210951055908204"></path><g class="regexp-matches" transform="matrix(1,0,0,1,20,0)"><path d="M0,11.7109375h0M38.671875,11.7109375H38.671875M0,40.1328375h2.3281M36.343725,40.1328375H38.671875"></path><g class="match match-fragment literal" transform="matrix(1,0,0,1,0,0)"><g class="label"><rect width="38.671875" height="23.421875" rx="3" ry="3"></rect><text x="0" y="0" transform="matrix(1,0,0,1,5,16.7109)"><tspan class="quote">“</tspan><tspan>rem</tspan><tspan class="quote">”</tspan></text></g></g><g class="match match-fragment literal" transform="matrix(1,0,0,1,2.3281,28.4219)"><g class="label"><rect width="34.015625" height="23.421875" rx="3" ry="3"></rect><text x="0" y="0" transform="matrix(1,0,0,1,5,16.7109)"><tspan class="quote">“</tspan><tspan>del</tspan><tspan class="quote">”</tspan></text></g></g></g></g></g><g class="match-fragment" transform="matrix(1,0,0,1,108.6719,69.6094)"><path d="M0,21.7109375q10,0 10,-10v-1.7109375q0,-10 10,-10h72.703125q10,0 10,10v1.7109375q0,10 10,10M15,21.7109375q-10,0 -10,10v1.7109375q0,10 10,10h82.703125q10,0 10,-10v-1.7109375q0,-10 -10,-10M107.703125,36.7109375l5,-5m-5,5l-5,-5"></path><g class="any-character" transform="matrix(1,0,0,1,15,10)"><g class="label"><rect width="82.703125" height="23.421875"></rect><text x="0" y="0" transform="matrix(1,0,0,1,5,16.7109)"><tspan>any character</tspan></text></g></g></g><g class="match-fragment literal" transform="matrix(1,0,0,1,231.375,79.6094)"><g class="label"><rect width="21.328125" height="23.421875" rx="3" ry="3"></rect><text x="0" y="0" transform="matrix(1,0,0,1,5,16.7109)"><tspan class="quote">“</tspan><tspan> </tspan><tspan class="quote">”</tspan></text></g></g><g class="match-fragment subexp" transform="matrix(1,0,0,1,262.7031,0)"><rect class="subexp-box" rx="3" ry="3" transform="matrix(1,0,0,1,0,11.1875)" width="283.40631103515625" height="160.26568603515625"></rect><text x="0" y="0" class="subexp-label" transform="matrix(1,0,0,1,0,11.1875)"><tspan>group #2</tspan></text><g class="regexp" transform="matrix(1,0,0,1,10,21.1875)"><path d="M10,31.7109375q0,-10 10,-10M253.4062957763672,31.7109375q0,-10 -10,-10M0,70.13284301757812c10,0 10,-0.0000055175781312755134 20,-0.0000055175781312755134M263.4062957763672,70.13284301757812c-10,0 -10,-0.0000055175781312755134 -20,-0.0000055175781312755134M10,108.5547375q0,10 10,10M253.4062957763672,108.5547375q0,10 -10,10M0,70.13284301757812q10,0 10,-10V31.7109375M263.4062957763672,70.13284301757812q-10,0 -10,-10V31.7109375M0,70.13284301757812q10,0 10,10V108.5547375M263.4062957763672,70.13284301757812q-10,0 -10,10V108.5547375"></path><g class="regexp-matches" transform="matrix(1,0,0,1,20,0)"><path d="M0,21.7109375h28.6797M179.72662499999998,21.7109375H223.4062957763672M0,70.1328375h29.6797M178.72662499999998,70.1328375H223.4062957763672M0,118.5547375h0M223.4063,118.5547375H223.4062957763672"></path><g class="match" transform="matrix(1,0,0,1,28.6797,0)"><path d="M43.34375,21.7109375H68.3438"></path><g class="match-fragment literal" transform="matrix(1,0,0,1,0,10)"><g class="label"><rect width="43.34375" height="23.421875" rx="3" ry="3"></rect><text x="0" y="0" transform="matrix(1,0,0,1,5,16.7109)"><tspan class="quote">“</tspan><tspan>pass</tspan><tspan class="quote">”</tspan></text></g></g><g class="match-fragment" transform="matrix(1,0,0,1,53.3438,0)"><path d="M0,21.7109375q10,0 10,-10v-1.7109375q0,-10 10,-10h72.703125q10,0 10,10v1.7109375q0,10 10,10M15,21.7109375q-10,0 -10,10v1.7109375q0,10 10,10h82.703125q10,0 10,-10v-1.7109375q0,-10 -10,-10M107.703125,36.7109375l5,-5m-5,5l-5,-5"></path><g class="any-character" transform="matrix(1,0,0,1,15,10)"><g class="label"><rect width="82.703125" height="23.421875"></rect><text x="0" y="0" transform="matrix(1,0,0,1,5,16.7109)"><tspan>any character</tspan></text></g></g></g></g><g class="match" transform="matrix(1,0,0,1,29.6797,48.4219)"><path d="M41.34375,21.7109375H66.3438"></path><g class="match-fragment literal" transform="matrix(1,0,0,1,0,10)"><g class="label"><rect width="41.34375" height="23.421875" rx="3" ry="3"></rect><text x="0" y="0" transform="matrix(1,0,0,1,5,16.7109)"><tspan class="quote">“</tspan><tspan>cred</tspan><tspan class="quote">”</tspan></text></g></g><g class="match-fragment" transform="matrix(1,0,0,1,51.3438,0)"><path d="M0,21.7109375q10,0 10,-10v-1.7109375q0,-10 10,-10h72.703125q10,0 10,10v1.7109375q0,10 10,10M15,21.7109375q-10,0 -10,10v1.7109375q0,10 10,10h82.703125q10,0 10,-10v-1.7109375q0,-10 -10,-10M107.703125,36.7109375l5,-5m-5,5l-5,-5"></path><g class="any-character" transform="matrix(1,0,0,1,15,10)"><g class="label"><rect width="82.703125" height="23.421875"></rect><text x="0" y="0" transform="matrix(1,0,0,1,5,16.7109)"><tspan>any character</tspan></text></g></g></g></g><g class="match" transform="matrix(1,0,0,1,0,96.8438)"><path d="M50.015625,21.7109375H75.0156M157.718725,21.7109375H182.7188"></path><g class="match-fragment literal" transform="matrix(1,0,0,1,0,10)"><g class="label"><rect width="50.015625" height="23.421875" rx="3" ry="3"></rect><text x="0" y="0" transform="matrix(1,0,0,1,5,16.7109)"><tspan class="quote">“</tspan><tspan>confid</tspan><tspan class="quote">”</tspan></text></g></g><g class="match-fragment" transform="matrix(1,0,0,1,60.0156,0)"><path d="M0,21.7109375q10,0 10,-10v-1.7109375q0,-10 10,-10h72.703125q10,0 10,10v1.7109375q0,10 10,10M15,21.7109375q-10,0 -10,10v1.7109375q0,10 10,10h82.703125q10,0 10,-10v-1.7109375q0,-10 -10,-10M107.703125,36.7109375l5,-5m-5,5l-5,-5"></path><g class="any-character" transform="matrix(1,0,0,1,15,10)"><g class="label"><rect width="82.703125" height="23.421875"></rect><text x="0" y="0" transform="matrix(1,0,0,1,5,16.7109)"><tspan>any character</tspan></text></g></g></g><g class="match-fragment literal" transform="matrix(1,0,0,1,182.7188,10)"><g class="label"><rect width="40.6875" height="23.421875" rx="3" ry="3"></rect><text x="0" y="0" transform="matrix(1,0,0,1,5,16.7109)"><tspan class="quote">“</tspan><tspan> info</tspan><tspan class="quote">”</tspan></text></g></g></g></g></g></g></g><g class="match" transform="matrix(1,0,0,1,72.664,172.2032)"><path d="M108.03125,89.7421875H143.0313M225.734425,89.7422375H250.7344M272.062525,89.7422375H292.0625"></path><g class="match-fragment subexp" transform="matrix(1,0,0,1,0,0)"><rect class="subexp-box" rx="3" ry="3" transform="matrix(1,0,0,1,0,11.1875)" width="118.03125" height="157.109375"></rect><text x="0" y="0" class="subexp-label" transform="matrix(1,0,0,1,0,11.1875)"><tspan>group #3</tspan></text><g class="regexp" transform="matrix(1,0,0,1,10,21.1875)"><path d="M10,21.7109375q0,-10 10,-10M88.03125,21.7109375q0,-10 -10,-10M10,50.1328375q0,-10 10,-10M88.03125,50.1328375q0,-10 -10,-10M0,68.5546875c10,0 10,0.00005000000000165983 20,0.00005000000000165983M98.03125,68.5546875c-10,0 -10,0.00005000000000165983 -20,0.00005000000000165983M10,86.9765375q0,10 10,10M88.03125,86.9765375q0,10 -10,10M10,115.3984375q0,10 10,10M88.03125,115.3984375q0,10 -10,10M0,68.5546875q10,0 10,-10V21.7109375M98.03125,68.5546875q-10,0 -10,-10V21.7109375M0,68.5546875q10,0 10,10V115.3984375M98.03125,68.5546875q-10,0 -10,10V115.3984375"></path><g class="regexp-matches" transform="matrix(1,0,0,1,20,0)"><path d="M0,11.7109375h14.0156M44.0156,11.7109375H58.03125M0,40.1328375h1.6641M56.367225,40.1328375H58.03125M0,68.5547375h5.3359M52.695275,68.5547375H58.03125M0,96.9765375h1.6719M56.3594,96.9765375H58.03125M0,125.3984375h0M58.03125,125.3984375H58.03125"></path><g class="match match-fragment literal" transform="matrix(1,0,0,1,14.0156,0)"><g class="label"><rect width="30" height="23.421875" rx="3" ry="3"></rect><text x="0" y="0" transform="matrix(1,0,0,1,5,16.7109)"><tspan class="quote">“</tspan><tspan>fix</tspan><tspan class="quote">”</tspan></text></g></g><g class="match match-fragment literal" transform="matrix(1,0,0,1,1.6641,28.4219)"><g class="label"><rect width="54.703125" height="23.421875" rx="3" ry="3"></rect><text x="0" y="0" transform="matrix(1,0,0,1,5,16.7109)"><tspan class="quote">“</tspan><tspan>update</tspan><tspan class="quote">”</tspan></text></g></g><g class="match match-fragment literal" transform="matrix(1,0,0,1,5.3359,56.8438)"><g class="label"><rect width="47.359375" height="23.421875" rx="3" ry="3"></rect><text x="0" y="0" transform="matrix(1,0,0,1,5,16.7109)"><tspan class="quote">“</tspan><tspan>patch</tspan><tspan class="quote">”</tspan></text></g></g><g class="match match-fragment literal" transform="matrix(1,0,0,1,1.6719,85.2656)"><g class="label"><rect width="54.6875" height="23.421875" rx="3" ry="3"></rect><text x="0" y="0" transform="matrix(1,0,0,1,5,16.7109)"><tspan class="quote">“</tspan><tspan>protect</tspan><tspan class="quote">”</tspan></text></g></g><g class="match match-fragment literal" transform="matrix(1,0,0,1,0,113.6875)"><g class="label"><rect width="58.03125" height="23.421875" rx="3" ry="3"></rect><text x="0" y="0" transform="matrix(1,0,0,1,5,16.7109)"><tspan class="quote">“</tspan><tspan>prevent</tspan><tspan class="quote">”</tspan></text></g></g></g></g></g><g class="match-fragment" transform="matrix(1,0,0,1,128.0313,68.0313)"><path d="M0,21.7109375q10,0 10,-10v-1.7109375q0,-10 10,-10h72.703125q10,0 10,10v1.7109375q0,10 10,10M15,21.7109375q-10,0 -10,10v1.7109375q0,10 10,10h82.703125q10,0 10,-10v-1.7109375q0,-10 -10,-10M107.703125,36.7109375l5,-5m-5,5l-5,-5"></path><g class="any-character" transform="matrix(1,0,0,1,15,10)"><g class="label"><rect width="82.703125" height="23.421875"></rect><text x="0" y="0" transform="matrix(1,0,0,1,5,16.7109)"><tspan>any character</tspan></text></g></g></g><g class="match-fragment literal" transform="matrix(1,0,0,1,250.7344,78.0313)"><g class="label"><rect width="21.328125" height="23.421875" rx="3" ry="3"></rect><text x="0" y="0" transform="matrix(1,0,0,1,5,16.7109)"><tspan class="quote">“</tspan><tspan> </tspan><tspan class="quote">”</tspan></text></g></g><g class="match-fragment subexp" transform="matrix(1,0,0,1,282.0625,32.6328)"><rect class="subexp-box" rx="3" ry="3" transform="matrix(1,0,0,1,0,11.1875)" width="286.07818603515625" height="91.8437728881836"></rect><text x="0" y="0" class="subexp-label" transform="matrix(1,0,0,1,0,11.1875)"><tspan>group #4</tspan></text><g class="regexp" transform="matrix(1,0,0,1,10,21.1875)"><path d="M10,21.7109375q0,-10 10,-10M256.0781707763672,21.7109375q0,-10 -10,-10M0,35.9218864440918c10,0 10,14.210951055908204 20,14.210951055908204M266.0781707763672,35.9218864440918c-10,0 -10,14.210951055908204 -20,14.210951055908204M0,35.9218864440918q10,0 10,-10V21.7109375M266.0781707763672,35.9218864440918q-10,0 -10,-10V21.7109375"></path><g class="regexp-matches" transform="matrix(1,0,0,1,20,0)"><path d="M0,11.7109375h78.6953M147.3828,11.7109375H226.0781707763672M0,50.1328375h0M226.078175,50.1328375H226.0781707763672"></path><g class="match match-fragment literal" transform="matrix(1,0,0,1,78.6953,0)"><g class="label"><rect width="68.6875" height="23.421875" rx="3" ry="3"></rect><text x="0" y="0" transform="matrix(1,0,0,1,5,16.7109)"><tspan class="quote">“</tspan><tspan>misconfig</tspan><tspan class="quote">”</tspan></text></g></g><g class="match" transform="matrix(1,0,0,1,0,28.4219)"><path d="M40.015625,21.7109375H65.0156M147.718725,21.7109375H172.7188"></path><g class="match-fragment literal" transform="matrix(1,0,0,1,0,10)"><g class="label"><rect width="40.015625" height="23.421875" rx="3" ry="3"></rect><text x="0" y="0" transform="matrix(1,0,0,1,5,16.7109)"><tspan class="quote">“</tspan><tspan>vuln</tspan><tspan class="quote">”</tspan></text></g></g><g class="match-fragment" transform="matrix(1,0,0,1,50.0156,0)"><path d="M0,21.7109375q10,0 10,-10v-1.7109375q0,-10 10,-10h72.703125q10,0 10,10v1.7109375q0,10 10,10M15,21.7109375q-10,0 -10,10v1.7109375q0,10 10,10h82.703125q10,0 10,-10v-1.7109375q0,-10 -10,-10M107.703125,36.7109375l5,-5m-5,5l-5,-5"></path><g class="any-character" transform="matrix(1,0,0,1,15,10)"><g class="label"><rect width="82.703125" height="23.421875"></rect><text x="0" y="0" transform="matrix(1,0,0,1,5,16.7109)"><tspan>any character</tspan></text></g></g></g><g class="match-fragment literal" transform="matrix(1,0,0,1,172.7188,10)"><g class="label"><rect width="53.359375" height="23.421875" rx="3" ry="3"></rect><text x="0" y="0" transform="matrix(1,0,0,1,5,16.7109)"><tspan class="quote">“</tspan><tspan> config</tspan><tspan class="quote">”</tspan></text></g></g></g></g></g></g></g><g class="match" transform="matrix(1,0,0,1,0,341.2501)"><path d="M55.34375,272.8985375H80.3438M163.046925,272.8985375H188.0469M209.375025,272.8985375H229.375"></path><g class="match-fragment literal" transform="matrix(1,0,0,1,0,261.1876)"><g class="label"><rect width="55.34375" height="23.421875" rx="3" ry="3"></rect><text x="0" y="0" transform="matrix(1,0,0,1,5,16.7109)"><tspan class="quote">“</tspan><tspan>access</tspan><tspan class="quote">”</tspan></text></g></g><g class="match-fragment" transform="matrix(1,0,0,1,65.3438,251.1876)"><path d="M0,21.7109375q10,0 10,-10v-1.7109375q0,-10 10,-10h72.703125q10,0 10,10v1.7109375q0,10 10,10M15,21.7109375q-10,0 -10,10v1.7109375q0,10 10,10h82.703125q10,0 10,-10v-1.7109375q0,-10 -10,-10M107.703125,36.7109375l5,-5m-5,5l-5,-5"></path><g class="any-character" transform="matrix(1,0,0,1,15,10)"><g class="label"><rect width="82.703125" height="23.421875"></rect><text x="0" y="0" transform="matrix(1,0,0,1,5,16.7109)"><tspan>any character</tspan></text></g></g></g><g class="match-fragment literal" transform="matrix(1,0,0,1,188.0469,261.1876)"><g class="label"><rect width="21.328125" height="23.421875" rx="3" ry="3"></rect><text x="0" y="0" transform="matrix(1,0,0,1,5,16.7109)"><tspan class="quote">“</tspan><tspan> </tspan><tspan class="quote">”</tspan></text></g></g><g class="match-fragment subexp" transform="matrix(1,0,0,1,219.375,0)"><rect class="subexp-box" rx="3" ry="3" transform="matrix(1,0,0,1,0,11.1875)" width="494.0937805175781" height="514.9219970703125"></rect><text x="0" y="0" class="subexp-label" transform="matrix(1,0,0,1,0,11.1875)"><tspan>group #5</tspan></text><g class="regexp" transform="matrix(1,0,0,1,10,21.1875)"><path d="M10,57.1093864440918q0,-10 10,-10M464.0937805175781,57.1093864440918q0,-10 -10,-10M10,291.3204375q0,10 10,10M464.0937805175781,291.3204375q0,10 -10,10M0,251.71099853515625q10,0 10,-10V57.1093864440918M474.0937805175781,251.71099853515625q-10,0 -10,-10V57.1093864440918M0,251.71099853515625q10,0 10,10V291.3204375M474.0937805175781,251.71099853515625q-10,0 -10,10V291.3204375"></path><g class="regexp-matches" transform="matrix(1,0,0,1,20,0)"><path d="M0,47.1093864440918h28M406.09375,47.1093864440918H434.0937805175781M0,301.3204375h0M424.09376948242186,301.3204375H434.0937805175781"></path><g class="match" transform="matrix(1,0,0,1,18,0)"><path d="M104.03125,47.1093864440918H139.0313M221.734425,47.109337499999995H246.7344M268.062525,47.1093375H288.0625"></path><g class="match-fragment subexp" transform="matrix(1,0,0,1,0,0)"><rect class="subexp-box" rx="3" ry="3" transform="matrix(1,0,0,1,0,11.1875)" width="114.03125" height="71.8437728881836"></rect><text x="0" y="0" class="subexp-label" transform="matrix(1,0,0,1,0,11.1875)"><tspan>group #6</tspan></text><g class="regexp" transform="matrix(1,0,0,1,10,21.1875)"><path d="M0,25.921886444091797c10,0 10,-14.210948944091797 20,-14.210948944091797M94.03125,25.921886444091797c-10,0 -10,-14.210948944091797 -20,-14.210948944091797M0,25.921886444091797c10,0 10,14.210951055908204 20,14.210951055908204M94.03125,25.921886444091797c-10,0 -10,14.210951055908204 -20,14.210951055908204"></path><g class="regexp-matches" transform="matrix(1,0,0,1,20,0)"><path d="M0,11.7109375h0M54.03125,11.7109375H54.03125M0,40.1328375h1.6719M52.3594,40.1328375H54.03125"></path><g class="match match-fragment literal" transform="matrix(1,0,0,1,0,0)"><g class="label"><rect width="54.03125" height="23.421875" rx="3" ry="3"></rect><text x="0" y="0" transform="matrix(1,0,0,1,5,16.7109)"><tspan class="quote">“</tspan><tspan>default</tspan><tspan class="quote">”</tspan></text></g></g><g class="match match-fragment literal" transform="matrix(1,0,0,1,1.6719,28.4219)"><g class="label"><rect width="50.6875" height="23.421875" rx="3" ry="3"></rect><text x="0" y="0" transform="matrix(1,0,0,1,5,16.7109)"><tspan class="quote">“</tspan><tspan>admin</tspan><tspan class="quote">”</tspan></text></g></g></g></g></g><g class="match-fragment" transform="matrix(1,0,0,1,124.0313,25.3984)"><path d="M0,21.7109375q10,0 10,-10v-1.7109375q0,-10 10,-10h72.703125q10,0 10,10v1.7109375q0,10 10,10M15,21.7109375q-10,0 -10,10v1.7109375q0,10 10,10h82.703125q10,0 10,-10v-1.7109375q0,-10 -10,-10M107.703125,36.7109375l5,-5m-5,5l-5,-5"></path><g class="any-character" transform="matrix(1,0,0,1,15,10)"><g class="label"><rect width="82.703125" height="23.421875"></rect><text x="0" y="0" transform="matrix(1,0,0,1,5,16.7109)"><tspan>any character</tspan></text></g></g></g><g class="match-fragment literal" transform="matrix(1,0,0,1,246.7344,35.3984)"><g class="label"><rect width="21.328125" height="23.421875" rx="3" ry="3"></rect><text x="0" y="0" transform="matrix(1,0,0,1,5,16.7109)"><tspan class="quote">“</tspan><tspan> </tspan><tspan class="quote">”</tspan></text></g></g><g class="match-fragment subexp" transform="matrix(1,0,0,1,278.0625,0)"><rect class="subexp-box" rx="3" ry="3" transform="matrix(1,0,0,1,0,11.1875)" width="120.03125" height="71.8437728881836"></rect><text x="0" y="0" class="subexp-label" transform="matrix(1,0,0,1,0,11.1875)"><tspan>group #7</tspan></text><g class="regexp" transform="matrix(1,0,0,1,10,21.1875)"><path d="M0,25.921886444091797c10,0 10,-14.210948944091797 20,-14.210948944091797M100.03125,25.921886444091797c-10,0 -10,-14.210948944091797 -20,-14.210948944091797M0,25.921886444091797c10,0 10,14.210951055908204 20,14.210951055908204M100.03125,25.921886444091797c-10,0 -10,14.210951055908204 -20,14.210951055908204"></path><g class="regexp-matches" transform="matrix(1,0,0,1,20,0)"><path d="M0,11.7109375h0M60.03125,11.7109375H60.03125M0,40.1328375h9.3438M50.68755,40.1328375H60.03125"></path><g class="match match-fragment literal" transform="matrix(1,0,0,1,0,0)"><g class="label"><rect width="60.03125" height="23.421875" rx="3" ry="3"></rect><text x="0" y="0" transform="matrix(1,0,0,1,5,16.7109)"><tspan class="quote">“</tspan><tspan>account</tspan><tspan class="quote">”</tspan></text></g></g><g class="match match-fragment literal" transform="matrix(1,0,0,1,9.3438,28.4219)"><g class="label"><rect width="41.34375" height="23.421875" rx="3" ry="3"></rect><text x="0" y="0" transform="matrix(1,0,0,1,5,16.7109)"><tspan class="quote">“</tspan><tspan>cred</tspan><tspan class="quote">”</tspan></text></g></g></g></g></g></g><g class="match" transform="matrix(1,0,0,1,0,83.7813)"><path d="M31.34375,217.5391375H51.3438"></path><g class="match-fragment literal" transform="matrix(1,0,0,1,0,205.8282)"><g class="label"><rect width="31.34375" height="23.421875" rx="3" ry="3"></rect><text x="0" y="0" transform="matrix(1,0,0,1,5,16.7109)"><tspan class="quote">“</tspan><tspan>un</tspan><tspan class="quote">”</tspan></text></g></g><g class="match-fragment subexp" transform="matrix(1,0,0,1,41.3438,0)"><rect class="subexp-box" rx="3" ry="3" transform="matrix(1,0,0,1,0,11.1875)" width="392.7499694824219" height="404.20318603515625"></rect><text x="0" y="0" class="subexp-label" transform="matrix(1,0,0,1,0,11.1875)"><tspan>group #8</tspan></text><g class="regexp" transform="matrix(1,0,0,1,10,21.1875)"><path d="M10,57.1093375q0,-10 10,-10M362.7499694824219,57.1093375q0,-10 -10,-10M10,183.5235375q0,-10 10,-10M362.7499694824219,183.5235375q0,-10 -10,-10M10,289.9374375q0,10 10,10M362.7499694824219,289.9374375q0,10 -10,10M10,338.3203375q0,10 10,10M362.7499694824219,338.3203375q0,10 -10,10M10,366.7422375q0,10 10,10M362.7499694824219,366.7422375q0,10 -10,10M0,196.35159301757812q10,0 10,-10V57.1093375M372.7499694824219,196.35159301757812q-10,0 -10,-10V57.1093375M0,196.35159301757812q10,0 10,10V366.7422375M372.7499694824219,196.35159301757812q-10,0 -10,10V366.7422375"></path><g class="regexp-matches" transform="matrix(1,0,0,1,20,0)"><path d="M0,47.1093375h10.0078M312.74219999999997,47.1093375H332.7499694824219M0,173.5235375h0M322.749975,173.5235375H332.7499694824219M0,299.9374375h10.3437M312.40625,299.9374375H332.7499694824219M0,348.3203375h149.3672M183.382825,348.3203375H332.7499694824219M0,376.7422375h138.0312M194.7187,376.7422375H332.7499694824219"></path><g class="match" transform="matrix(1,0,0,1,10.0078,0)"><path d="M44.015625,47.1093375H69.0156M151.718725,47.109337499999995H176.7188M198.046925,47.1093375H218.0469"></path><g class="match-fragment literal" transform="matrix(1,0,0,1,0,35.3984)"><g class="label"><rect width="44.015625" height="23.421875" rx="3" ry="3"></rect><text x="0" y="0" transform="matrix(1,0,0,1,5,16.7109)"><tspan class="quote">“</tspan><tspan>used</tspan><tspan class="quote">”</tspan></text></g></g><g class="match-fragment" transform="matrix(1,0,0,1,54.0156,25.3984)"><path d="M0,21.7109375q10,0 10,-10v-1.7109375q0,-10 10,-10h72.703125q10,0 10,10v1.7109375q0,10 10,10M15,21.7109375q-10,0 -10,10v1.7109375q0,10 10,10h82.703125q10,0 10,-10v-1.7109375q0,-10 -10,-10M107.703125,36.7109375l5,-5m-5,5l-5,-5"></path><g class="any-character" transform="matrix(1,0,0,1,15,10)"><g class="label"><rect width="82.703125" height="23.421875"></rect><text x="0" y="0" transform="matrix(1,0,0,1,5,16.7109)"><tspan>any character</tspan></text></g></g></g><g class="match-fragment literal" transform="matrix(1,0,0,1,176.7188,35.3984)"><g class="label"><rect width="21.328125" height="23.421875" rx="3" ry="3"></rect><text x="0" y="0" transform="matrix(1,0,0,1,5,16.7109)"><tspan class="quote">“</tspan><tspan> </tspan><tspan class="quote">”</tspan></text></g></g><g class="match-fragment subexp" transform="matrix(1,0,0,1,208.0469,0)"><rect class="subexp-box" rx="3" ry="3" transform="matrix(1,0,0,1,0,11.1875)" width="104.6875" height="71.8437728881836"></rect><text x="0" y="0" class="subexp-label" transform="matrix(1,0,0,1,0,11.1875)"><tspan>group #9</tspan></text><g class="regexp" transform="matrix(1,0,0,1,10,21.1875)"><path d="M0,25.921886444091797c10,0 10,-14.210948944091797 20,-14.210948944091797M84.6875,25.921886444091797c-10,0 -10,-14.210948944091797 -20,-14.210948944091797M0,25.921886444091797c10,0 10,14.210951055908204 20,14.210951055908204M84.6875,25.921886444091797c-10,0 -10,14.210951055908204 -20,14.210951055908204"></path><g class="regexp-matches" transform="matrix(1,0,0,1,20,0)"><path d="M0,11.7109375h0M44.6875,11.7109375H44.6875M0,40.1328375h6.6797M38.007825,40.1328375H44.6875"></path><g class="match match-fragment literal" transform="matrix(1,0,0,1,0,0)"><g class="label"><rect width="44.6875" height="23.421875" rx="3" ry="3"></rect><text x="0" y="0" transform="matrix(1,0,0,1,5,16.7109)"><tspan class="quote">“</tspan><tspan>page</tspan><tspan class="quote">”</tspan></text></g></g><g class="match match-fragment literal" transform="matrix(1,0,0,1,6.6797,28.4219)"><g class="label"><rect width="31.328125" height="23.421875" rx="3" ry="3"></rect><text x="0" y="0" transform="matrix(1,0,0,1,5,16.7109)"><tspan class="quote">“</tspan><tspan>url</tspan><tspan class="quote">”</tspan></text></g></g></g></g></g></g><g class="match" transform="matrix(1,0,0,1,0,83.7813)"><path d="M47.359375,89.7422375H72.3594M155.062525,89.7422375H180.0625M201.390625,89.7422375H221.3906"></path><g class="match-fragment literal" transform="matrix(1,0,0,1,0,78.0313)"><g class="label"><rect width="47.359375" height="23.421875" rx="3" ry="3"></rect><text x="0" y="0" transform="matrix(1,0,0,1,5,16.7109)"><tspan class="quote">“</tspan><tspan>patch</tspan><tspan class="quote">”</tspan></text></g></g><g class="match-fragment" transform="matrix(1,0,0,1,57.3594,68.0313)"><path d="M0,21.7109375q10,0 10,-10v-1.7109375q0,-10 10,-10h72.703125q10,0 10,10v1.7109375q0,10 10,10M15,21.7109375q-10,0 -10,10v1.7109375q0,10 10,10h82.703125q10,0 10,-10v-1.7109375q0,-10 -10,-10M107.703125,36.7109375l5,-5m-5,5l-5,-5"></path><g class="any-character" transform="matrix(1,0,0,1,15,10)"><g class="label"><rect width="82.703125" height="23.421875"></rect><text x="0" y="0" transform="matrix(1,0,0,1,5,16.7109)"><tspan>any character</tspan></text></g></g></g><g class="match-fragment literal" transform="matrix(1,0,0,1,180.0625,78.0313)"><g class="label"><rect width="21.328125" height="23.421875" rx="3" ry="3"></rect><text x="0" y="0" transform="matrix(1,0,0,1,5,16.7109)"><tspan class="quote">“</tspan><tspan> </tspan><tspan class="quote">”</tspan></text></g></g><g class="match-fragment subexp" transform="matrix(1,0,0,1,211.3906,0)"><rect class="subexp-box" rx="3" ry="3" transform="matrix(1,0,0,1,0,11.1875)" width="121.359375" height="157.109375"></rect><text x="0" y="0" class="subexp-label" transform="matrix(1,0,0,1,0,11.1875)"><tspan>group #10</tspan></text><g class="regexp" transform="matrix(1,0,0,1,10,21.1875)"><path d="M10,21.7109375q0,-10 10,-10M91.359375,21.7109375q0,-10 -10,-10M10,50.1328375q0,-10 10,-10M91.359375,50.1328375q0,-10 -10,-10M0,68.5546875c10,0 10,0.00005000000000165983 20,0.00005000000000165983M101.359375,68.5546875c-10,0 -10,0.00005000000000165983 -20,0.00005000000000165983M10,86.9765375q0,10 10,10M91.359375,86.9765375q0,10 -10,10M10,115.3984375q0,10 10,10M91.359375,115.3984375q0,10 -10,10M0,68.5546875q10,0 10,-10V21.7109375M101.359375,68.5546875q-10,0 -10,-10V21.7109375M0,68.5546875q10,0 10,10V115.3984375M101.359375,68.5546875q-10,0 -10,10V115.3984375"></path><g class="regexp-matches" transform="matrix(1,0,0,1,20,0)"><path d="M0,11.7109375h11.0078M50.35155,11.7109375H61.359375M0,40.1328375h7.6719M53.687525,40.1328375H61.359375M0,68.5547375h10.6719M50.687525,68.5547375H61.359375M0,96.9765375h0M61.359375,96.9765375H61.359375M0,125.3984375h7.6719M53.687525,125.3984375H61.359375"></path><g class="match match-fragment literal" transform="matrix(1,0,0,1,11.0078,0)"><g class="label"><rect width="39.34375" height="23.421875" rx="3" ry="3"></rect><text x="0" y="0" transform="matrix(1,0,0,1,5,16.7109)"><tspan class="quote">“</tspan><tspan>flaw</tspan><tspan class="quote">”</tspan></text></g></g><g class="match match-fragment literal" transform="matrix(1,0,0,1,7.6719,28.4219)"><g class="label"><rect width="46.015625" height="23.421875" rx="3" ry="3"></rect><text x="0" y="0" transform="matrix(1,0,0,1,5,16.7109)"><tspan class="quote">“</tspan><tspan>issue</tspan><tspan class="quote">”</tspan></text></g></g><g class="match match-fragment literal" transform="matrix(1,0,0,1,10.6719,56.8438)"><g class="label"><rect width="40.015625" height="23.421875" rx="3" ry="3"></rect><text x="0" y="0" transform="matrix(1,0,0,1,5,16.7109)"><tspan class="quote">“</tspan><tspan>vuln</tspan><tspan class="quote">”</tspan></text></g></g><g class="match match-fragment literal" transform="matrix(1,0,0,1,0,85.2656)"><g class="label"><rect width="61.359375" height="23.421875" rx="3" ry="3"></rect><text x="0" y="0" transform="matrix(1,0,0,1,5,16.7109)"><tspan class="quote">“</tspan><tspan>problem</tspan><tspan class="quote">”</tspan></text></g></g><g class="match match-fragment literal" transform="matrix(1,0,0,1,7.6719,113.6875)"><g class="label"><rect width="46.015625" height="23.421875" rx="3" ry="3"></rect><text x="0" y="0" transform="matrix(1,0,0,1,5,16.7109)"><tspan class="quote">“</tspan><tspan>weak</tspan><tspan class="quote">”</tspan></text></g></g></g></g></g></g><g class="match" transform="matrix(1,0,0,1,10.3437,252.8281)"><path d="M54.6875,47.1093375H79.6875M162.390625,47.109337499999995H187.3906M208.718725,47.1093375H228.7188"></path><g class="match-fragment literal" transform="matrix(1,0,0,1,0,35.3984)"><g class="label"><rect width="54.6875" height="23.421875" rx="3" ry="3"></rect><text x="0" y="0" transform="matrix(1,0,0,1,5,16.7109)"><tspan class="quote">“</tspan><tspan>protect</tspan><tspan class="quote">”</tspan></text></g></g><g class="match-fragment" transform="matrix(1,0,0,1,64.6875,25.3984)"><path d="M0,21.7109375q10,0 10,-10v-1.7109375q0,-10 10,-10h72.703125q10,0 10,10v1.7109375q0,10 10,10M15,21.7109375q-10,0 -10,10v1.7109375q0,10 10,10h82.703125q10,0 10,-10v-1.7109375q0,-10 -10,-10M107.703125,36.7109375l5,-5m-5,5l-5,-5"></path><g class="any-character" transform="matrix(1,0,0,1,15,10)"><g class="label"><rect width="82.703125" height="23.421875"></rect><text x="0" y="0" transform="matrix(1,0,0,1,5,16.7109)"><tspan>any character</tspan></text></g></g></g><g class="match-fragment literal" transform="matrix(1,0,0,1,187.3906,35.3984)"><g class="label"><rect width="21.328125" height="23.421875" rx="3" ry="3"></rect><text x="0" y="0" transform="matrix(1,0,0,1,5,16.7109)"><tspan class="quote">“</tspan><tspan> </tspan><tspan class="quote">”</tspan></text></g></g><g class="match-fragment subexp" transform="matrix(1,0,0,1,218.7188,0)"><rect class="subexp-box" rx="3" ry="3" transform="matrix(1,0,0,1,0,11.1875)" width="93.34375" height="71.8437728881836"></rect><text x="0" y="0" class="subexp-label" transform="matrix(1,0,0,1,0,11.1875)"><tspan>group #11</tspan></text><g class="regexp" transform="matrix(1,0,0,1,10,21.1875)"><path d="M0,25.921886444091797c10,0 10,-14.210948944091797 20,-14.210948944091797M73.34375,25.921886444091797c-10,0 -10,-14.210948944091797 -20,-14.210948944091797M0,25.921886444091797c10,0 10,14.210951055908204 20,14.210951055908204M73.34375,25.921886444091797c-10,0 -10,14.210951055908204 -20,14.210951055908204"></path><g class="regexp-matches" transform="matrix(1,0,0,1,20,0)"><path d="M0,11.7109375h0M33.34375,11.7109375H33.34375M0,40.1328375h1.0078M32.335925,40.1328375H33.34375"></path><g class="match match-fragment literal" transform="matrix(1,0,0,1,0,0)"><g class="label"><rect width="33.34375" height="23.421875" rx="3" ry="3"></rect><text x="0" y="0" transform="matrix(1,0,0,1,5,16.7109)"><tspan class="quote">“</tspan><tspan>file</tspan><tspan class="quote">”</tspan></text></g></g><g class="match match-fragment literal" transform="matrix(1,0,0,1,1.0078,28.4219)"><g class="label"><rect width="31.328125" height="23.421875" rx="3" ry="3"></rect><text x="0" y="0" transform="matrix(1,0,0,1,5,16.7109)"><tspan class="quote">“</tspan><tspan>dir</tspan><tspan class="quote">”</tspan></text></g></g></g></g></g></g><g class="match match-fragment literal" transform="matrix(1,0,0,1,149.3672,336.6094)"><g class="label"><rect width="34.015625" height="23.421875" rx="3" ry="3"></rect><text x="0" y="0" transform="matrix(1,0,0,1,5,16.7109)"><tspan class="quote">“</tspan><tspan>log</tspan><tspan class="quote">”</tspan></text></g></g><g class="match match-fragment literal" transform="matrix(1,0,0,1,138.0312,365.0313)"><g class="label"><rect width="56.6875" height="23.421875" rx="3" ry="3"></rect><text x="0" y="0" transform="matrix(1,0,0,1,5,16.7109)"><tspan class="quote">“</tspan><tspan>backup</tspan><tspan class="quote">”</tspan></text></g></g></g></g></g></g></g></g></g></g></g></g><path d="M10,435.8048095703125H0M763.46875,435.8048095703125H773.46875"></path><circle cx="0" cy="435.8048095703125" r="5"></circle><circle cx="773.46875" cy="435.8048095703125" r="5"></circle></g></svg>
          