
            <svg xmlns="http://www.w3.org/2000/svg" xmlns:cc="http://creativecommons.org/ns#" xmlns:rdf="http://www.w3.org/1999/02/22-rdf-syntax-ns#" version="1.1" width="402.81256103515625" height="239.4218292236328">
              <defs>
                <style type="text/css">svg{background-color:#fff}text,tspan{font:12px Arial}path{fill-opacity:0;stroke-width:2px;stroke:#000}circle{fill:#6b6659;stroke-width:2px;stroke:#000}.anchor text,.any-character text{fill:#fff}.anchor rect,.any-character rect{fill:#6b6659}.escape text,.charset-escape text,.literal text{fill:#000}.escape rect,.charset-escape rect{fill:#bada55}.literal rect{fill:#dae9e5}.charset .charset-box{fill:#cbcbba}.subexp .subexp-label tspan,.charset .charset-label tspan,.match-fragment .repeat-label tspan{font-size:10px}.repeat-label{cursor:help}.subexp .subexp-label tspan,.charset .charset-label tspan{dominant-baseline:text-after-edge}.subexp .subexp-box{stroke:#908c83;stroke-dasharray:6,2;stroke-width:2px;fill-opacity:0}.quote{fill:#908c83}
          </style>
              </defs>
              <metadata>
                <rdf:rdf>
                  <cc:license rdf:about="http://creativecommons.org/licenses/by/3.0/">
                    <cc:permits rdf:resource="http://creativecommons.org/ns#Reproduction"></cc:permits>
                    <cc:permits rdf:resource="http://creativecommons.org/ns#Distribution"></cc:permits>
                    <cc:requires rdf:resource="http://creativecommons.org/ns#Notice"></cc:requires>
                    <cc:requires rdf:resource="http://creativecommons.org/ns#Attribution"></cc:requires>
                    <cc:permits rdf:resource="http://creativecommons.org/ns#DerivativeWorks"></cc:permits>
                  </cc:license>
                </rdf:rdf>
              </metadata>
            <desc>Created with Snap</desc><g transform="matrix(1,0,0,1,15,9.9062)" class="root"><g transform="matrix(1,0,0,1,10,0)" class="regexp"><path d="M10,57.0938q0,-10 10,-10M342.81256103515625,57.0938q0,-10 -10,-10M10,125.09379999999999q0,10 10,10M342.81256103515625,125.09379999999999q0,10 -10,10M10,187.7578q0,10 10,10M342.81256103515625,187.7578q0,10 -10,10M0,109.80471420288086q10,0 10,-10V57.0938M352.81256103515625,109.80471420288086q-10,0 -10,-10V57.0938M0,109.80471420288086q10,0 10,10V187.7578M352.81256103515625,109.80471420288086q-10,0 -10,10V187.7578"></path><g transform="matrix(1,0,0,1,20,0)" class="regexp-matches"><path d="M0,47.0938h23.9844M298.828125,47.0938H312.81256103515625M0,135.0938h0M302.81255,135.0938H312.81256103515625M0,197.7578h29.3203M283.49222499999996,197.7578H312.81256103515625"></path><g transform="matrix(1,0,0,1,13.9844,0)" class="match"><path d="M104.65625,47.0938H139.6563M222.515675,47.0938125H247.5156"></path><g class="match-fragment subexp" transform="matrix(1,0,0,1,0,0)"><rect rx="3" ry="3" class="subexp-box" transform="matrix(1,0,0,1,0,11.0938)" width="114.65625" height="72"></rect><text x="0" y="0" transform="matrix(1,0,0,1,0,11.0938)" class="subexp-label"><tspan>group #1</tspan></text><g transform="matrix(1,0,0,1,10,21.0938)" class="regexp"><path d="M0,26c10,0 10,-14.25 20,-14.25M94.65625,26c-10,0 -10,-14.25 -20,-14.25M0,26c10,0 10,14.25 20,14.25M94.65625,26c-10,0 -10,14.25 -20,14.25"></path><g transform="matrix(1,0,0,1,20,0)" class="regexp-matches"><path d="M0,11.75h12.3438M42.31255,11.75H54.65625M0,40.25h0M54.65625,40.25H54.65625"></path><g class="match match-fragment literal" transform="matrix(1,0,0,1,12.3438,0)"><g class="label"><rect width="29.96875" height="23.5" rx="3" ry="3"></rect><text x="0" y="0" transform="matrix(1,0,0,1,5,16.75)"><tspan class="quote">“</tspan><tspan>fix</tspan><tspan class="quote">”</tspan></text></g></g><g class="match match-fragment literal" transform="matrix(1,0,0,1,0,28.5)"><g class="label"><rect width="54.65625" height="23.5" rx="3" ry="3"></rect><text x="0" y="0" transform="matrix(1,0,0,1,5,16.75)"><tspan class="quote">“</tspan><tspan>protect</tspan><tspan class="quote">”</tspan></text></g></g></g></g></g><g class="match-fragment" transform="matrix(1,0,0,1,124.6563,25.336)"><path d="M0,21.7578125q10,0 10,-10v-1.7578125q0,-10 10,-10h72.859375q10,0 10,10v1.7578125q0,10 10,10M15,21.7578125q-10,0 -10,10v1.7578125q0,10 10,10h82.859375q10,0 10,-10v-1.7578125q0,-10 -10,-10M107.859375,36.7578125l5,-5m-5,5l-5,-5"></path><g class="any-character" transform="matrix(1,0,0,1,15,10)"><g class="label"><rect width="82.859375" height="23.515625"></rect><text x="0" y="0" transform="matrix(1,0,0,1,5,16.7578)"><tspan>any character</tspan></text></g></g></g><g class="match-fragment literal" transform="matrix(1,0,0,1,247.5156,35.3438)"><g class="label"><rect width="37.328125" height="23.5" rx="3" ry="3"></rect><text x="0" y="0" transform="matrix(1,0,0,1,5,16.75)"><tspan class="quote">“</tspan><tspan> api</tspan><tspan class="quote">”</tspan></text></g></g></g><g transform="matrix(1,0,0,1,0,88)" class="match"><path d="M33.984375,47.0938H58.9844M141.843775,47.0938125H166.8438M188.1563,47.0938H208.1563"></path><g class="match-fragment literal" transform="matrix(1,0,0,1,0,35.3438)"><g class="label"><rect width="33.984375" height="23.5" rx="3" ry="3"></rect><text x="0" y="0" transform="matrix(1,0,0,1,5,16.75)"><tspan class="quote">“</tspan><tspan>api</tspan><tspan class="quote">”</tspan></text></g></g><g class="match-fragment" transform="matrix(1,0,0,1,43.9844,25.336)"><path d="M0,21.7578125q10,0 10,-10v-1.7578125q0,-10 10,-10h72.859375q10,0 10,10v1.7578125q0,10 10,10M15,21.7578125q-10,0 -10,10v1.7578125q0,10 10,10h82.859375q10,0 10,-10v-1.7578125q0,-10 -10,-10M107.859375,36.7578125l5,-5m-5,5l-5,-5"></path><g class="any-character" transform="matrix(1,0,0,1,15,10)"><g class="label"><rect width="82.859375" height="23.515625"></rect><text x="0" y="0" transform="matrix(1,0,0,1,5,16.7578)"><tspan>any character</tspan></text></g></g></g><g class="match-fragment literal" transform="matrix(1,0,0,1,166.8438,35.3438)"><g class="label"><rect width="21.3125" height="23.5" rx="3" ry="3"></rect><text x="0" y="0" transform="matrix(1,0,0,1,5,16.75)"><tspan class="quote">“</tspan><tspan> </tspan><tspan class="quote">”</tspan></text></g></g><g class="match-fragment subexp" transform="matrix(1,0,0,1,198.1563,0)"><rect rx="3" ry="3" class="subexp-box" transform="matrix(1,0,0,1,0,11.0938)" width="114.65625" height="72"></rect><text x="0" y="0" transform="matrix(1,0,0,1,0,11.0938)" class="subexp-label"><tspan>group #2</tspan></text><g transform="matrix(1,0,0,1,10,21.0938)" class="regexp"><path d="M0,26c10,0 10,-14.25 20,-14.25M94.65625,26c-10,0 -10,-14.25 -20,-14.25M0,26c10,0 10,14.25 20,14.25M94.65625,26c-10,0 -10,14.25 -20,14.25"></path><g transform="matrix(1,0,0,1,20,0)" class="regexp-matches"><path d="M0,11.75h12.3438M42.31255,11.75H54.65625M0,40.25h0M54.65625,40.25H54.65625"></path><g class="match match-fragment literal" transform="matrix(1,0,0,1,12.3438,0)"><g class="label"><rect width="29.96875" height="23.5" rx="3" ry="3"></rect><text x="0" y="0" transform="matrix(1,0,0,1,5,16.75)"><tspan class="quote">“</tspan><tspan>fix</tspan><tspan class="quote">”</tspan></text></g></g><g class="match match-fragment literal" transform="matrix(1,0,0,1,0,28.5)"><g class="label"><rect width="54.65625" height="23.5" rx="3" ry="3"></rect><text x="0" y="0" transform="matrix(1,0,0,1,5,16.75)"><tspan class="quote">“</tspan><tspan>protect</tspan><tspan class="quote">”</tspan></text></g></g></g></g></g></g><g transform="matrix(1,0,0,1,29.3203,176)" class="match"><path d="M53.984375,21.757800000000003H78.9844M161.843775,21.7578125H186.8438"></path><g class="match-fragment literal" transform="matrix(1,0,0,1,0,10.0078)"><g class="label"><rect width="53.984375" height="23.5" rx="3" ry="3"></rect><text x="0" y="0" transform="matrix(1,0,0,1,5,16.75)"><tspan class="quote">“</tspan><tspan>secure</tspan><tspan class="quote">”</tspan></text></g></g><g class="match-fragment" transform="matrix(1,0,0,1,63.9844,0)"><path d="M0,21.7578125q10,0 10,-10v-1.7578125q0,-10 10,-10h72.859375q10,0 10,10v1.7578125q0,10 10,10M15,21.7578125q-10,0 -10,10v1.7578125q0,10 10,10h82.859375q10,0 10,-10v-1.7578125q0,-10 -10,-10M107.859375,36.7578125l5,-5m-5,5l-5,-5"></path><g class="any-character" transform="matrix(1,0,0,1,15,10)"><g class="label"><rect width="82.859375" height="23.515625"></rect><text x="0" y="0" transform="matrix(1,0,0,1,5,16.7578)"><tspan>any character</tspan></text></g></g></g><g class="match-fragment literal" transform="matrix(1,0,0,1,186.8438,10.0078)"><g class="label"><rect width="67.328125" height="23.5" rx="3" ry="3"></rect><text x="0" y="0" transform="matrix(1,0,0,1,5,16.75)"><tspan class="quote">“</tspan><tspan> commun</tspan><tspan class="quote">”</tspan></text></g></g></g></g></g><path d="M10,109.80471420288086H0M362.81256103515625,109.80471420288086H372.81256103515625"></path><circle cx="0" cy="109.80471420288086" r="5"></circle><circle cx="372.81256103515625" cy="109.80471420288086" r="5"></circle></g></svg>
          