
            <svg xmlns="http://www.w3.org/2000/svg" xmlns:cc="http://creativecommons.org/ns#" xmlns:rdf="http://www.w3.org/1999/02/22-rdf-syntax-ns#" version="1.1" width="775.6563110351562" height="980.9686889648438">
              <defs>
                <style type="text/css">svg{background-color:#fff}text,tspan{font:12px Arial}path{fill-opacity:0;stroke-width:2px;stroke:#000}circle{fill:#6b6659;stroke-width:2px;stroke:#000}.anchor text,.any-character text{fill:#fff}.anchor rect,.any-character rect{fill:#6b6659}.escape text,.charset-escape text,.literal text{fill:#000}.escape rect,.charset-escape rect{fill:#bada55}.literal rect{fill:#dae9e5}.charset .charset-box{fill:#cbcbba}.subexp .subexp-label tspan,.charset .charset-label tspan,.match-fragment .repeat-label tspan{font-size:10px}.repeat-label{cursor:help}.subexp .subexp-label tspan,.charset .charset-label tspan{dominant-baseline:text-after-edge}.subexp .subexp-box{stroke:#908c83;stroke-dasharray:6,2;stroke-width:2px;fill-opacity:0}.quote{fill:#908c83}
          </style>
              </defs>
              <metadata>
                <rdf:rdf>
                  <cc:license rdf:about="http://creativecommons.org/licenses/by/3.0/">
                    <cc:permits rdf:resource="http://creativecommons.org/ns#Reproduction"></cc:permits>
                    <cc:permits rdf:resource="http://creativecommons.org/ns#Distribution"></cc:permits>
                    <cc:requires rdf:resource="http://creativecommons.org/ns#Notice"></cc:requires>
                    <cc:requires rdf:resource="http://creativecommons.org/ns#Attribution"></cc:requires>
                    <cc:permits rdf:resource="http://creativecommons.org/ns#DerivativeWorks"></cc:permits>
                  </cc:license>
                </rdf:rdf>
              </metadata>
            <desc>Created with Snap</desc><g transform="matrix(1,0,0,1,15,9.9062)" class="root"><g transform="matrix(1,0,0,1,10,0)" class="regexp"><path d="M10,111.1016q0,-10 10,-10M715.6563110351562,111.1016q0,-10 -10,-10M10,307.1172125q0,-10 10,-10M715.6563110351562,307.1172125q0,-10 -10,-10M10,413.7891125q0,-10 10,-10M715.6563110351562,413.7891125q0,-10 -10,-10M10,452.3047q0,-10 10,-10M715.6563110351562,452.3047q0,-10 -10,-10M10,520.4063q0,10 10,10M715.6563110351562,520.4063q0,10 -10,10M10,636.9063q0,10 10,10M715.6563110351562,636.9063q0,10 -10,10M10,753.4063q0,10 10,10M715.6563110351562,753.4063q0,10 -10,10M10,885.4532q0,10 10,10M715.6563110351562,885.4532q0,10 -10,10M0,480.5781440734863q10,0 10,-10V111.1016M725.6563110351562,480.5781440734863q-10,0 -10,-10V111.1016M0,480.5781440734863q10,0 10,10V885.4532M725.6563110351562,480.5781440734863q-10,0 -10,10V885.4532"></path><g transform="matrix(1,0,0,1,20,0)" class="regexp-matches"><path d="M0,101.1016h10M675.656275,101.1016H685.6563110351562M0,297.1172125h10M675.6563,297.1172125H685.6563110351562M0,403.7891125h311.836M373.820375,403.7891125H685.6563110351562M0,442.3047h222.7422M462.914125,442.3047H685.6563110351562M0,530.4063h212.75M482.90625,530.4063H685.6563110351562M0,646.9063h202.75M472.906225,646.9063H685.6563110351562M0,763.4063h263.1797M412.476575,763.4063H685.6563110351562M0,895.4532h103.086M582.5703444824219,895.4532H685.6563110351562"></path><g class="match" transform="matrix(1,0,0,1,0,0)"><path d="M108,101.1016H143M225.859375,101.1016125H250.8594M272.1719,101.1016H292.1719"></path><g class="match-fragment subexp" transform="matrix(1,0,0,1,0,11.2578)"><rect rx="3" ry="3" class="subexp-box" transform="matrix(1,0,0,1,0,11.0938)" width="118" height="157.5"></rect><text x="0" y="0" transform="matrix(1,0,0,1,0,11.0938)" class="subexp-label"><tspan>group #1</tspan></text><g transform="matrix(1,0,0,1,10,21.0938)" class="regexp"><path d="M10,21.75q0,-10 10,-10M88,21.75q0,-10 -10,-10M10,50.25q0,-10 10,-10M88,50.25q0,-10 -10,-10M0,68.75c10,0 10,0 20,0M98,68.75c-10,0 -10,0 -20,0M10,87.25q0,10 10,10M88,87.25q0,10 -10,10M10,115.75q0,10 10,10M88,115.75q0,10 -10,10M0,68.75q10,0 10,-10V21.75M98,68.75q-10,0 -10,-10V21.75M0,68.75q10,0 10,10V115.75M98,68.75q-10,0 -10,10V115.75"></path><g transform="matrix(1,0,0,1,20,0)" class="regexp-matches"><path d="M0,11.75h14.0156M43.98435,11.75H58M0,40.25h0M58,40.25H58M0,68.75h1.6719M56.32815,68.75H58M0,97.25h5M53,97.25H58M0,125.75h5.3359M52.664025,125.75H58"></path><g class="match match-fragment literal" transform="matrix(1,0,0,1,14.0156,0)"><g class="label"><rect width="29.96875" height="23.5" rx="3" ry="3"></rect><text x="0" y="0" transform="matrix(1,0,0,1,5,16.75)"><tspan class="quote">“</tspan><tspan>fix</tspan><tspan class="quote">”</tspan></text></g></g><g class="match match-fragment literal" transform="matrix(1,0,0,1,0,28.5)"><g class="label"><rect width="58" height="23.5" rx="3" ry="3"></rect><text x="0" y="0" transform="matrix(1,0,0,1,5,16.75)"><tspan class="quote">“</tspan><tspan>prevent</tspan><tspan class="quote">”</tspan></text></g></g><g class="match match-fragment literal" transform="matrix(1,0,0,1,1.6719,57)"><g class="label"><rect width="54.65625" height="23.5" rx="3" ry="3"></rect><text x="0" y="0" transform="matrix(1,0,0,1,5,16.75)"><tspan class="quote">“</tspan><tspan>protect</tspan><tspan class="quote">”</tspan></text></g></g><g class="match match-fragment literal" transform="matrix(1,0,0,1,5,85.5)"><g class="label"><rect width="48" height="23.5" rx="3" ry="3"></rect><text x="0" y="0" transform="matrix(1,0,0,1,5,16.75)"><tspan class="quote">“</tspan><tspan>found</tspan><tspan class="quote">”</tspan></text></g></g><g class="match match-fragment literal" transform="matrix(1,0,0,1,5.3359,114)"><g class="label"><rect width="47.328125" height="23.5" rx="3" ry="3"></rect><text x="0" y="0" transform="matrix(1,0,0,1,5,16.75)"><tspan class="quote">“</tspan><tspan>patch</tspan><tspan class="quote">”</tspan></text></g></g></g></g></g><g class="match-fragment" transform="matrix(1,0,0,1,128,79.3438)"><path d="M0,21.7578125q10,0 10,-10v-1.7578125q0,-10 10,-10h72.859375q10,0 10,10v1.7578125q0,10 10,10M15,21.7578125q-10,0 -10,10v1.7578125q0,10 10,10h82.859375q10,0 10,-10v-1.7578125q0,-10 -10,-10M107.859375,36.7578125l5,-5m-5,5l-5,-5"></path><g class="any-character" transform="matrix(1,0,0,1,15,10)"><g class="label"><rect width="82.859375" height="23.515625"></rect><text x="0" y="0" transform="matrix(1,0,0,1,5,16.7578)"><tspan>any character</tspan></text></g></g></g><g class="match-fragment literal" transform="matrix(1,0,0,1,250.8594,89.3516)"><g class="label"><rect width="21.3125" height="23.5" rx="3" ry="3"></rect><text x="0" y="0" transform="matrix(1,0,0,1,5,16.75)"><tspan class="quote">“</tspan><tspan> </tspan><tspan class="quote">”</tspan></text></g></g><g class="match-fragment subexp" transform="matrix(1,0,0,1,282.1719,0)"><rect rx="3" ry="3" class="subexp-box" transform="matrix(1,0,0,1,0,11.0938)" width="403.484375" height="180.015625"></rect><text x="0" y="0" transform="matrix(1,0,0,1,0,11.0938)" class="subexp-label"><tspan>group #2</tspan></text><g transform="matrix(1,0,0,1,10,21.0938)" class="regexp"><path d="M10,21.75q0,-10 10,-10M373.484375,21.75q0,-10 -10,-10M0,80.0078125c10,0 10,-4.414012499999998 20,-4.414012499999998M383.484375,80.0078125c-10,0 -10,-4.414012499999998 -20,-4.414012499999998M10,128.2578q0,10 10,10M373.484375,128.2578q0,10 -10,10M0,80.0078125q10,0 10,-10V21.75M383.484375,80.0078125q-10,0 -10,-10V21.75M0,80.0078125q10,0 10,10V128.2578M383.484375,80.0078125q-10,0 -10,10V128.2578"></path><g transform="matrix(1,0,0,1,20,0)" class="regexp-matches"><path d="M0,11.75h153.7578M189.72655,11.75H343.484375M0,75.5938h0M343.484375,75.5938H343.484375M0,138.2578h55.3281M288.156225,138.2578H343.484375"></path><g transform="matrix(1,0,0,1,153.7578,0)" class="match match-fragment literal"><g class="label"><rect width="35.96875" height="23.5" rx="3" ry="3"></rect><text x="0" y="0" transform="matrix(1,0,0,1,5,16.75)"><tspan class="quote">“</tspan><tspan>xss</tspan><tspan class="quote">”</tspan></text></g></g><g transform="matrix(1,0,0,1,0,28.5)" class="match"><path d="M46.640625,47.0938H71.6406M154.499975,47.0938125H189.5M273.5,47.0938H293.5"></path><g class="match-fragment literal" transform="matrix(1,0,0,1,0,35.3438)"><g class="label"><rect width="46.640625" height="23.5" rx="3" ry="3"></rect><text x="0" y="0" transform="matrix(1,0,0,1,5,16.75)"><tspan class="quote">“</tspan><tspan>cross</tspan><tspan class="quote">”</tspan></text></g></g><g class="match-fragment" transform="matrix(1,0,0,1,56.6406,25.336)"><path d="M0,21.7578125q10,0 10,-10v-1.7578125q0,-10 10,-10h72.859375q10,0 10,10v1.7578125q0,10 10,10M15,21.7578125q-10,0 -10,10v1.7578125q0,10 10,10h82.859375q10,0 10,-10v-1.7578125q0,-10 -10,-10M107.859375,36.7578125l5,-5m-5,5l-5,-5"></path><g class="any-character" transform="matrix(1,0,0,1,15,10)"><g class="label"><rect width="82.859375" height="23.515625"></rect><text x="0" y="0" transform="matrix(1,0,0,1,5,16.7578)"><tspan>any character</tspan></text></g></g></g><g class="match-fragment subexp" transform="matrix(1,0,0,1,179.5,0)"><rect rx="3" ry="3" class="subexp-box" transform="matrix(1,0,0,1,0,11.0938)" width="104" height="72"></rect><text x="0" y="0" transform="matrix(1,0,0,1,0,11.0938)" class="subexp-label"><tspan>group #3</tspan></text><g transform="matrix(1,0,0,1,10,21.0938)" class="regexp"><path d="M0,26c10,0 10,-14.25 20,-14.25M84,26c-10,0 -10,-14.25 -20,-14.25M0,26c10,0 10,14.25 20,14.25M84,26c-10,0 -10,14.25 -20,14.25"></path><g transform="matrix(1,0,0,1,20,0)" class="regexp-matches"><path d="M0,11.75h3.6797M40.320325,11.75H44M0,40.25h0M44,40.25H44"></path><g class="match match-fragment literal" transform="matrix(1,0,0,1,3.6797,0)"><g class="label"><rect width="36.640625" height="23.5" rx="3" ry="3"></rect><text x="0" y="0" transform="matrix(1,0,0,1,5,16.75)"><tspan class="quote">“</tspan><tspan>site</tspan><tspan class="quote">”</tspan></text></g></g><g class="match match-fragment literal" transform="matrix(1,0,0,1,0,28.5)"><g class="label"><rect width="44" height="23.5" rx="3" ry="3"></rect><text x="0" y="0" transform="matrix(1,0,0,1,5,16.75)"><tspan class="quote">“</tspan><tspan>zone</tspan><tspan class="quote">”</tspan></text></g></g></g></g></g><g class="match-fragment literal" transform="matrix(1,0,0,1,293.5,35.3438)"><g class="label"><rect width="49.984375" height="23.5" rx="3" ry="3"></rect><text x="0" y="0" transform="matrix(1,0,0,1,5,16.75)"><tspan class="quote">“</tspan><tspan> script</tspan><tspan class="quote">”</tspan></text></g></g></g><g transform="matrix(1,0,0,1,55.3281,116.5)" class="match"><path d="M46.640625,21.757800000000003H71.6406M154.499975,21.7578125H179.5"></path><g class="match-fragment literal" transform="matrix(1,0,0,1,0,10.0078)"><g class="label"><rect width="46.640625" height="23.5" rx="3" ry="3"></rect><text x="0" y="0" transform="matrix(1,0,0,1,5,16.75)"><tspan class="quote">“</tspan><tspan>script</tspan><tspan class="quote">”</tspan></text></g></g><g class="match-fragment" transform="matrix(1,0,0,1,56.6406,0)"><path d="M0,21.7578125q10,0 10,-10v-1.7578125q0,-10 10,-10h72.859375q10,0 10,10v1.7578125q0,10 10,10M15,21.7578125q-10,0 -10,10v1.7578125q0,10 10,10h82.859375q10,0 10,-10v-1.7578125q0,-10 -10,-10M107.859375,36.7578125l5,-5m-5,5l-5,-5"></path><g class="any-character" transform="matrix(1,0,0,1,15,10)"><g class="label"><rect width="82.859375" height="23.515625"></rect><text x="0" y="0" transform="matrix(1,0,0,1,5,16.7578)"><tspan>any character</tspan></text></g></g></g><g class="match-fragment literal" transform="matrix(1,0,0,1,179.5,10.0078)"><g class="label"><rect width="53.328125" height="23.5" rx="3" ry="3"></rect><text x="0" y="0" transform="matrix(1,0,0,1,5,16.75)"><tspan class="quote">“</tspan><tspan> attack</tspan><tspan class="quote">”</tspan></text></g></g></g></g></g></g></g><g transform="matrix(1,0,0,1,0,196.0156)" class="match"><path d="M393.484375,101.1016125H428.4844M511.343775,101.1016125H536.3438M557.6563,101.1016H577.6563"></path><g class="match-fragment subexp" transform="matrix(1,0,0,1,0,0)"><rect rx="3" ry="3" class="subexp-box" transform="matrix(1,0,0,1,0,11.0938)" width="403.484375" height="180.015625"></rect><text x="0" y="0" transform="matrix(1,0,0,1,0,11.0938)" class="subexp-label"><tspan>group #4</tspan></text><g transform="matrix(1,0,0,1,10,21.0938)" class="regexp"><path d="M10,21.75q0,-10 10,-10M373.484375,21.75q0,-10 -10,-10M0,80.0078125c10,0 10,-4.414012499999998 20,-4.414012499999998M383.484375,80.0078125c-10,0 -10,-4.414012499999998 -20,-4.414012499999998M10,128.2578q0,10 10,10M373.484375,128.2578q0,10 -10,10M0,80.0078125q10,0 10,-10V21.75M383.484375,80.0078125q-10,0 -10,-10V21.75M0,80.0078125q10,0 10,10V128.2578M383.484375,80.0078125q-10,0 -10,10V128.2578"></path><g transform="matrix(1,0,0,1,20,0)" class="regexp-matches"><path d="M0,11.75h153.7578M189.72655,11.75H343.484375M0,75.5938h0M343.484375,75.5938H343.484375M0,138.2578h55.3281M288.156225,138.2578H343.484375"></path><g transform="matrix(1,0,0,1,153.7578,0)" class="match match-fragment literal"><g class="label"><rect width="35.96875" height="23.5" rx="3" ry="3"></rect><text x="0" y="0" transform="matrix(1,0,0,1,5,16.75)"><tspan class="quote">“</tspan><tspan>xss</tspan><tspan class="quote">”</tspan></text></g></g><g transform="matrix(1,0,0,1,0,28.5)" class="match"><path d="M46.640625,47.0938H71.6406M154.499975,47.0938125H189.5M273.5,47.0938H293.5"></path><g class="match-fragment literal" transform="matrix(1,0,0,1,0,35.3438)"><g class="label"><rect width="46.640625" height="23.5" rx="3" ry="3"></rect><text x="0" y="0" transform="matrix(1,0,0,1,5,16.75)"><tspan class="quote">“</tspan><tspan>cross</tspan><tspan class="quote">”</tspan></text></g></g><g class="match-fragment" transform="matrix(1,0,0,1,56.6406,25.336)"><path d="M0,21.7578125q10,0 10,-10v-1.7578125q0,-10 10,-10h72.859375q10,0 10,10v1.7578125q0,10 10,10M15,21.7578125q-10,0 -10,10v1.7578125q0,10 10,10h82.859375q10,0 10,-10v-1.7578125q0,-10 -10,-10M107.859375,36.7578125l5,-5m-5,5l-5,-5"></path><g class="any-character" transform="matrix(1,0,0,1,15,10)"><g class="label"><rect width="82.859375" height="23.515625"></rect><text x="0" y="0" transform="matrix(1,0,0,1,5,16.7578)"><tspan>any character</tspan></text></g></g></g><g class="match-fragment subexp" transform="matrix(1,0,0,1,179.5,0)"><rect rx="3" ry="3" class="subexp-box" transform="matrix(1,0,0,1,0,11.0938)" width="104" height="72"></rect><text x="0" y="0" transform="matrix(1,0,0,1,0,11.0938)" class="subexp-label"><tspan>group #5</tspan></text><g transform="matrix(1,0,0,1,10,21.0938)" class="regexp"><path d="M0,26c10,0 10,-14.25 20,-14.25M84,26c-10,0 -10,-14.25 -20,-14.25M0,26c10,0 10,14.25 20,14.25M84,26c-10,0 -10,14.25 -20,14.25"></path><g transform="matrix(1,0,0,1,20,0)" class="regexp-matches"><path d="M0,11.75h3.6797M40.320325,11.75H44M0,40.25h0M44,40.25H44"></path><g class="match match-fragment literal" transform="matrix(1,0,0,1,3.6797,0)"><g class="label"><rect width="36.640625" height="23.5" rx="3" ry="3"></rect><text x="0" y="0" transform="matrix(1,0,0,1,5,16.75)"><tspan class="quote">“</tspan><tspan>site</tspan><tspan class="quote">”</tspan></text></g></g><g class="match match-fragment literal" transform="matrix(1,0,0,1,0,28.5)"><g class="label"><rect width="44" height="23.5" rx="3" ry="3"></rect><text x="0" y="0" transform="matrix(1,0,0,1,5,16.75)"><tspan class="quote">“</tspan><tspan>zone</tspan><tspan class="quote">”</tspan></text></g></g></g></g></g><g class="match-fragment literal" transform="matrix(1,0,0,1,293.5,35.3438)"><g class="label"><rect width="49.984375" height="23.5" rx="3" ry="3"></rect><text x="0" y="0" transform="matrix(1,0,0,1,5,16.75)"><tspan class="quote">“</tspan><tspan> script</tspan><tspan class="quote">”</tspan></text></g></g></g><g transform="matrix(1,0,0,1,55.3281,116.5)" class="match"><path d="M46.640625,21.757800000000003H71.6406M154.499975,21.7578125H179.5"></path><g class="match-fragment literal" transform="matrix(1,0,0,1,0,10.0078)"><g class="label"><rect width="46.640625" height="23.5" rx="3" ry="3"></rect><text x="0" y="0" transform="matrix(1,0,0,1,5,16.75)"><tspan class="quote">“</tspan><tspan>script</tspan><tspan class="quote">”</tspan></text></g></g><g class="match-fragment" transform="matrix(1,0,0,1,56.6406,0)"><path d="M0,21.7578125q10,0 10,-10v-1.7578125q0,-10 10,-10h72.859375q10,0 10,10v1.7578125q0,10 10,10M15,21.7578125q-10,0 -10,10v1.7578125q0,10 10,10h82.859375q10,0 10,-10v-1.7578125q0,-10 -10,-10M107.859375,36.7578125l5,-5m-5,5l-5,-5"></path><g class="any-character" transform="matrix(1,0,0,1,15,10)"><g class="label"><rect width="82.859375" height="23.515625"></rect><text x="0" y="0" transform="matrix(1,0,0,1,5,16.7578)"><tspan>any character</tspan></text></g></g></g><g class="match-fragment literal" transform="matrix(1,0,0,1,179.5,10.0078)"><g class="label"><rect width="53.328125" height="23.5" rx="3" ry="3"></rect><text x="0" y="0" transform="matrix(1,0,0,1,5,16.75)"><tspan class="quote">“</tspan><tspan> attack</tspan><tspan class="quote">”</tspan></text></g></g></g></g></g></g><g class="match-fragment" transform="matrix(1,0,0,1,413.4844,79.3438)"><path d="M0,21.7578125q10,0 10,-10v-1.7578125q0,-10 10,-10h72.859375q10,0 10,10v1.7578125q0,10 10,10M15,21.7578125q-10,0 -10,10v1.7578125q0,10 10,10h82.859375q10,0 10,-10v-1.7578125q0,-10 -10,-10M107.859375,36.7578125l5,-5m-5,5l-5,-5"></path><g class="any-character" transform="matrix(1,0,0,1,15,10)"><g class="label"><rect width="82.859375" height="23.515625"></rect><text x="0" y="0" transform="matrix(1,0,0,1,5,16.7578)"><tspan>any character</tspan></text></g></g></g><g class="match-fragment literal" transform="matrix(1,0,0,1,536.3438,89.3516)"><g class="label"><rect width="21.3125" height="23.5" rx="3" ry="3"></rect><text x="0" y="0" transform="matrix(1,0,0,1,5,16.75)"><tspan class="quote">“</tspan><tspan> </tspan><tspan class="quote">”</tspan></text></g></g><g class="match-fragment subexp" transform="matrix(1,0,0,1,567.6563,11.2578)"><rect rx="3" ry="3" class="subexp-box" transform="matrix(1,0,0,1,0,11.0938)" width="118" height="157.5"></rect><text x="0" y="0" transform="matrix(1,0,0,1,0,11.0938)" class="subexp-label"><tspan>group #6</tspan></text><g transform="matrix(1,0,0,1,10,21.0938)" class="regexp"><path d="M10,21.75q0,-10 10,-10M88,21.75q0,-10 -10,-10M10,50.25q0,-10 10,-10M88,50.25q0,-10 -10,-10M0,68.75c10,0 10,0 20,0M98,68.75c-10,0 -10,0 -20,0M10,87.25q0,10 10,10M88,87.25q0,10 -10,10M10,115.75q0,10 10,10M88,115.75q0,10 -10,10M0,68.75q10,0 10,-10V21.75M98,68.75q-10,0 -10,-10V21.75M0,68.75q10,0 10,10V115.75M98,68.75q-10,0 -10,10V115.75"></path><g transform="matrix(1,0,0,1,20,0)" class="regexp-matches"><path d="M0,11.75h14.0156M43.98435,11.75H58M0,40.25h0M58,40.25H58M0,68.75h1.6719M56.32815,68.75H58M0,97.25h5M53,97.25H58M0,125.75h5.3359M52.664025,125.75H58"></path><g class="match match-fragment literal" transform="matrix(1,0,0,1,14.0156,0)"><g class="label"><rect width="29.96875" height="23.5" rx="3" ry="3"></rect><text x="0" y="0" transform="matrix(1,0,0,1,5,16.75)"><tspan class="quote">“</tspan><tspan>fix</tspan><tspan class="quote">”</tspan></text></g></g><g class="match match-fragment literal" transform="matrix(1,0,0,1,0,28.5)"><g class="label"><rect width="58" height="23.5" rx="3" ry="3"></rect><text x="0" y="0" transform="matrix(1,0,0,1,5,16.75)"><tspan class="quote">“</tspan><tspan>prevent</tspan><tspan class="quote">”</tspan></text></g></g><g class="match match-fragment literal" transform="matrix(1,0,0,1,1.6719,57)"><g class="label"><rect width="54.65625" height="23.5" rx="3" ry="3"></rect><text x="0" y="0" transform="matrix(1,0,0,1,5,16.75)"><tspan class="quote">“</tspan><tspan>protect</tspan><tspan class="quote">”</tspan></text></g></g><g class="match match-fragment literal" transform="matrix(1,0,0,1,5,85.5)"><g class="label"><rect width="48" height="23.5" rx="3" ry="3"></rect><text x="0" y="0" transform="matrix(1,0,0,1,5,16.75)"><tspan class="quote">“</tspan><tspan>found</tspan><tspan class="quote">”</tspan></text></g></g><g class="match match-fragment literal" transform="matrix(1,0,0,1,5.3359,114)"><g class="label"><rect width="47.328125" height="23.5" rx="3" ry="3"></rect><text x="0" y="0" transform="matrix(1,0,0,1,5,16.75)"><tspan class="quote">“</tspan><tspan>patch</tspan><tspan class="quote">”</tspan></text></g></g></g></g></g></g><g class="match match-fragment literal" transform="matrix(1,0,0,1,311.836,392.0313)"><g class="label"><rect width="61.984375" height="23.515625" rx="3" ry="3"></rect><text x="0" y="0" transform="matrix(1,0,0,1,5,16.7578)"><tspan class="quote">“</tspan><tspan>crlf injec</tspan><tspan class="quote">”</tspan></text></g></g><g transform="matrix(1,0,0,1,222.7422,420.5469)" class="match"><path d="M64.671875,21.757800000000003H89.6719M172.531275,21.7578125H197.5313"></path><g class="match-fragment literal" transform="matrix(1,0,0,1,0,10.0078)"><g class="label"><rect width="64.671875" height="23.5" rx="3" ry="3"></rect><text x="0" y="0" transform="matrix(1,0,0,1,5,16.75)"><tspan class="quote">“</tspan><tspan>http resp</tspan><tspan class="quote">”</tspan></text></g></g><g class="match-fragment" transform="matrix(1,0,0,1,74.6719,0)"><path d="M0,21.7578125q10,0 10,-10v-1.7578125q0,-10 10,-10h72.859375q10,0 10,10v1.7578125q0,10 10,10M15,21.7578125q-10,0 -10,10v1.7578125q0,10 10,10h82.859375q10,0 10,-10v-1.7578125q0,-10 -10,-10M107.859375,36.7578125l5,-5m-5,5l-5,-5"></path><g class="any-character" transform="matrix(1,0,0,1,15,10)"><g class="label"><rect width="82.859375" height="23.515625"></rect><text x="0" y="0" transform="matrix(1,0,0,1,5,16.7578)"><tspan>any character</tspan></text></g></g></g><g class="match-fragment literal" transform="matrix(1,0,0,1,197.5313,10.0078)"><g class="label"><rect width="42.640625" height="23.5" rx="3" ry="3"></rect><text x="0" y="0" transform="matrix(1,0,0,1,5,16.75)"><tspan class="quote">“</tspan><tspan> split</tspan><tspan class="quote">”</tspan></text></g></g></g><g transform="matrix(1,0,0,1,202.75,469.0625)" class="match"><path d="M101.328125,61.3438H136.3281M219.187475,61.3438125H244.1875"></path><g class="match-fragment subexp" transform="matrix(1,0,0,1,0,0)"><rect rx="3" ry="3" class="subexp-box" transform="matrix(1,0,0,1,0,11.0938)" width="111.328125" height="100.5"></rect><text x="0" y="0" transform="matrix(1,0,0,1,0,11.0938)" class="subexp-label"><tspan>group #7</tspan></text><g transform="matrix(1,0,0,1,10,21.0938)" class="regexp"><path d="M10,21.75q0,-10 10,-10M81.328125,21.75q0,-10 -10,-10M0,40.25c10,0 10,0 20,0M91.328125,40.25c-10,0 -10,0 -20,0M10,58.75q0,10 10,10M81.328125,58.75q0,10 -10,10M0,40.25q10,0 10,-10V21.75M91.328125,40.25q-10,0 -10,-10V21.75M0,40.25q10,0 10,10V58.75M91.328125,40.25q-10,0 -10,10V58.75"></path><g transform="matrix(1,0,0,1,20,0)" class="regexp-matches"><path d="M0,11.75h0.3359M50.99215,11.75H51.328125M0,40.25h0M51.328125,40.25H51.328125M0,68.75h5.0078M46.3203,68.75H51.328125"></path><g class="match match-fragment literal" transform="matrix(1,0,0,1,0.3359,0)"><g class="label"><rect width="50.65625" height="23.5" rx="3" ry="3"></rect><text x="0" y="0" transform="matrix(1,0,0,1,5,16.75)"><tspan class="quote">“</tspan><tspan>reflect</tspan><tspan class="quote">”</tspan></text></g></g><g class="match match-fragment literal" transform="matrix(1,0,0,1,0,28.5)"><g class="label"><rect width="51.328125" height="23.5" rx="3" ry="3"></rect><text x="0" y="0" transform="matrix(1,0,0,1,5,16.75)"><tspan class="quote">“</tspan><tspan>stored</tspan><tspan class="quote">”</tspan></text></g></g><g class="match match-fragment literal" transform="matrix(1,0,0,1,5.0078,57)"><g class="label"><rect width="41.3125" height="23.5" rx="3" ry="3"></rect><text x="0" y="0" transform="matrix(1,0,0,1,5,16.75)"><tspan class="quote">“</tspan><tspan>dom</tspan><tspan class="quote">”</tspan></text></g></g></g></g></g><g class="match-fragment" transform="matrix(1,0,0,1,121.3281,39.586)"><path d="M0,21.7578125q10,0 10,-10v-1.7578125q0,-10 10,-10h72.859375q10,0 10,10v1.7578125q0,10 10,10M15,21.7578125q-10,0 -10,10v1.7578125q0,10 10,10h82.859375q10,0 10,-10v-1.7578125q0,-10 -10,-10M107.859375,36.7578125l5,-5m-5,5l-5,-5"></path><g class="any-character" transform="matrix(1,0,0,1,15,10)"><g class="label"><rect width="82.859375" height="23.515625"></rect><text x="0" y="0" transform="matrix(1,0,0,1,5,16.7578)"><tspan>any character</tspan></text></g></g></g><g class="match-fragment literal" transform="matrix(1,0,0,1,244.1875,49.5938)"><g class="label"><rect width="35.96875" height="23.5" rx="3" ry="3"></rect><text x="0" y="0" transform="matrix(1,0,0,1,5,16.75)"><tspan class="quote">“</tspan><tspan>xss</tspan><tspan class="quote">”</tspan></text></g></g></g><g transform="matrix(1,0,0,1,202.75,585.5625)" class="match"><path d="M35.96875,61.3438H60.9688M143.828175,61.3438125H178.8281"></path><g class="match-fragment literal" transform="matrix(1,0,0,1,0,49.5938)"><g class="label"><rect width="35.96875" height="23.5" rx="3" ry="3"></rect><text x="0" y="0" transform="matrix(1,0,0,1,5,16.75)"><tspan class="quote">“</tspan><tspan>xss</tspan><tspan class="quote">”</tspan></text></g></g><g class="match-fragment" transform="matrix(1,0,0,1,45.9688,39.586)"><path d="M0,21.7578125q10,0 10,-10v-1.7578125q0,-10 10,-10h72.859375q10,0 10,10v1.7578125q0,10 10,10M15,21.7578125q-10,0 -10,10v1.7578125q0,10 10,10h82.859375q10,0 10,-10v-1.7578125q0,-10 -10,-10M107.859375,36.7578125l5,-5m-5,5l-5,-5"></path><g class="any-character" transform="matrix(1,0,0,1,15,10)"><g class="label"><rect width="82.859375" height="23.515625"></rect><text x="0" y="0" transform="matrix(1,0,0,1,5,16.7578)"><tspan>any character</tspan></text></g></g></g><g class="match-fragment subexp" transform="matrix(1,0,0,1,168.8281,0)"><rect rx="3" ry="3" class="subexp-box" transform="matrix(1,0,0,1,0,11.0938)" width="111.328125" height="100.5"></rect><text x="0" y="0" transform="matrix(1,0,0,1,0,11.0938)" class="subexp-label"><tspan>group #8</tspan></text><g transform="matrix(1,0,0,1,10,21.0938)" class="regexp"><path d="M10,21.75q0,-10 10,-10M81.328125,21.75q0,-10 -10,-10M0,40.25c10,0 10,0 20,0M91.328125,40.25c-10,0 -10,0 -20,0M10,58.75q0,10 10,10M81.328125,58.75q0,10 -10,10M0,40.25q10,0 10,-10V21.75M91.328125,40.25q-10,0 -10,-10V21.75M0,40.25q10,0 10,10V58.75M91.328125,40.25q-10,0 -10,10V58.75"></path><g transform="matrix(1,0,0,1,20,0)" class="regexp-matches"><path d="M0,11.75h0.3359M50.99215,11.75H51.328125M0,40.25h0M51.328125,40.25H51.328125M0,68.75h5.0078M46.3203,68.75H51.328125"></path><g class="match match-fragment literal" transform="matrix(1,0,0,1,0.3359,0)"><g class="label"><rect width="50.65625" height="23.5" rx="3" ry="3"></rect><text x="0" y="0" transform="matrix(1,0,0,1,5,16.75)"><tspan class="quote">“</tspan><tspan>reflect</tspan><tspan class="quote">”</tspan></text></g></g><g class="match match-fragment literal" transform="matrix(1,0,0,1,0,28.5)"><g class="label"><rect width="51.328125" height="23.5" rx="3" ry="3"></rect><text x="0" y="0" transform="matrix(1,0,0,1,5,16.75)"><tspan class="quote">“</tspan><tspan>stored</tspan><tspan class="quote">”</tspan></text></g></g><g class="match match-fragment literal" transform="matrix(1,0,0,1,5.0078,57)"><g class="label"><rect width="41.3125" height="23.5" rx="3" ry="3"></rect><text x="0" y="0" transform="matrix(1,0,0,1,5,16.75)"><tspan class="quote">“</tspan><tspan>dom</tspan><tspan class="quote">”</tspan></text></g></g></g></g></g></g><g transform="matrix(1,0,0,1,263.1797,702.0625)" class="match"><path d="M39.3125,61.3438H59.3125"></path><g class="match-fragment literal" transform="matrix(1,0,0,1,0,49.5938)"><g class="label"><rect width="39.3125" height="23.5" rx="3" ry="3"></rect><text x="0" y="0" transform="matrix(1,0,0,1,5,16.75)"><tspan class="quote">“</tspan><tspan>xss </tspan><tspan class="quote">”</tspan></text></g></g><g class="match-fragment subexp" transform="matrix(1,0,0,1,49.3125,0)"><rect rx="3" ry="3" class="subexp-box" transform="matrix(1,0,0,1,0,11.0938)" width="109.984375" height="100.5"></rect><text x="0" y="0" transform="matrix(1,0,0,1,0,11.0938)" class="subexp-label"><tspan>group #9</tspan></text><g transform="matrix(1,0,0,1,10,21.0938)" class="regexp"><path d="M10,21.75q0,-10 10,-10M79.984375,21.75q0,-10 -10,-10M0,40.25c10,0 10,0 20,0M89.984375,40.25c-10,0 -10,0 -20,0M10,58.75q0,10 10,10M79.984375,58.75q0,10 -10,10M0,40.25q10,0 10,-10V21.75M89.984375,40.25q-10,0 -10,-10V21.75M0,40.25q10,0 10,10V58.75M89.984375,40.25q-10,0 -10,10V58.75"></path><g transform="matrix(1,0,0,1,20,0)" class="regexp-matches"><path d="M0,11.75h5M44.984375,11.75H49.984375M0,40.25h0M49.984375,40.25H49.984375M0,68.75h2M47.984375,68.75H49.984375"></path><g class="match match-fragment literal" transform="matrix(1,0,0,1,5,0)"><g class="label"><rect width="39.984375" height="23.5" rx="3" ry="3"></rect><text x="0" y="0" transform="matrix(1,0,0,1,5,16.75)"><tspan class="quote">“</tspan><tspan>vuln</tspan><tspan class="quote">”</tspan></text></g></g><g class="match match-fragment literal" transform="matrix(1,0,0,1,0,28.5)"><g class="label"><rect width="49.984375" height="23.5" rx="3" ry="3"></rect><text x="0" y="0" transform="matrix(1,0,0,1,5,16.75)"><tspan class="quote">“</tspan><tspan>attack</tspan><tspan class="quote">”</tspan></text></g></g><g class="match match-fragment literal" transform="matrix(1,0,0,1,2,57)"><g class="label"><rect width="45.984375" height="23.5" rx="3" ry="3"></rect><text x="0" y="0" transform="matrix(1,0,0,1,5,16.75)"><tspan class="quote">“</tspan><tspan>issue</tspan><tspan class="quote">”</tspan></text></g></g></g></g></g></g><g transform="matrix(1,0,0,1,93.086,818.5625)" class="match"><path d="M109.328125,76.89070000000001H144.3281M227.187475,76.8907125H252.1875M273.5,76.8907H293.5"></path><g class="match-fragment subexp" transform="matrix(1,0,0,1,0,29.7969)"><rect rx="3" ry="3" class="subexp-box" transform="matrix(1,0,0,1,0,11.0938)" width="119.328125" height="72"></rect><text x="0" y="0" transform="matrix(1,0,0,1,0,11.0938)" class="subexp-label"><tspan>group #10</tspan></text><g transform="matrix(1,0,0,1,10,21.0938)" class="regexp"><path d="M0,26c10,0 10,-14.25 20,-14.25M99.328125,26c-10,0 -10,-14.25 -20,-14.25M0,26c10,0 10,14.25 20,14.25M99.328125,26c-10,0 -10,14.25 -20,14.25"></path><g transform="matrix(1,0,0,1,20,0)" class="regexp-matches"><path d="M0,11.75h0M59.328125,11.75H59.328125M0,40.25h0.3359M58.99215,40.25H59.328125"></path><g class="match match-fragment literal" transform="matrix(1,0,0,1,0,0)"><g class="label"><rect width="59.328125" height="23.5" rx="3" ry="3"></rect><text x="0" y="0" transform="matrix(1,0,0,1,5,16.75)"><tspan class="quote">“</tspan><tspan>validate</tspan><tspan class="quote">”</tspan></text></g></g><g class="match match-fragment literal" transform="matrix(1,0,0,1,0.3359,28.5)"><g class="label"><rect width="58.65625" height="23.5" rx="3" ry="3"></rect><text x="0" y="0" transform="matrix(1,0,0,1,5,16.75)"><tspan class="quote">“</tspan><tspan>sanitize</tspan><tspan class="quote">”</tspan></text></g></g></g></g></g><g class="match-fragment" transform="matrix(1,0,0,1,129.3281,55.1329)"><path d="M0,21.7578125q10,0 10,-10v-1.7578125q0,-10 10,-10h72.859375q10,0 10,10v1.7578125q0,10 10,10M15,21.7578125q-10,0 -10,10v1.7578125q0,10 10,10h82.859375q10,0 10,-10v-1.7578125q0,-10 -10,-10M107.859375,36.7578125l5,-5m-5,5l-5,-5"></path><g class="any-character" transform="matrix(1,0,0,1,15,10)"><g class="label"><rect width="82.859375" height="23.515625"></rect><text x="0" y="0" transform="matrix(1,0,0,1,5,16.7578)"><tspan>any character</tspan></text></g></g></g><g class="match-fragment literal" transform="matrix(1,0,0,1,252.1875,65.1407)"><g class="label"><rect width="21.3125" height="23.5" rx="3" ry="3"></rect><text x="0" y="0" transform="matrix(1,0,0,1,5,16.75)"><tspan class="quote">“</tspan><tspan> </tspan><tspan class="quote">”</tspan></text></g></g><g class="match-fragment subexp" transform="matrix(1,0,0,1,283.5,0)"><rect rx="3" ry="3" class="subexp-box" transform="matrix(1,0,0,1,0,11.0938)" width="215.98434448242188" height="131.4062042236328"></rect><text x="0" y="0" transform="matrix(1,0,0,1,0,11.0938)" class="subexp-label"><tspan>group #11</tspan></text><g transform="matrix(1,0,0,1,10,21.0938)" class="regexp"><path d="M0,55.79690170288086c10,0 10,-8.703101702880858 20,-8.703101702880858M195.98434448242188,55.79690170288086c-10,0 -10,-8.703101702880858 -20,-8.703101702880858M10,89.75q0,10 10,10M185.98434448242188,89.75q0,10 -10,10M0,55.79690170288086q10,0 10,10V89.75M195.98434448242188,55.79690170288086q-10,0 -10,10V89.75"></path><g transform="matrix(1,0,0,1,20,0)" class="regexp-matches"><path d="M0,47.0938h0M145.98435,47.0938H155.98434448242188M0,99.75h44M111.984375,99.75H155.98434448242188"></path><g class="match" transform="matrix(1,0,0,1,0,0)"><path d="M31.328125,47.0938H51.3281"></path><g class="match-fragment literal" transform="matrix(1,0,0,1,0,35.3438)"><g class="label"><rect width="31.328125" height="23.5" rx="3" ry="3"></rect><text x="0" y="0" transform="matrix(1,0,0,1,5,16.75)"><tspan class="quote">“</tspan><tspan>un</tspan><tspan class="quote">”</tspan></text></g></g><g class="match-fragment subexp" transform="matrix(1,0,0,1,41.3281,0)"><rect rx="3" ry="3" class="subexp-box" transform="matrix(1,0,0,1,0,11.0938)" width="114.65625" height="72"></rect><text x="0" y="0" transform="matrix(1,0,0,1,0,11.0938)" class="subexp-label"><tspan>group #12</tspan></text><g transform="matrix(1,0,0,1,10,21.0938)" class="regexp"><path d="M0,26c10,0 10,-14.25 20,-14.25M94.65625,26c-10,0 -10,-14.25 -20,-14.25M0,26c10,0 10,14.25 20,14.25M94.65625,26c-10,0 -10,14.25 -20,14.25"></path><g transform="matrix(1,0,0,1,20,0)" class="regexp-matches"><path d="M0,11.75h0M54.65625,11.75H54.65625M0,40.25h7M47.65625,40.25H54.65625"></path><g class="match match-fragment literal" transform="matrix(1,0,0,1,0,0)"><g class="label"><rect width="54.65625" height="23.5" rx="3" ry="3"></rect><text x="0" y="0" transform="matrix(1,0,0,1,5,16.75)"><tspan class="quote">“</tspan><tspan>trusted</tspan><tspan class="quote">”</tspan></text></g></g><g class="match match-fragment literal" transform="matrix(1,0,0,1,7,28.5)"><g class="label"><rect width="40.65625" height="23.5" rx="3" ry="3"></rect><text x="0" y="0" transform="matrix(1,0,0,1,5,16.75)"><tspan class="quote">“</tspan><tspan>safe</tspan><tspan class="quote">”</tspan></text></g></g></g></g></g></g><g class="match match-fragment literal" transform="matrix(1,0,0,1,44,88)"><g class="label"><rect width="67.984375" height="23.5" rx="3" ry="3"></rect><text x="0" y="0" transform="matrix(1,0,0,1,5,16.75)"><tspan class="quote">“</tspan><tspan>malicious</tspan><tspan class="quote">”</tspan></text></g></g></g></g></g></g></g></g><path d="M10,480.5781440734863H0M735.6563110351562,480.5781440734863H745.6563110351562"></path><circle cx="0" cy="480.5781440734863" r="5"></circle><circle cx="745.6563110351562" cy="480.5781440734863" r="5"></circle></g></svg>
          